M48
; DRILL file {KiCad (6.0.9)} date Sat Dec 17 09:18:38 2022
; FORMAT={-:-/ absolute / metric / decimal}
; #@! TF.CreationDate,2022-12-17T09:18:38+09:00
; #@! TF.GenerationSoftware,Kicad,Pcbnew,(6.0.9)
; #@! TF.FileFunction,Plated,1,2,PTH
FMAT,2
METRIC
; #@! TA.AperFunction,Plated,PTH,ViaDrill
T1C0.600
; #@! TA.AperFunction,Plated,PTH,ViaDrill
T2C0.700
; #@! TA.AperFunction,Plated,PTH,ComponentDrill
T3C0.800
; #@! TA.AperFunction,Plated,PTH,ComponentDrill
T4C1.000
%
G90
G05
T1
X23.732Y10.155
X32.911Y47.129
X37.309Y44.128
X44.749Y30.645
X46.45Y48.392
X53.646Y48.31
T2
X20.154Y38.553
T3
X18.425Y31.745
X18.425Y29.205
X18.425Y26.665
X18.425Y24.125
X18.425Y21.585
X18.425Y19.045
X18.425Y16.505
X18.425Y13.965
X18.425Y11.425
X18.425Y8.885
X26.045Y31.745
X26.045Y29.205
X26.045Y26.665
X26.045Y24.125
X26.045Y21.585
X26.045Y19.045
X26.045Y16.505
X26.045Y13.965
X26.045Y11.425
X26.045Y8.885
X34.3Y31.745
X34.3Y29.205
X34.3Y26.665
X34.3Y24.125
X34.3Y21.585
X34.3Y19.045
X34.3Y16.505
X34.3Y13.965
X34.3Y11.425
X34.3Y8.885
X41.92Y31.745
X41.92Y29.205
X41.92Y26.665
X41.92Y24.125
X41.92Y21.585
X41.92Y19.045
X41.92Y16.505
X41.92Y13.965
X41.92Y11.425
X41.92Y8.885
T4
X8.37Y53.77
X8.37Y51.23
X8.89Y31.75
X8.89Y29.21
X8.89Y26.67
X8.89Y24.13
X8.89Y21.59
X8.89Y19.05
X8.89Y16.51
X8.89Y13.97
X8.89Y11.43
X8.89Y8.89
X10.91Y53.77
X10.91Y51.23
X13.45Y53.77
X13.45Y51.23
X15.99Y53.77
X15.99Y51.23
X18.53Y53.77
X18.53Y51.23
X21.07Y53.77
X21.07Y51.23
X23.61Y53.77
X23.61Y51.23
X26.15Y53.77
X26.15Y51.23
X28.69Y53.77
X28.69Y51.23
X31.23Y53.77
X31.23Y51.23
X33.77Y53.77
X33.77Y51.23
X36.31Y53.77
X36.31Y51.23
X38.85Y53.77
X38.85Y51.23
X41.39Y53.77
X41.39Y51.23
X43.93Y53.77
X43.93Y51.23
X46.47Y53.77
X46.47Y51.23
X49.01Y53.77
X49.01Y51.23
X50.8Y13.97
X50.8Y11.43
X50.8Y8.89
X50.8Y6.35
X51.55Y53.77
X51.55Y51.23
X54.09Y53.77
X54.09Y51.23
X54.61Y34.29
X54.61Y31.75
X54.61Y29.21
X54.61Y26.67
X54.61Y24.13
X54.61Y21.59
X54.61Y19.05
X54.61Y16.51
X54.61Y13.97
X54.61Y11.43
X54.61Y8.89
X54.61Y6.35
X56.63Y53.77
X56.63Y51.23
T0
M30
