G04 #@! TF.GenerationSoftware,KiCad,Pcbnew,(6.0.9)*
G04 #@! TF.CreationDate,2022-12-17T09:19:39+09:00*
G04 #@! TF.ProjectId,fc-dumper-base-hat-2,66632d64-756d-4706-9572-2d626173652d,rev?*
G04 #@! TF.SameCoordinates,PX5f5e100PY5f5e100*
G04 #@! TF.FileFunction,Copper,L2,Bot*
G04 #@! TF.FilePolarity,Positive*
%FSLAX46Y46*%
G04 Gerber Fmt 4.6, Leading zero omitted, Abs format (unit mm)*
G04 Created by KiCad (PCBNEW (6.0.9)) date 2022-12-17 09:19:39*
%MOMM*%
%LPD*%
G01*
G04 APERTURE LIST*
G04 #@! TA.AperFunction,ComponentPad*
%ADD10R,1.600000X1.600000*%
G04 #@! TD*
G04 #@! TA.AperFunction,ComponentPad*
%ADD11O,1.600000X1.600000*%
G04 #@! TD*
G04 #@! TA.AperFunction,ComponentPad*
%ADD12R,1.700000X1.700000*%
G04 #@! TD*
G04 #@! TA.AperFunction,ComponentPad*
%ADD13O,1.700000X1.700000*%
G04 #@! TD*
G04 #@! TA.AperFunction,ViaPad*
%ADD14C,1.000000*%
G04 #@! TD*
G04 #@! TA.AperFunction,ViaPad*
%ADD15C,0.900000*%
G04 #@! TD*
G04 #@! TA.AperFunction,Conductor*
%ADD16C,0.500000*%
G04 #@! TD*
G04 #@! TA.AperFunction,Conductor*
%ADD17C,0.200000*%
G04 #@! TD*
G04 APERTURE END LIST*
D10*
X34300000Y31745000D03*
D11*
X34300000Y29205000D03*
X34300000Y26665000D03*
X34300000Y24125000D03*
X34300000Y21585000D03*
X34300000Y19045000D03*
X34300000Y16505000D03*
X34300000Y13965000D03*
X34300000Y11425000D03*
X34300000Y8885000D03*
X41920000Y8885000D03*
X41920000Y11425000D03*
X41920000Y13965000D03*
X41920000Y16505000D03*
X41920000Y19045000D03*
X41920000Y21585000D03*
X41920000Y24125000D03*
X41920000Y26665000D03*
X41920000Y29205000D03*
X41920000Y31745000D03*
D10*
X18425000Y31745000D03*
D11*
X18425000Y29205000D03*
X18425000Y26665000D03*
X18425000Y24125000D03*
X18425000Y21585000D03*
X18425000Y19045000D03*
X18425000Y16505000D03*
X18425000Y13965000D03*
X18425000Y11425000D03*
X18425000Y8885000D03*
X26045000Y8885000D03*
X26045000Y11425000D03*
X26045000Y13965000D03*
X26045000Y16505000D03*
X26045000Y19045000D03*
X26045000Y21585000D03*
X26045000Y24125000D03*
X26045000Y26665000D03*
X26045000Y29205000D03*
X26045000Y31745000D03*
D12*
X54610000Y34290000D03*
D13*
X54610000Y31750000D03*
X54610000Y29210000D03*
X54610000Y26670000D03*
X54610000Y24130000D03*
X54610000Y21590000D03*
X54610000Y19050000D03*
X54610000Y16510000D03*
X54610000Y13970000D03*
X54610000Y11430000D03*
X54610000Y8890000D03*
X54610000Y6350000D03*
D12*
X50800000Y13970000D03*
D13*
X50800000Y11430000D03*
X50800000Y8890000D03*
X50800000Y6350000D03*
D12*
X8890000Y31750000D03*
D13*
X8890000Y29210000D03*
X8890000Y26670000D03*
X8890000Y24130000D03*
X8890000Y21590000D03*
X8890000Y19050000D03*
X8890000Y16510000D03*
X8890000Y13970000D03*
X8890000Y11430000D03*
X8890000Y8890000D03*
D12*
X8370000Y51230000D03*
D13*
X8370000Y53770000D03*
X10910000Y51230000D03*
X10910000Y53770000D03*
X13450000Y51230000D03*
X13450000Y53770000D03*
X15990000Y51230000D03*
X15990000Y53770000D03*
X18530000Y51230000D03*
X18530000Y53770000D03*
X21070000Y51230000D03*
X21070000Y53770000D03*
X23610000Y51230000D03*
X23610000Y53770000D03*
X26150000Y51230000D03*
X26150000Y53770000D03*
X28690000Y51230000D03*
X28690000Y53770000D03*
X31230000Y51230000D03*
X31230000Y53770000D03*
X33770000Y51230000D03*
X33770000Y53770000D03*
X36310000Y51230000D03*
X36310000Y53770000D03*
X38850000Y51230000D03*
X38850000Y53770000D03*
X41390000Y51230000D03*
X41390000Y53770000D03*
X43930000Y51230000D03*
X43930000Y53770000D03*
X46470000Y51230000D03*
X46470000Y53770000D03*
X49010000Y51230000D03*
X49010000Y53770000D03*
X51550000Y51230000D03*
X51550000Y53770000D03*
X54090000Y51230000D03*
X54090000Y53770000D03*
X56630000Y51230000D03*
X56630000Y53770000D03*
D14*
X20154300Y38552800D03*
D15*
X32910800Y47129400D03*
X37308900Y44127600D03*
X44748600Y30644800D03*
X46450000Y48392200D03*
X53646300Y48309600D03*
X23732100Y10155000D03*
D16*
X38850000Y51230000D02*
X38850000Y49929900D01*
X15964600Y47364500D02*
X18530000Y49929900D01*
X18425000Y8885000D02*
X18425000Y9588200D01*
X38850000Y49929900D02*
X38600000Y49679900D01*
X15964600Y12048600D02*
X15964600Y47364500D01*
X38600000Y49679900D02*
X38600000Y33007100D01*
X34300000Y9588100D02*
X35550100Y10838200D01*
X41920000Y29205000D02*
X41920000Y29687100D01*
X18425000Y9588200D02*
X15964600Y12048600D01*
X35550100Y10838200D02*
X35550100Y22103000D01*
X34300000Y8885000D02*
X34300000Y9588100D01*
X41920000Y28472900D02*
X41920000Y29205000D01*
X35550100Y22103000D02*
X41920000Y28472900D01*
X34300000Y31745000D02*
X37325000Y31745000D01*
X41920000Y29687100D02*
X38600000Y33007100D01*
X37325000Y31745000D02*
X38600000Y33020000D01*
X18530000Y49929900D02*
X18530000Y51230000D01*
X22225000Y26138900D02*
X25508900Y22855000D01*
X55912100Y10127900D02*
X54610000Y11430000D01*
X28690000Y51230000D02*
X28690000Y49929900D01*
X54751300Y4610600D02*
X55912100Y5771400D01*
X18425000Y31745000D02*
X18425000Y31041900D01*
X26611200Y22855000D02*
X28044900Y21421300D01*
X28044900Y12731300D02*
X36165600Y4610600D01*
X25508900Y22855000D02*
X26611200Y22855000D01*
X18425000Y31041900D02*
X22225000Y27241900D01*
X36165600Y4610600D02*
X54751300Y4610600D01*
X28044900Y21421300D02*
X28044900Y12731300D01*
X18425000Y39664900D02*
X28690000Y49929900D01*
X22225000Y27241900D02*
X22225000Y26138900D01*
X55912100Y5771400D02*
X55912100Y10127900D01*
X18425000Y32370100D02*
X18425000Y32995100D01*
X18425000Y32995100D02*
X18425000Y39664900D01*
X18425000Y32370100D02*
X18425000Y31745000D01*
X26035000Y32672100D02*
X26035000Y32385000D01*
X26035000Y32385000D02*
X26045000Y32375000D01*
X20154300Y38552800D02*
X26035000Y32672100D01*
X26045000Y32375000D02*
X26045000Y31745000D01*
D17*
X18022600Y52400000D02*
X19014400Y52400000D01*
X19701800Y51712600D02*
X19701800Y43524400D01*
X19014400Y52400000D02*
X19701800Y51712600D01*
X15990000Y51230000D02*
X16852600Y51230000D01*
X18425000Y19917100D02*
X18425000Y19045000D01*
X16852600Y51230000D02*
X18022600Y52400000D01*
X16514700Y21827400D02*
X18425000Y19917100D01*
X16514700Y40337300D02*
X16514700Y21827400D01*
X19701800Y43524400D02*
X16514700Y40337300D01*
X34300000Y29205000D02*
X34300000Y29688100D01*
X34300000Y29688100D02*
X32910800Y31077300D01*
X32910800Y31077300D02*
X32910800Y47129400D01*
X30955700Y52380200D02*
X31768200Y52380200D01*
X23610000Y51230000D02*
X23610000Y52092500D01*
X24760100Y54044000D02*
X25652600Y54936500D01*
X29153500Y54936500D02*
X30040100Y54049900D01*
X31768200Y52380200D02*
X32425300Y51723100D01*
X32425300Y48270400D02*
X31760600Y47605700D01*
X31760600Y27536500D02*
X34300000Y24997100D01*
X31760600Y47605700D02*
X31760600Y27536500D01*
X23610000Y52092500D02*
X24760100Y53242600D01*
X25652600Y54936500D02*
X29153500Y54936500D01*
X32425300Y51723100D02*
X32425300Y48270400D01*
X24760100Y53242600D02*
X24760100Y54044000D01*
X30040100Y54049900D02*
X30040100Y53295800D01*
X34300000Y24997100D02*
X34300000Y24125000D01*
X30040100Y53295800D02*
X30955700Y52380200D01*
X18425000Y24997100D02*
X16914800Y26507300D01*
X16914800Y26507300D02*
X16914800Y40128500D01*
X26150000Y49363700D02*
X26150000Y51230000D01*
X18425000Y24125000D02*
X18425000Y24997100D01*
X16914800Y40128500D02*
X26150000Y49363700D01*
X26150000Y53770000D02*
X26150000Y52907400D01*
X19558500Y27117100D02*
X19558500Y23590700D01*
X17324800Y39972600D02*
X17324800Y28710200D01*
X27301600Y51755800D02*
X27301600Y49949400D01*
X19558500Y23590700D02*
X18425000Y22457200D01*
X18884700Y27790900D02*
X19558500Y27117100D01*
X27301600Y49949400D02*
X17324800Y39972600D01*
X18244100Y27790900D02*
X18884700Y27790900D01*
X17324800Y28710200D02*
X18244100Y27790900D01*
X18425000Y22457200D02*
X18425000Y21585000D01*
X26150000Y52907400D02*
X27301600Y51755800D01*
X33857900Y7767800D02*
X34850600Y7767800D01*
X41280000Y13965000D02*
X41920000Y13965000D01*
X29840100Y51757400D02*
X29840100Y11785600D01*
X34850600Y7767800D02*
X41052800Y13970000D01*
X41275000Y13970000D02*
X41280000Y13965000D01*
X28690000Y53770000D02*
X28690000Y52907500D01*
X29840100Y11785600D02*
X33857900Y7767800D01*
X41052800Y13970000D02*
X41275000Y13970000D01*
X28690000Y52907500D02*
X29840100Y51757400D01*
X34300000Y13965000D02*
X34300000Y14927600D01*
X31230000Y17997600D02*
X31230000Y51230000D01*
X34300000Y14927600D02*
X31230000Y17997600D01*
X34290000Y19685000D02*
X34290000Y19927100D01*
X34750700Y27775900D02*
X34134200Y27775900D01*
X33770000Y49049300D02*
X33770000Y51230000D01*
X32160700Y29749400D02*
X32160700Y47440000D01*
X34290000Y19927100D02*
X33190000Y21027100D01*
X33190000Y21027100D02*
X33190000Y22074000D01*
X33190000Y22074000D02*
X33971000Y22855000D01*
X34300000Y19045000D02*
X34300000Y19675000D01*
X34134200Y27775900D02*
X32160700Y29749400D01*
X34586900Y22855000D02*
X35401600Y23669700D01*
X35401600Y27125000D02*
X34750700Y27775900D01*
X32160700Y47440000D02*
X33770000Y49049300D01*
X33971000Y22855000D02*
X34586900Y22855000D01*
X35401600Y23669700D02*
X35401600Y27125000D01*
X34300000Y19675000D02*
X34290000Y19685000D01*
X33770000Y52907500D02*
X34920100Y51757400D01*
X33770000Y53770000D02*
X33770000Y52907500D01*
X34920100Y51757400D02*
X34920100Y46516400D01*
X34920100Y46516400D02*
X37308900Y44127600D01*
X43072400Y33660500D02*
X43072400Y26149600D01*
X41920000Y24755000D02*
X41920000Y24125000D01*
X40120000Y51648400D02*
X40120000Y36612900D01*
X39388200Y52380200D02*
X40120000Y51648400D01*
X37172600Y51230000D02*
X38322800Y52380200D01*
X38322800Y52380200D02*
X39388200Y52380200D01*
X41910000Y24987200D02*
X41910000Y24765000D01*
X41910000Y24765000D02*
X41920000Y24755000D01*
X43072400Y26149600D02*
X41910000Y24987200D01*
X36310000Y51230000D02*
X37172600Y51230000D01*
X40120000Y36612900D02*
X43072400Y33660500D01*
X41115700Y52380200D02*
X41928200Y52380200D01*
X42308900Y22871700D02*
X41599900Y22871700D01*
X42660000Y51648400D02*
X42660000Y40134900D01*
X39323200Y54986500D02*
X40000200Y54309500D01*
X43472600Y39322300D02*
X43472600Y24035400D01*
X40000200Y53495700D02*
X41115700Y52380200D01*
X43304900Y17775000D02*
X49649900Y11430000D01*
X41599900Y22871700D02*
X40816300Y22088100D01*
X42660000Y40134900D02*
X43472600Y39322300D01*
X41634200Y17775000D02*
X43304900Y17775000D01*
X49649900Y11430000D02*
X50800000Y11430000D01*
X38389100Y54986500D02*
X39323200Y54986500D01*
X40816300Y18592900D02*
X41634200Y17775000D01*
X40000200Y54309500D02*
X40000200Y53495700D01*
X43472600Y24035400D02*
X42308900Y22871700D01*
X41928200Y52380200D02*
X42660000Y51648400D01*
X36310000Y53770000D02*
X37172600Y53770000D01*
X37172600Y53770000D02*
X38389100Y54986500D01*
X40816300Y22088100D02*
X40816300Y18592900D01*
X45700000Y49309900D02*
X45700000Y31596200D01*
X45700000Y31596200D02*
X44748600Y30644800D01*
X46470000Y50079900D02*
X45700000Y49309900D01*
X46470000Y51230000D02*
X46470000Y50079900D01*
X46470000Y53770000D02*
X45607400Y53770000D01*
X12180000Y51648400D02*
X12180000Y15631800D01*
X12180000Y15631800D02*
X8890000Y12341800D01*
X8890000Y12341800D02*
X8890000Y11430000D01*
X17140200Y54038100D02*
X17140200Y53269000D01*
X12911800Y52380200D02*
X12180000Y51648400D01*
X43990700Y55386700D02*
X18488800Y55386700D01*
X17140200Y53269000D02*
X16251400Y52380200D01*
X45607400Y53770000D02*
X43990700Y55386700D01*
X18488800Y55386700D02*
X17140200Y54038100D01*
X16251400Y52380200D02*
X12911800Y52380200D01*
X51550000Y52907400D02*
X52739900Y51717500D01*
X50800000Y9801800D02*
X50800000Y8890000D01*
X51550000Y53770000D02*
X51550000Y52907400D01*
X52259500Y11261300D02*
X50800000Y9801800D01*
X52259500Y48600400D02*
X52259500Y11261300D01*
X52739900Y51717500D02*
X52739900Y49080800D01*
X52739900Y49080800D02*
X52259500Y48600400D01*
X50800000Y7261800D02*
X52659600Y9121400D01*
X54090000Y49814000D02*
X54090000Y51230000D01*
X50800000Y6350000D02*
X50800000Y7261800D01*
X52659600Y9121400D02*
X52659600Y48383600D01*
X52659600Y48383600D02*
X54090000Y49814000D01*
X47826700Y53275900D02*
X47826700Y54217800D01*
X54967500Y4045100D02*
X14885000Y4045100D01*
X49010000Y51230000D02*
X49010000Y52092600D01*
X56720100Y55386500D02*
X57835000Y54271600D01*
X10040100Y8890000D02*
X8890000Y8890000D01*
X49010000Y52092600D02*
X47826700Y53275900D01*
X47826700Y54217800D02*
X48995400Y55386500D01*
X57835000Y54271600D02*
X57835000Y6912600D01*
X14885000Y4045100D02*
X10040100Y8890000D01*
X48995400Y55386500D02*
X56720100Y55386500D01*
X57835000Y6912600D02*
X54967500Y4045100D01*
X41910000Y19685000D02*
X41920000Y19675000D01*
X51550000Y51230000D02*
X51550000Y29547200D01*
X41920000Y19675000D02*
X41920000Y19045000D01*
X41910000Y19907200D02*
X41910000Y19685000D01*
X51550000Y29547200D02*
X41910000Y19907200D01*
X52071000Y54926400D02*
X51069400Y54926400D01*
X47830800Y48392200D02*
X46450000Y48392200D01*
X53227400Y53770000D02*
X52071000Y54926400D01*
X51069400Y54926400D02*
X50280000Y54137000D01*
X50280000Y54137000D02*
X50280000Y50841400D01*
X50280000Y50841400D02*
X47830800Y48392200D01*
X54090000Y53770000D02*
X53227400Y53770000D01*
X56630000Y52907500D02*
X55479900Y51757400D01*
X55479900Y51757400D02*
X55479900Y50143200D01*
X56630000Y53770000D02*
X56630000Y52907500D01*
X55479900Y50143200D02*
X53646300Y48309600D01*
X43020100Y11425000D02*
X41920000Y11425000D01*
X54610000Y28347500D02*
X53059800Y26797300D01*
X54610000Y29210000D02*
X54610000Y28347500D01*
X53059800Y6978100D02*
X51253700Y5172000D01*
X49273100Y5172000D02*
X43020100Y11425000D01*
X51253700Y5172000D02*
X49273100Y5172000D01*
X53059800Y26797300D02*
X53059800Y6978100D01*
X17910100Y7783400D02*
X13450000Y12243500D01*
X23732100Y10155000D02*
X21360500Y7783400D01*
X21360500Y7783400D02*
X17910100Y7783400D01*
X13450000Y12243500D02*
X13450000Y51230000D01*
M02*
