G04 #@! TF.GenerationSoftware,KiCad,Pcbnew,(6.0.9)*
G04 #@! TF.CreationDate,2022-12-17T09:19:39+09:00*
G04 #@! TF.ProjectId,fc-dumper-base-hat-2,66632d64-756d-4706-9572-2d626173652d,rev?*
G04 #@! TF.SameCoordinates,PX5f5e100PY5f5e100*
G04 #@! TF.FileFunction,Legend,Bot*
G04 #@! TF.FilePolarity,Positive*
%FSLAX46Y46*%
G04 Gerber Fmt 4.6, Leading zero omitted, Abs format (unit mm)*
G04 Created by KiCad (PCBNEW (6.0.9)) date 2022-12-17 09:19:39*
%MOMM*%
%LPD*%
G01*
G04 APERTURE LIST*
%ADD10C,0.150000*%
%ADD11C,0.120000*%
%ADD12C,2.700000*%
%ADD13R,1.600000X1.600000*%
%ADD14O,1.600000X1.600000*%
%ADD15R,1.700000X1.700000*%
%ADD16O,1.700000X1.700000*%
G04 APERTURE END LIST*
D10*
X8703333Y49277620D02*
X8703333Y48563334D01*
X8750952Y48420477D01*
X8846190Y48325239D01*
X8989047Y48277620D01*
X9084285Y48277620D01*
X7703333Y48277620D02*
X8274761Y48277620D01*
X7989047Y48277620D02*
X7989047Y49277620D01*
X8084285Y49134762D01*
X8179523Y49039524D01*
X8274761Y48991905D01*
D11*
X9640000Y49900000D02*
X57960000Y49900000D01*
X9640000Y52500000D02*
X9640000Y49900000D01*
X7040000Y55100000D02*
X57960000Y55100000D01*
X57960000Y55100000D02*
X57960000Y49900000D01*
X7040000Y51230000D02*
X7040000Y49900000D01*
X7040000Y55100000D02*
X7040000Y52500000D01*
X7040000Y49900000D02*
X8370000Y49900000D01*
X7040000Y52500000D02*
X9640000Y52500000D01*
%LPC*%
D12*
X61500000Y52500000D03*
D13*
X34300000Y31745000D03*
D14*
X34300000Y29205000D03*
X34300000Y26665000D03*
X34300000Y24125000D03*
X34300000Y21585000D03*
X34300000Y19045000D03*
X34300000Y16505000D03*
X34300000Y13965000D03*
X34300000Y11425000D03*
X34300000Y8885000D03*
X41920000Y8885000D03*
X41920000Y11425000D03*
X41920000Y13965000D03*
X41920000Y16505000D03*
X41920000Y19045000D03*
X41920000Y21585000D03*
X41920000Y24125000D03*
X41920000Y26665000D03*
X41920000Y29205000D03*
X41920000Y31745000D03*
D13*
X18425000Y31745000D03*
D14*
X18425000Y29205000D03*
X18425000Y26665000D03*
X18425000Y24125000D03*
X18425000Y21585000D03*
X18425000Y19045000D03*
X18425000Y16505000D03*
X18425000Y13965000D03*
X18425000Y11425000D03*
X18425000Y8885000D03*
X26045000Y8885000D03*
X26045000Y11425000D03*
X26045000Y13965000D03*
X26045000Y16505000D03*
X26045000Y19045000D03*
X26045000Y21585000D03*
X26045000Y24125000D03*
X26045000Y26665000D03*
X26045000Y29205000D03*
X26045000Y31745000D03*
D12*
X3500000Y3500000D03*
X3500000Y52500000D03*
D15*
X54610000Y34290000D03*
D16*
X54610000Y31750000D03*
X54610000Y29210000D03*
X54610000Y26670000D03*
X54610000Y24130000D03*
X54610000Y21590000D03*
X54610000Y19050000D03*
X54610000Y16510000D03*
X54610000Y13970000D03*
X54610000Y11430000D03*
X54610000Y8890000D03*
X54610000Y6350000D03*
D12*
X61500000Y3500000D03*
D15*
X50800000Y13970000D03*
D16*
X50800000Y11430000D03*
X50800000Y8890000D03*
X50800000Y6350000D03*
D15*
X8890000Y31750000D03*
D16*
X8890000Y29210000D03*
X8890000Y26670000D03*
X8890000Y24130000D03*
X8890000Y21590000D03*
X8890000Y19050000D03*
X8890000Y16510000D03*
X8890000Y13970000D03*
X8890000Y11430000D03*
X8890000Y8890000D03*
D15*
X8370000Y51230000D03*
D16*
X8370000Y53770000D03*
X10910000Y51230000D03*
X10910000Y53770000D03*
X13450000Y51230000D03*
X13450000Y53770000D03*
X15990000Y51230000D03*
X15990000Y53770000D03*
X18530000Y51230000D03*
X18530000Y53770000D03*
X21070000Y51230000D03*
X21070000Y53770000D03*
X23610000Y51230000D03*
X23610000Y53770000D03*
X26150000Y51230000D03*
X26150000Y53770000D03*
X28690000Y51230000D03*
X28690000Y53770000D03*
X31230000Y51230000D03*
X31230000Y53770000D03*
X33770000Y51230000D03*
X33770000Y53770000D03*
X36310000Y51230000D03*
X36310000Y53770000D03*
X38850000Y51230000D03*
X38850000Y53770000D03*
X41390000Y51230000D03*
X41390000Y53770000D03*
X43930000Y51230000D03*
X43930000Y53770000D03*
X46470000Y51230000D03*
X46470000Y53770000D03*
X49010000Y51230000D03*
X49010000Y53770000D03*
X51550000Y51230000D03*
X51550000Y53770000D03*
X54090000Y51230000D03*
X54090000Y53770000D03*
X56630000Y51230000D03*
X56630000Y53770000D03*
M02*
