G04 #@! TF.GenerationSoftware,KiCad,Pcbnew,(6.0.9)*
G04 #@! TF.CreationDate,2022-12-17T09:54:21+09:00*
G04 #@! TF.ProjectId,hat-prot-02,6861742d-7072-46f7-942d-30322e6b6963,rev?*
G04 #@! TF.SameCoordinates,PX5f5e100PY5f5e100*
G04 #@! TF.FileFunction,Copper,L1,Top*
G04 #@! TF.FilePolarity,Positive*
%FSLAX46Y46*%
G04 Gerber Fmt 4.6, Leading zero omitted, Abs format (unit mm)*
G04 Created by KiCad (PCBNEW (6.0.9)) date 2022-12-17 09:54:21*
%MOMM*%
%LPD*%
G01*
G04 APERTURE LIST*
G04 Aperture macros list*
%AMFreePoly0*
4,1,22,0.500000,-0.750000,0.000000,-0.750000,0.000000,-0.745033,-0.079941,-0.743568,-0.215256,-0.701293,-0.333266,-0.622738,-0.424486,-0.514219,-0.481581,-0.384460,-0.499164,-0.250000,-0.500000,-0.250000,-0.500000,0.250000,-0.499164,0.250000,-0.499963,0.256109,-0.478152,0.396186,-0.417904,0.524511,-0.324060,0.630769,-0.204165,0.706417,-0.067858,0.745374,0.000000,0.744959,0.000000,0.750000,
0.500000,0.750000,0.500000,-0.750000,0.500000,-0.750000,$1*%
%AMFreePoly1*
4,1,20,0.000000,0.744959,0.073905,0.744508,0.209726,0.703889,0.328688,0.626782,0.421226,0.519385,0.479903,0.390333,0.500000,0.250000,0.500000,-0.250000,0.499851,-0.262216,0.476331,-0.402017,0.414519,-0.529596,0.319384,-0.634700,0.198574,-0.708877,0.061801,-0.746166,0.000000,-0.745033,0.000000,-0.750000,-0.500000,-0.750000,-0.500000,0.750000,0.000000,0.750000,0.000000,0.744959,
0.000000,0.744959,$1*%
G04 Aperture macros list end*
G04 #@! TA.AperFunction,ComponentPad*
%ADD10R,1.700000X1.700000*%
G04 #@! TD*
G04 #@! TA.AperFunction,ComponentPad*
%ADD11O,1.700000X1.700000*%
G04 #@! TD*
G04 #@! TA.AperFunction,SMDPad,CuDef*
%ADD12FreePoly0,90.000000*%
G04 #@! TD*
G04 #@! TA.AperFunction,SMDPad,CuDef*
%ADD13FreePoly1,90.000000*%
G04 #@! TD*
G04 #@! TA.AperFunction,ComponentPad*
%ADD14R,1.800000X1.800000*%
G04 #@! TD*
G04 #@! TA.AperFunction,ComponentPad*
%ADD15C,1.800000*%
G04 #@! TD*
G04 #@! TA.AperFunction,ComponentPad*
%ADD16C,1.400000*%
G04 #@! TD*
G04 #@! TA.AperFunction,ComponentPad*
%ADD17O,1.400000X1.400000*%
G04 #@! TD*
G04 #@! TA.AperFunction,ComponentPad*
%ADD18R,1.050000X1.500000*%
G04 #@! TD*
G04 #@! TA.AperFunction,ComponentPad*
%ADD19O,1.050000X1.500000*%
G04 #@! TD*
G04 #@! TA.AperFunction,ComponentPad*
%ADD20R,1.300000X1.300000*%
G04 #@! TD*
G04 #@! TA.AperFunction,ComponentPad*
%ADD21C,1.300000*%
G04 #@! TD*
G04 #@! TA.AperFunction,ComponentPad*
%ADD22R,1.600000X1.600000*%
G04 #@! TD*
G04 #@! TA.AperFunction,ComponentPad*
%ADD23O,1.600000X1.600000*%
G04 #@! TD*
G04 #@! TA.AperFunction,ViaPad*
%ADD24C,0.900000*%
G04 #@! TD*
G04 #@! TA.AperFunction,Conductor*
%ADD25C,0.500000*%
G04 #@! TD*
G04 #@! TA.AperFunction,Conductor*
%ADD26C,0.200000*%
G04 #@! TD*
G04 APERTURE END LIST*
D10*
X84455000Y11430000D03*
D11*
X86995000Y11430000D03*
X84455000Y8890000D03*
X86995000Y8890000D03*
X84455000Y6350000D03*
X86995000Y6350000D03*
X84455000Y3810000D03*
X86995000Y3810000D03*
D12*
X75565000Y23495000D03*
D13*
X75565000Y24795000D03*
D10*
X85725000Y21590000D03*
D11*
X85725000Y24130000D03*
X85725000Y26670000D03*
D14*
X68580000Y4445000D03*
D15*
X71120000Y4445000D03*
D16*
X71755000Y21590000D03*
D17*
X71755000Y26670000D03*
D18*
X60960000Y15790000D03*
D19*
X62230000Y15790000D03*
X63500000Y15790000D03*
D16*
X74930000Y8255000D03*
D17*
X74930000Y13335000D03*
D14*
X78105000Y24130000D03*
D15*
X80645000Y24130000D03*
D20*
X8890000Y40640000D03*
D21*
X11430000Y40640000D03*
X13970000Y40640000D03*
X16510000Y40640000D03*
X19050000Y40640000D03*
X21590000Y40640000D03*
X24130000Y40640000D03*
X26670000Y40640000D03*
X29210000Y40640000D03*
X31750000Y40640000D03*
X34290000Y40640000D03*
X36830000Y40640000D03*
X39370000Y40640000D03*
X41910000Y40640000D03*
X44450000Y40640000D03*
X46990000Y40640000D03*
X49530000Y40640000D03*
X52070000Y40640000D03*
X54610000Y40640000D03*
X57150000Y40640000D03*
X59690000Y40640000D03*
X62230000Y40640000D03*
X64770000Y40640000D03*
X67310000Y40640000D03*
X69850000Y40640000D03*
X72390000Y40640000D03*
X74930000Y40640000D03*
X77470000Y40640000D03*
X80010000Y40640000D03*
X82550000Y40640000D03*
X8890000Y45720000D03*
X11430000Y45720000D03*
X13970000Y45720000D03*
X16510000Y45720000D03*
X19050000Y45720000D03*
X21590000Y45720000D03*
X24130000Y45720000D03*
X26670000Y45720000D03*
X29210000Y45720000D03*
X31750000Y45720000D03*
X34290000Y45720000D03*
X36830000Y45720000D03*
X39370000Y45720000D03*
X41910000Y45720000D03*
X44450000Y45720000D03*
X46990000Y45720000D03*
X49530000Y45720000D03*
X52070000Y45720000D03*
X54610000Y45720000D03*
X57150000Y45720000D03*
X59690000Y45720000D03*
X62230000Y45720000D03*
X64770000Y45720000D03*
X67310000Y45720000D03*
X69850000Y45720000D03*
X72390000Y45720000D03*
X74930000Y45720000D03*
X77470000Y45720000D03*
X80010000Y45720000D03*
X82550000Y45720000D03*
D12*
X71120000Y10130000D03*
D13*
X71120000Y11430000D03*
D18*
X60960000Y23770000D03*
D19*
X62230000Y23770000D03*
X63500000Y23770000D03*
D16*
X67310000Y8255000D03*
D17*
X67310000Y13335000D03*
D22*
X21590000Y19050000D03*
D23*
X24130000Y19050000D03*
X26670000Y19050000D03*
X29210000Y19050000D03*
X31750000Y19050000D03*
X34290000Y19050000D03*
X36830000Y19050000D03*
X39370000Y19050000D03*
X39370000Y26670000D03*
X36830000Y26670000D03*
X34290000Y26670000D03*
X31750000Y26670000D03*
X29210000Y26670000D03*
X26670000Y26670000D03*
X24130000Y26670000D03*
X21590000Y26670000D03*
D12*
X78740000Y10130000D03*
D13*
X78740000Y11430000D03*
D22*
X39355000Y13960000D03*
D23*
X36815000Y13960000D03*
X34275000Y13960000D03*
X31735000Y13960000D03*
X29195000Y13960000D03*
X26655000Y13960000D03*
X24115000Y13960000D03*
X21575000Y13960000D03*
X21575000Y6340000D03*
X24115000Y6340000D03*
X26655000Y6340000D03*
X29195000Y6340000D03*
X31735000Y6340000D03*
X34275000Y6340000D03*
X36815000Y6340000D03*
X39355000Y6340000D03*
D14*
X76200000Y4445000D03*
D15*
X78740000Y4445000D03*
D10*
X8915000Y31720000D03*
D11*
X8915000Y29180000D03*
X8915000Y26640000D03*
X8915000Y24100000D03*
X8915000Y21560000D03*
X8915000Y19020000D03*
X8915000Y16480000D03*
X8915000Y13940000D03*
X8915000Y11400000D03*
X8915000Y8860000D03*
D10*
X54585000Y34270000D03*
D11*
X54585000Y31730000D03*
X54585000Y29190000D03*
X54585000Y26650000D03*
X54585000Y24110000D03*
X54585000Y21570000D03*
X54585000Y19030000D03*
X54585000Y16490000D03*
X54585000Y13950000D03*
X54585000Y11410000D03*
X54585000Y8870000D03*
X54585000Y6330000D03*
D10*
X50800000Y13960000D03*
D11*
X50800000Y11420000D03*
X50800000Y8880000D03*
X50800000Y6340000D03*
D24*
X25513700Y47786400D03*
X27820300Y34794500D03*
X16331900Y31720000D03*
X26500000Y44397900D03*
X20402200Y30558400D03*
X33168600Y16267800D03*
D25*
X60527900Y1687200D02*
X84872200Y1687200D01*
X39370000Y19050000D02*
X38666900Y19050000D01*
X25414900Y20367000D02*
X20333300Y25448600D01*
X19034100Y31458500D02*
X9852600Y40640000D01*
X9852600Y40640000D02*
X8890000Y40640000D01*
X20333300Y25448600D02*
X20333300Y29216500D01*
X37416800Y17799900D02*
X25414900Y17799900D01*
X54585000Y6330000D02*
X55885100Y6330000D01*
X76493400Y13335000D02*
X74930000Y13335000D01*
X20333300Y29216500D02*
X21302300Y30185500D01*
X55885100Y6330000D02*
X60527900Y1687200D01*
X38666900Y19050000D02*
X37416800Y17799900D01*
X21302300Y30931300D02*
X20775100Y31458500D01*
X84872200Y1687200D02*
X86995000Y3810000D01*
X78398400Y11430000D02*
X76493400Y13335000D01*
X21575000Y13960000D02*
X25414900Y17799900D01*
X20775100Y31458500D02*
X19034100Y31458500D01*
X21302300Y30185500D02*
X21302300Y30931300D01*
X78740000Y11430000D02*
X78398400Y11430000D01*
X25414900Y17799900D02*
X25414900Y20367000D01*
D26*
X8552600Y25370000D02*
X7764800Y26157800D01*
X25513700Y47786400D02*
X26898600Y49171300D01*
X7764800Y26157800D02*
X7764800Y41253500D01*
X21590000Y19050000D02*
X20489900Y19050000D01*
X20489900Y19050000D02*
X14169900Y25370000D01*
X10457300Y41612700D02*
X11430000Y40640000D01*
X14169900Y25370000D02*
X8552600Y25370000D01*
X7764800Y41253500D02*
X8124000Y41612700D01*
X63858700Y49171300D02*
X67310000Y45720000D01*
X26898600Y49171300D02*
X63858700Y49171300D01*
X8124000Y41612700D02*
X10457300Y41612700D01*
X24130000Y30480000D02*
X13970000Y40640000D01*
X24130000Y26670000D02*
X24130000Y30480000D01*
X26670000Y30480000D02*
X16510000Y40640000D01*
X26670000Y26670000D02*
X26670000Y27770100D01*
X26670000Y27770100D02*
X26670000Y30480000D01*
X31750000Y26670000D02*
X31750000Y27940000D01*
X31750000Y27940000D02*
X19050000Y40640000D01*
X21590000Y40640000D02*
X27435500Y34794500D01*
X25400100Y45812000D02*
X25400100Y44450100D01*
X54498900Y48371100D02*
X27959200Y48371100D01*
X27959200Y48371100D02*
X25400100Y45812000D01*
X57150000Y45720000D02*
X54498900Y48371100D01*
X25400100Y44450100D02*
X21590000Y40640000D01*
X27435500Y34794500D02*
X27820300Y34794500D01*
X24130000Y40640000D02*
X27109800Y43619800D01*
X45690300Y43619800D02*
X46140700Y43169400D01*
X27109800Y43619800D02*
X45690300Y43619800D01*
X52080600Y43169400D02*
X54610000Y40640000D01*
X46140700Y43169400D02*
X52080600Y43169400D01*
X34646400Y42419500D02*
X45193300Y42419500D01*
X49862600Y38877700D02*
X61820500Y38877700D01*
X32700700Y40473800D02*
X34646400Y42419500D01*
X45193300Y42419500D02*
X45794200Y41818600D01*
X63209500Y40266700D02*
X63209500Y41106100D01*
X32152300Y39667600D02*
X32700700Y40216000D01*
X62680800Y41634800D02*
X58144800Y41634800D01*
X45794200Y41818600D02*
X47161000Y41818600D01*
X32700700Y40216000D02*
X32700700Y40473800D01*
X48260000Y40719600D02*
X48260000Y40480300D01*
X27642400Y39667600D02*
X32152300Y39667600D01*
X47161000Y41818600D02*
X48260000Y40719600D01*
X48260000Y40480300D02*
X49862600Y38877700D01*
X61820500Y38877700D02*
X63209500Y40266700D01*
X58144800Y41634800D02*
X57150000Y40640000D01*
X26670000Y40640000D02*
X27642400Y39667600D01*
X63209500Y41106100D02*
X62680800Y41634800D01*
X53340100Y40718700D02*
X53340100Y40550900D01*
X53340100Y40550900D02*
X54213100Y39677900D01*
X45975000Y42769300D02*
X51289500Y42769300D01*
X58727900Y39677900D02*
X59690000Y40640000D01*
X51289500Y42769300D02*
X53340100Y40718700D01*
X54213100Y39677900D02*
X58727900Y39677900D01*
X31789700Y43219700D02*
X45524600Y43219700D01*
X29210000Y40640000D02*
X31789700Y43219700D01*
X45524600Y43219700D02*
X45975000Y42769300D01*
X49155200Y42369200D02*
X50800000Y40724400D01*
X50800000Y40465600D02*
X51987800Y39277800D01*
X31750000Y40640000D02*
X33929600Y42819600D01*
X60867800Y39277800D02*
X62230000Y40640000D01*
X51987800Y39277800D02*
X60867800Y39277800D01*
X45809300Y42369200D02*
X49155200Y42369200D01*
X50800000Y40724400D02*
X50800000Y40465600D01*
X33929600Y42819600D02*
X45358900Y42819600D01*
X45358900Y42819600D02*
X45809300Y42369200D01*
X35641400Y41991400D02*
X44491800Y41991400D01*
X62607600Y38477600D02*
X64770000Y40640000D01*
X34290000Y40640000D02*
X35641400Y41991400D01*
X44491800Y41991400D02*
X46039900Y40443300D01*
X46039900Y40443300D02*
X46039900Y40246500D01*
X47808800Y38477600D02*
X62607600Y38477600D01*
X46039900Y40246500D02*
X47808800Y38477600D01*
X42870500Y21570000D02*
X37770500Y26670000D01*
X54585000Y21570000D02*
X42870500Y21570000D01*
X37770500Y26670000D02*
X36830000Y26670000D01*
X27558300Y6340000D02*
X29759800Y8541500D01*
X26655000Y6340000D02*
X27558300Y6340000D01*
X35253900Y26670000D02*
X34290000Y26670000D01*
X42893900Y15201100D02*
X42893900Y19030000D01*
X29759800Y8541500D02*
X36234300Y8541500D01*
X36234300Y8541500D02*
X42893900Y15201100D01*
X42893900Y19030000D02*
X35253900Y26670000D01*
X54585000Y19030000D02*
X42893900Y19030000D01*
X37781300Y41591300D02*
X42307500Y41591300D01*
X43180000Y40551800D02*
X45654300Y38077500D01*
X36830000Y40640000D02*
X37781300Y41591300D01*
X43180000Y40718800D02*
X43180000Y40551800D01*
X45654300Y38077500D02*
X64747500Y38077500D01*
X42307500Y41591300D02*
X43180000Y40718800D01*
X64747500Y38077500D02*
X67310000Y40640000D01*
X55041600Y22912600D02*
X55735800Y23606800D01*
X39370000Y26670000D02*
X40470100Y26670000D01*
X53605400Y33110000D02*
X53434200Y33281200D01*
X53831700Y35651200D02*
X64861200Y35651200D01*
X64861200Y35651200D02*
X69850000Y40640000D01*
X54843000Y33110000D02*
X53605400Y33110000D01*
X53434200Y35253700D02*
X53831700Y35651200D01*
X55735800Y23606800D02*
X55735800Y32217200D01*
X53434200Y33281200D02*
X53434200Y35253700D01*
X40470100Y26670000D02*
X44227500Y22912600D01*
X55735800Y32217200D02*
X54843000Y33110000D01*
X44227500Y22912600D02*
X55041600Y22912600D01*
D25*
X67310000Y8255000D02*
X68580000Y9525000D01*
X70515000Y9525000D02*
X71120000Y10130000D01*
X68580000Y9525000D02*
X70515000Y9525000D01*
X77470000Y23495000D02*
X75565000Y23495000D01*
X78105000Y24130000D02*
X77470000Y23495000D01*
X71755000Y21590000D02*
X73660000Y21590000D01*
X73660000Y21590000D02*
X75565000Y23495000D01*
X22002400Y28332500D02*
X22002400Y31221400D01*
X78740000Y4445000D02*
X77389800Y5795200D01*
X21590000Y27920100D02*
X22002400Y28332500D01*
X21590000Y26670000D02*
X21590000Y27920100D01*
X12700000Y41910000D02*
X8890000Y45720000D01*
X72470200Y5795200D02*
X71120000Y4445000D01*
X22002400Y31221400D02*
X21065200Y32158600D01*
X12700000Y40257100D02*
X12700000Y41910000D01*
X20798500Y32158600D02*
X12700000Y40257100D01*
X77389800Y5795200D02*
X72470200Y5795200D01*
X21065200Y32158600D02*
X20798500Y32158600D01*
D26*
X35560000Y45633300D02*
X35560000Y45832600D01*
X33923400Y46711400D02*
X33020000Y45808000D01*
X33020000Y45808000D02*
X33020000Y45641000D01*
X36444800Y44748500D02*
X35560000Y45633300D01*
X34681200Y46711400D02*
X33923400Y46711400D01*
X33020000Y45641000D02*
X31776900Y44397900D01*
X31776900Y44397900D02*
X26500000Y44397900D01*
X39370000Y45720000D02*
X38398500Y44748500D01*
X35560000Y45832600D02*
X34681200Y46711400D01*
X8915000Y31720000D02*
X16331900Y31720000D01*
X38398500Y44748500D02*
X36444800Y44748500D01*
X36830000Y45720000D02*
X37799500Y46689500D01*
X46472100Y43969600D02*
X55542300Y43969600D01*
X43389200Y45387200D02*
X44356400Y44420000D01*
X56893100Y42618800D02*
X72951200Y42618800D01*
X55542300Y43969600D02*
X56893100Y42618800D01*
X42292900Y46689500D02*
X43389200Y45593200D01*
X72951200Y42618800D02*
X74930000Y40640000D01*
X37799500Y46689500D02*
X42292900Y46689500D01*
X43389200Y45593200D02*
X43389200Y45387200D01*
X46021700Y44420000D02*
X46472100Y43969600D01*
X44356400Y44420000D02*
X46021700Y44420000D01*
X71120000Y40718100D02*
X71120000Y40461000D01*
X56727400Y42218700D02*
X69619400Y42218700D01*
X55376600Y43569500D02*
X56727400Y42218700D01*
X34290000Y45720000D02*
X35990100Y44019900D01*
X76511800Y39681800D02*
X77470000Y40640000D01*
X35990100Y44019900D02*
X45856000Y44019900D01*
X46306400Y43569500D02*
X55376600Y43569500D01*
X16483800Y26640000D02*
X20402200Y30558400D01*
X71899200Y39681800D02*
X76511800Y39681800D01*
X8915000Y26640000D02*
X16483800Y26640000D01*
X45856000Y44019900D02*
X46306400Y43569500D01*
X71120000Y40461000D02*
X71899200Y39681800D01*
X69619400Y42218700D02*
X71120000Y40718100D01*
X55708000Y44369700D02*
X57058800Y43018900D01*
X46991000Y44369700D02*
X55708000Y44369700D01*
X31750000Y45720000D02*
X33141600Y47111600D01*
X44501700Y47111600D02*
X45944300Y45669000D01*
X45944300Y45669000D02*
X45944300Y45416400D01*
X45944300Y45416400D02*
X46991000Y44369700D01*
X33141600Y47111600D02*
X44501700Y47111600D01*
X77631100Y43018900D02*
X80010000Y40640000D01*
X57058800Y43018900D02*
X77631100Y43018900D01*
X26237600Y49571400D02*
X65998600Y49571400D01*
X65998600Y49571400D02*
X69850000Y45720000D01*
X13970000Y45720000D02*
X14933300Y44756700D01*
X21998200Y44756700D02*
X22860000Y45618500D01*
X22860000Y45618500D02*
X22860000Y46193800D01*
X22860000Y46193800D02*
X26237600Y49571400D01*
X14933300Y44756700D02*
X21998200Y44756700D01*
X71665600Y50371600D02*
X21161600Y50371600D01*
X23152400Y13960000D02*
X22045500Y12853100D01*
X7325200Y24025400D02*
X7325200Y45560300D01*
X20700600Y12853100D02*
X10723700Y22830000D01*
X73340200Y44769800D02*
X75346300Y44769800D01*
X8520600Y22830000D02*
X7325200Y24025400D01*
X10723700Y22830000D02*
X8520600Y22830000D01*
X75933300Y45356800D02*
X75933300Y46103900D01*
X72390000Y45720000D02*
X73340200Y44769800D01*
X75933300Y46103900D02*
X71665600Y50371600D01*
X8474100Y46709200D02*
X15520800Y46709200D01*
X7325200Y45560300D02*
X8474100Y46709200D01*
X15520800Y46709200D02*
X16510000Y45720000D01*
X24115000Y13960000D02*
X23152400Y13960000D01*
X22045500Y12853100D02*
X20700600Y12853100D01*
X21161600Y50371600D02*
X16510000Y45720000D01*
X75346300Y44769800D02*
X75933300Y45356800D01*
X25841500Y49971500D02*
X70678500Y49971500D01*
X70678500Y49971500D02*
X74930000Y45720000D01*
X21590000Y45720000D02*
X25841500Y49971500D01*
X24508000Y45720000D02*
X27559200Y48771200D01*
X60960000Y45798400D02*
X60960000Y45591300D01*
X57987200Y48771200D02*
X60960000Y45798400D01*
X76092600Y44342600D02*
X77470000Y45720000D01*
X24130000Y45720000D02*
X24508000Y45720000D01*
X60960000Y45591300D02*
X62208700Y44342600D01*
X62208700Y44342600D02*
X76092600Y44342600D01*
X27559200Y48771200D02*
X57987200Y48771200D01*
X28921000Y47971000D02*
X26670000Y45720000D01*
X55880000Y45610200D02*
X55880000Y45793800D01*
X78232500Y43942500D02*
X57547700Y43942500D01*
X57547700Y43942500D02*
X55880000Y45610200D01*
X53702800Y47971000D02*
X28921000Y47971000D01*
X80010000Y45720000D02*
X78232500Y43942500D01*
X55880000Y45793800D02*
X53702800Y47971000D01*
X56073600Y44769800D02*
X57340000Y43503400D01*
X46538800Y47515700D02*
X48260100Y45794400D01*
X80333400Y43503400D02*
X82550000Y45720000D01*
X57340000Y43503400D02*
X80333400Y43503400D01*
X48260100Y45538100D02*
X49028400Y44769800D01*
X31005700Y47515700D02*
X46538800Y47515700D01*
X48260100Y45794400D02*
X48260100Y45538100D01*
X29210000Y45720000D02*
X31005700Y47515700D01*
X49028400Y44769800D02*
X56073600Y44769800D01*
D25*
X76200000Y9525000D02*
X78135000Y9525000D01*
X74930000Y8255000D02*
X76200000Y9525000D01*
X78135000Y9525000D02*
X78740000Y10130000D01*
D26*
X36108000Y7849500D02*
X45953400Y17694900D01*
X32220800Y5193700D02*
X33005000Y5977900D01*
X26191900Y5193700D02*
X32220800Y5193700D01*
X20613400Y11400000D02*
X25385000Y6628400D01*
X34208000Y7849500D02*
X36108000Y7849500D01*
X25385000Y6000600D02*
X26191900Y5193700D01*
X33005000Y5977900D02*
X33005000Y6646500D01*
X8915000Y11400000D02*
X20613400Y11400000D01*
X45953400Y17694900D02*
X58475000Y17694900D01*
X33005000Y6646500D02*
X34208000Y7849500D01*
X63500000Y23770000D02*
X63500000Y22719900D01*
X58475000Y17694900D02*
X63500000Y22719900D01*
X25385000Y6628400D02*
X25385000Y6000600D01*
X63500000Y16205100D02*
X62865000Y16840100D01*
X60250100Y16840100D02*
X58630000Y15220000D01*
X62865000Y16840100D02*
X60250100Y16840100D01*
X22845000Y6646600D02*
X20631600Y8860000D01*
X22845000Y6031000D02*
X22845000Y6646600D01*
X35403500Y6487600D02*
X35403500Y5847600D01*
X24082400Y4793600D02*
X22845000Y6031000D01*
X44135900Y15220000D02*
X35403500Y6487600D01*
X35403500Y5847600D02*
X34349500Y4793600D01*
X34349500Y4793600D02*
X24082400Y4793600D01*
X20631600Y8860000D02*
X8915000Y8860000D01*
X63500000Y15790000D02*
X63500000Y16205100D01*
X58630000Y15220000D02*
X44135900Y15220000D01*
D25*
X55885100Y11410000D02*
X61991100Y11410000D01*
X84455000Y11430000D02*
X83154900Y11430000D01*
X54585000Y11410000D02*
X55885100Y11410000D01*
X80050600Y14534300D02*
X83154900Y11430000D01*
X65115400Y14534300D02*
X80050600Y14534300D01*
X61991100Y11410000D02*
X65115400Y14534300D01*
D26*
X66204300Y6814800D02*
X81229700Y6814800D01*
X81229700Y6814800D02*
X83304900Y8890000D01*
X84455000Y8890000D02*
X83304900Y8890000D01*
X54585000Y8870000D02*
X64149100Y8870000D01*
X64149100Y8870000D02*
X66204300Y6814800D01*
D25*
X74284900Y34270000D02*
X84424900Y24130000D01*
X85725000Y24130000D02*
X84424900Y24130000D01*
X54585000Y34270000D02*
X74284900Y34270000D01*
D26*
X50820000Y31730000D02*
X41910000Y40640000D01*
X54585000Y31730000D02*
X50820000Y31730000D01*
X51509200Y28575700D02*
X32236200Y28575700D01*
X18609000Y42433900D02*
X14716100Y42433900D01*
X20320000Y40491900D02*
X20320000Y40722900D01*
X53434900Y26650000D02*
X51509200Y28575700D01*
X20320000Y40722900D02*
X18609000Y42433900D01*
X32236200Y28575700D02*
X20320000Y40491900D01*
X54585000Y26650000D02*
X53434900Y26650000D01*
X14716100Y42433900D02*
X11430000Y45720000D01*
X83149400Y7620000D02*
X81944100Y6414700D01*
X86083200Y8890000D02*
X84813200Y7620000D01*
X86995000Y8890000D02*
X86083200Y8890000D01*
X66038600Y6414700D02*
X64939100Y7514200D01*
X84813200Y7620000D02*
X83149400Y7620000D01*
X64939100Y7514200D02*
X53124300Y7514200D01*
X51950100Y6340000D02*
X50800000Y6340000D01*
X53124300Y7514200D02*
X51950100Y6340000D01*
X81944100Y6414700D02*
X66038600Y6414700D01*
X53143200Y10073100D02*
X51950100Y8880000D01*
X66452600Y7215000D02*
X63594500Y10073100D01*
X51950100Y8880000D02*
X50800000Y8880000D01*
X86658200Y11430000D02*
X85508000Y10279800D01*
X86995000Y11430000D02*
X86658200Y11430000D01*
X85508000Y10279800D02*
X82060000Y10279800D01*
X82060000Y10279800D02*
X78995200Y7215000D01*
X78995200Y7215000D02*
X66452600Y7215000D01*
X63594500Y10073100D02*
X53143200Y10073100D01*
D25*
X69215000Y13335000D02*
X71120000Y11430000D01*
X67310000Y13335000D02*
X69215000Y13335000D01*
X62230000Y15790000D02*
X62230000Y15224900D01*
X69530200Y20173800D02*
X69530200Y25715200D01*
X62230000Y15224900D02*
X62865000Y14589900D01*
X70485000Y26670000D02*
X71755000Y26670000D01*
X62865000Y14589900D02*
X63946300Y14589900D01*
X73690000Y26670000D02*
X75565000Y24795000D01*
X63946300Y14589900D02*
X69530200Y20173800D01*
X69530200Y25715200D02*
X70485000Y26670000D01*
X71755000Y26670000D02*
X73690000Y26670000D01*
D26*
X29195000Y13960000D02*
X30157600Y13960000D01*
X32465400Y16267800D02*
X33168600Y16267800D01*
X30157600Y13960000D02*
X32465400Y16267800D01*
M02*
