G04 #@! TF.GenerationSoftware,KiCad,Pcbnew,(6.0.9)*
G04 #@! TF.CreationDate,2022-12-17T09:54:21+09:00*
G04 #@! TF.ProjectId,hat-prot-02,6861742d-7072-46f7-942d-30322e6b6963,rev?*
G04 #@! TF.SameCoordinates,PX5f5e100PY5f5e100*
G04 #@! TF.FileFunction,Soldermask,Bot*
G04 #@! TF.FilePolarity,Negative*
%FSLAX46Y46*%
G04 Gerber Fmt 4.6, Leading zero omitted, Abs format (unit mm)*
G04 Created by KiCad (PCBNEW (6.0.9)) date 2022-12-17 09:54:21*
%MOMM*%
%LPD*%
G01*
G04 APERTURE LIST*
%ADD10R,1.700000X1.700000*%
%ADD11O,1.700000X1.700000*%
%ADD12C,2.700000*%
%ADD13R,1.800000X1.800000*%
%ADD14C,1.800000*%
%ADD15C,1.400000*%
%ADD16O,1.400000X1.400000*%
%ADD17R,1.050000X1.500000*%
%ADD18O,1.050000X1.500000*%
%ADD19R,1.300000X1.300000*%
%ADD20C,1.300000*%
%ADD21R,1.600000X1.600000*%
%ADD22O,1.600000X1.600000*%
G04 APERTURE END LIST*
D10*
X84455000Y11430000D03*
D11*
X86995000Y11430000D03*
X84455000Y8890000D03*
X86995000Y8890000D03*
X84455000Y6350000D03*
X86995000Y6350000D03*
X84455000Y3810000D03*
X86995000Y3810000D03*
D12*
X61500000Y52500000D03*
D10*
X85725000Y21590000D03*
D11*
X85725000Y24130000D03*
X85725000Y26670000D03*
D13*
X68580000Y4445000D03*
D14*
X71120000Y4445000D03*
D15*
X71755000Y21590000D03*
D16*
X71755000Y26670000D03*
D17*
X60960000Y15790000D03*
D18*
X62230000Y15790000D03*
X63500000Y15790000D03*
D15*
X74930000Y8255000D03*
D16*
X74930000Y13335000D03*
D13*
X78105000Y24130000D03*
D14*
X80645000Y24130000D03*
D12*
X3500000Y3500000D03*
D19*
X8890000Y40640000D03*
D20*
X11430000Y40640000D03*
X13970000Y40640000D03*
X16510000Y40640000D03*
X19050000Y40640000D03*
X21590000Y40640000D03*
X24130000Y40640000D03*
X26670000Y40640000D03*
X29210000Y40640000D03*
X31750000Y40640000D03*
X34290000Y40640000D03*
X36830000Y40640000D03*
X39370000Y40640000D03*
X41910000Y40640000D03*
X44450000Y40640000D03*
X46990000Y40640000D03*
X49530000Y40640000D03*
X52070000Y40640000D03*
X54610000Y40640000D03*
X57150000Y40640000D03*
X59690000Y40640000D03*
X62230000Y40640000D03*
X64770000Y40640000D03*
X67310000Y40640000D03*
X69850000Y40640000D03*
X72390000Y40640000D03*
X74930000Y40640000D03*
X77470000Y40640000D03*
X80010000Y40640000D03*
X82550000Y40640000D03*
X8890000Y45720000D03*
X11430000Y45720000D03*
X13970000Y45720000D03*
X16510000Y45720000D03*
X19050000Y45720000D03*
X21590000Y45720000D03*
X24130000Y45720000D03*
X26670000Y45720000D03*
X29210000Y45720000D03*
X31750000Y45720000D03*
X34290000Y45720000D03*
X36830000Y45720000D03*
X39370000Y45720000D03*
X41910000Y45720000D03*
X44450000Y45720000D03*
X46990000Y45720000D03*
X49530000Y45720000D03*
X52070000Y45720000D03*
X54610000Y45720000D03*
X57150000Y45720000D03*
X59690000Y45720000D03*
X62230000Y45720000D03*
X64770000Y45720000D03*
X67310000Y45720000D03*
X69850000Y45720000D03*
X72390000Y45720000D03*
X74930000Y45720000D03*
X77470000Y45720000D03*
X80010000Y45720000D03*
X82550000Y45720000D03*
D12*
X3500000Y52500000D03*
D17*
X60960000Y23770000D03*
D18*
X62230000Y23770000D03*
X63500000Y23770000D03*
D15*
X67310000Y8255000D03*
D16*
X67310000Y13335000D03*
D21*
X21590000Y19050000D03*
D22*
X24130000Y19050000D03*
X26670000Y19050000D03*
X29210000Y19050000D03*
X31750000Y19050000D03*
X34290000Y19050000D03*
X36830000Y19050000D03*
X39370000Y19050000D03*
X39370000Y26670000D03*
X36830000Y26670000D03*
X34290000Y26670000D03*
X31750000Y26670000D03*
X29210000Y26670000D03*
X26670000Y26670000D03*
X24130000Y26670000D03*
X21590000Y26670000D03*
D12*
X61500000Y3500000D03*
D21*
X39355000Y13960000D03*
D22*
X36815000Y13960000D03*
X34275000Y13960000D03*
X31735000Y13960000D03*
X29195000Y13960000D03*
X26655000Y13960000D03*
X24115000Y13960000D03*
X21575000Y13960000D03*
X21575000Y6340000D03*
X24115000Y6340000D03*
X26655000Y6340000D03*
X29195000Y6340000D03*
X31735000Y6340000D03*
X34275000Y6340000D03*
X36815000Y6340000D03*
X39355000Y6340000D03*
D13*
X76200000Y4445000D03*
D14*
X78740000Y4445000D03*
D10*
X8915000Y31720000D03*
D11*
X8915000Y29180000D03*
X8915000Y26640000D03*
X8915000Y24100000D03*
X8915000Y21560000D03*
X8915000Y19020000D03*
X8915000Y16480000D03*
X8915000Y13940000D03*
X8915000Y11400000D03*
X8915000Y8860000D03*
D10*
X54585000Y34270000D03*
D11*
X54585000Y31730000D03*
X54585000Y29190000D03*
X54585000Y26650000D03*
X54585000Y24110000D03*
X54585000Y21570000D03*
X54585000Y19030000D03*
X54585000Y16490000D03*
X54585000Y13950000D03*
X54585000Y11410000D03*
X54585000Y8870000D03*
X54585000Y6330000D03*
D10*
X50800000Y13960000D03*
D11*
X50800000Y11420000D03*
X50800000Y8880000D03*
X50800000Y6340000D03*
M02*
