G04 #@! TF.GenerationSoftware,KiCad,Pcbnew,(6.0.9)*
G04 #@! TF.CreationDate,2022-12-17T09:54:21+09:00*
G04 #@! TF.ProjectId,hat-prot-02,6861742d-7072-46f7-942d-30322e6b6963,rev?*
G04 #@! TF.SameCoordinates,PX5f5e100PY5f5e100*
G04 #@! TF.FileFunction,Soldermask,Top*
G04 #@! TF.FilePolarity,Negative*
%FSLAX46Y46*%
G04 Gerber Fmt 4.6, Leading zero omitted, Abs format (unit mm)*
G04 Created by KiCad (PCBNEW (6.0.9)) date 2022-12-17 09:54:21*
%MOMM*%
%LPD*%
G01*
G04 APERTURE LIST*
G04 Aperture macros list*
%AMFreePoly0*
4,1,22,0.500000,-0.750000,0.000000,-0.750000,0.000000,-0.745033,-0.079941,-0.743568,-0.215256,-0.701293,-0.333266,-0.622738,-0.424486,-0.514219,-0.481581,-0.384460,-0.499164,-0.250000,-0.500000,-0.250000,-0.500000,0.250000,-0.499164,0.250000,-0.499963,0.256109,-0.478152,0.396186,-0.417904,0.524511,-0.324060,0.630769,-0.204165,0.706417,-0.067858,0.745374,0.000000,0.744959,0.000000,0.750000,
0.500000,0.750000,0.500000,-0.750000,0.500000,-0.750000,$1*%
%AMFreePoly1*
4,1,20,0.000000,0.744959,0.073905,0.744508,0.209726,0.703889,0.328688,0.626782,0.421226,0.519385,0.479903,0.390333,0.500000,0.250000,0.500000,-0.250000,0.499851,-0.262216,0.476331,-0.402017,0.414519,-0.529596,0.319384,-0.634700,0.198574,-0.708877,0.061801,-0.746166,0.000000,-0.745033,0.000000,-0.750000,-0.500000,-0.750000,-0.500000,0.750000,0.000000,0.750000,0.000000,0.744959,
0.000000,0.744959,$1*%
G04 Aperture macros list end*
%ADD10R,1.700000X1.700000*%
%ADD11O,1.700000X1.700000*%
%ADD12C,2.700000*%
%ADD13FreePoly0,90.000000*%
%ADD14FreePoly1,90.000000*%
%ADD15R,1.800000X1.800000*%
%ADD16C,1.800000*%
%ADD17C,1.400000*%
%ADD18O,1.400000X1.400000*%
%ADD19R,1.050000X1.500000*%
%ADD20O,1.050000X1.500000*%
%ADD21R,1.300000X1.300000*%
%ADD22C,1.300000*%
%ADD23R,1.600000X1.600000*%
%ADD24O,1.600000X1.600000*%
G04 APERTURE END LIST*
D10*
X84455000Y11430000D03*
D11*
X86995000Y11430000D03*
X84455000Y8890000D03*
X86995000Y8890000D03*
X84455000Y6350000D03*
X86995000Y6350000D03*
X84455000Y3810000D03*
X86995000Y3810000D03*
D12*
X61500000Y52500000D03*
D13*
X75565000Y23495000D03*
D14*
X75565000Y24795000D03*
D10*
X85725000Y21590000D03*
D11*
X85725000Y24130000D03*
X85725000Y26670000D03*
D15*
X68580000Y4445000D03*
D16*
X71120000Y4445000D03*
D17*
X71755000Y21590000D03*
D18*
X71755000Y26670000D03*
D19*
X60960000Y15790000D03*
D20*
X62230000Y15790000D03*
X63500000Y15790000D03*
D17*
X74930000Y8255000D03*
D18*
X74930000Y13335000D03*
D15*
X78105000Y24130000D03*
D16*
X80645000Y24130000D03*
D12*
X3500000Y3500000D03*
D21*
X8890000Y40640000D03*
D22*
X11430000Y40640000D03*
X13970000Y40640000D03*
X16510000Y40640000D03*
X19050000Y40640000D03*
X21590000Y40640000D03*
X24130000Y40640000D03*
X26670000Y40640000D03*
X29210000Y40640000D03*
X31750000Y40640000D03*
X34290000Y40640000D03*
X36830000Y40640000D03*
X39370000Y40640000D03*
X41910000Y40640000D03*
X44450000Y40640000D03*
X46990000Y40640000D03*
X49530000Y40640000D03*
X52070000Y40640000D03*
X54610000Y40640000D03*
X57150000Y40640000D03*
X59690000Y40640000D03*
X62230000Y40640000D03*
X64770000Y40640000D03*
X67310000Y40640000D03*
X69850000Y40640000D03*
X72390000Y40640000D03*
X74930000Y40640000D03*
X77470000Y40640000D03*
X80010000Y40640000D03*
X82550000Y40640000D03*
X8890000Y45720000D03*
X11430000Y45720000D03*
X13970000Y45720000D03*
X16510000Y45720000D03*
X19050000Y45720000D03*
X21590000Y45720000D03*
X24130000Y45720000D03*
X26670000Y45720000D03*
X29210000Y45720000D03*
X31750000Y45720000D03*
X34290000Y45720000D03*
X36830000Y45720000D03*
X39370000Y45720000D03*
X41910000Y45720000D03*
X44450000Y45720000D03*
X46990000Y45720000D03*
X49530000Y45720000D03*
X52070000Y45720000D03*
X54610000Y45720000D03*
X57150000Y45720000D03*
X59690000Y45720000D03*
X62230000Y45720000D03*
X64770000Y45720000D03*
X67310000Y45720000D03*
X69850000Y45720000D03*
X72390000Y45720000D03*
X74930000Y45720000D03*
X77470000Y45720000D03*
X80010000Y45720000D03*
X82550000Y45720000D03*
D12*
X3500000Y52500000D03*
D13*
X71120000Y10130000D03*
D14*
X71120000Y11430000D03*
D19*
X60960000Y23770000D03*
D20*
X62230000Y23770000D03*
X63500000Y23770000D03*
D17*
X67310000Y8255000D03*
D18*
X67310000Y13335000D03*
D23*
X21590000Y19050000D03*
D24*
X24130000Y19050000D03*
X26670000Y19050000D03*
X29210000Y19050000D03*
X31750000Y19050000D03*
X34290000Y19050000D03*
X36830000Y19050000D03*
X39370000Y19050000D03*
X39370000Y26670000D03*
X36830000Y26670000D03*
X34290000Y26670000D03*
X31750000Y26670000D03*
X29210000Y26670000D03*
X26670000Y26670000D03*
X24130000Y26670000D03*
X21590000Y26670000D03*
D12*
X61500000Y3500000D03*
D13*
X78740000Y10130000D03*
D14*
X78740000Y11430000D03*
D23*
X39355000Y13960000D03*
D24*
X36815000Y13960000D03*
X34275000Y13960000D03*
X31735000Y13960000D03*
X29195000Y13960000D03*
X26655000Y13960000D03*
X24115000Y13960000D03*
X21575000Y13960000D03*
X21575000Y6340000D03*
X24115000Y6340000D03*
X26655000Y6340000D03*
X29195000Y6340000D03*
X31735000Y6340000D03*
X34275000Y6340000D03*
X36815000Y6340000D03*
X39355000Y6340000D03*
D15*
X76200000Y4445000D03*
D16*
X78740000Y4445000D03*
D10*
X8915000Y31720000D03*
D11*
X8915000Y29180000D03*
X8915000Y26640000D03*
X8915000Y24100000D03*
X8915000Y21560000D03*
X8915000Y19020000D03*
X8915000Y16480000D03*
X8915000Y13940000D03*
X8915000Y11400000D03*
X8915000Y8860000D03*
D10*
X54585000Y34270000D03*
D11*
X54585000Y31730000D03*
X54585000Y29190000D03*
X54585000Y26650000D03*
X54585000Y24110000D03*
X54585000Y21570000D03*
X54585000Y19030000D03*
X54585000Y16490000D03*
X54585000Y13950000D03*
X54585000Y11410000D03*
X54585000Y8870000D03*
X54585000Y6330000D03*
D10*
X50800000Y13960000D03*
D11*
X50800000Y11420000D03*
X50800000Y8880000D03*
X50800000Y6340000D03*
M02*
