G04 #@! TF.GenerationSoftware,KiCad,Pcbnew,(6.0.9)*
G04 #@! TF.CreationDate,2022-12-17T09:54:21+09:00*
G04 #@! TF.ProjectId,hat-prot-02,6861742d-7072-46f7-942d-30322e6b6963,rev?*
G04 #@! TF.SameCoordinates,PX5f5e100PY5f5e100*
G04 #@! TF.FileFunction,Legend,Top*
G04 #@! TF.FilePolarity,Positive*
%FSLAX46Y46*%
G04 Gerber Fmt 4.6, Leading zero omitted, Abs format (unit mm)*
G04 Created by KiCad (PCBNEW (6.0.9)) date 2022-12-17 09:54:21*
%MOMM*%
%LPD*%
G01*
G04 APERTURE LIST*
G04 Aperture macros list*
%AMFreePoly0*
4,1,22,0.500000,-0.750000,0.000000,-0.750000,0.000000,-0.745033,-0.079941,-0.743568,-0.215256,-0.701293,-0.333266,-0.622738,-0.424486,-0.514219,-0.481581,-0.384460,-0.499164,-0.250000,-0.500000,-0.250000,-0.500000,0.250000,-0.499164,0.250000,-0.499963,0.256109,-0.478152,0.396186,-0.417904,0.524511,-0.324060,0.630769,-0.204165,0.706417,-0.067858,0.745374,0.000000,0.744959,0.000000,0.750000,
0.500000,0.750000,0.500000,-0.750000,0.500000,-0.750000,$1*%
%AMFreePoly1*
4,1,20,0.000000,0.744959,0.073905,0.744508,0.209726,0.703889,0.328688,0.626782,0.421226,0.519385,0.479903,0.390333,0.500000,0.250000,0.500000,-0.250000,0.499851,-0.262216,0.476331,-0.402017,0.414519,-0.529596,0.319384,-0.634700,0.198574,-0.708877,0.061801,-0.746166,0.000000,-0.745033,0.000000,-0.750000,-0.500000,-0.750000,-0.500000,0.750000,0.000000,0.750000,0.000000,0.744959,
0.000000,0.744959,$1*%
G04 Aperture macros list end*
%ADD10C,0.150000*%
%ADD11C,0.300000*%
%ADD12C,0.254000*%
%ADD13C,0.120000*%
%ADD14C,0.100000*%
%ADD15C,0.200000*%
%ADD16R,1.700000X1.700000*%
%ADD17O,1.700000X1.700000*%
%ADD18C,2.700000*%
%ADD19FreePoly0,90.000000*%
%ADD20FreePoly1,90.000000*%
%ADD21R,1.800000X1.800000*%
%ADD22C,1.800000*%
%ADD23C,1.400000*%
%ADD24O,1.400000X1.400000*%
%ADD25R,1.050000X1.500000*%
%ADD26O,1.050000X1.500000*%
%ADD27R,1.300000X1.300000*%
%ADD28C,1.300000*%
%ADD29R,1.600000X1.600000*%
%ADD30O,1.600000X1.600000*%
G04 APERTURE END LIST*
D10*
X44029523Y37044286D02*
X44410476Y37044286D01*
X44172380Y36377620D02*
X44172380Y37234762D01*
X44220000Y37330000D01*
X44315238Y37377620D01*
X44410476Y37377620D01*
X44743809Y36377620D02*
X44743809Y37044286D01*
X44743809Y36853810D02*
X44791428Y36949048D01*
X44839047Y36996667D01*
X44934285Y37044286D01*
X45029523Y37044286D01*
X45505714Y36377620D02*
X45410476Y36425239D01*
X45362857Y36472858D01*
X45315238Y36568096D01*
X45315238Y36853810D01*
X45362857Y36949048D01*
X45410476Y36996667D01*
X45505714Y37044286D01*
X45648571Y37044286D01*
X45743809Y36996667D01*
X45791428Y36949048D01*
X45839047Y36853810D01*
X45839047Y36568096D01*
X45791428Y36472858D01*
X45743809Y36425239D01*
X45648571Y36377620D01*
X45505714Y36377620D01*
X46267619Y37044286D02*
X46267619Y36377620D01*
X46267619Y36949048D02*
X46315238Y36996667D01*
X46410476Y37044286D01*
X46553333Y37044286D01*
X46648571Y36996667D01*
X46696190Y36901429D01*
X46696190Y36377620D01*
X47029523Y37044286D02*
X47410476Y37044286D01*
X47172380Y37377620D02*
X47172380Y36520477D01*
X47220000Y36425239D01*
X47315238Y36377620D01*
X47410476Y36377620D01*
X28154523Y50982620D02*
X27821190Y51458810D01*
X27583095Y50982620D02*
X27583095Y51982620D01*
X27964047Y51982620D01*
X28059285Y51935000D01*
X28106904Y51887381D01*
X28154523Y51792143D01*
X28154523Y51649286D01*
X28106904Y51554048D01*
X28059285Y51506429D01*
X27964047Y51458810D01*
X27583095Y51458810D01*
X28964047Y51030239D02*
X28868809Y50982620D01*
X28678333Y50982620D01*
X28583095Y51030239D01*
X28535476Y51125477D01*
X28535476Y51506429D01*
X28583095Y51601667D01*
X28678333Y51649286D01*
X28868809Y51649286D01*
X28964047Y51601667D01*
X29011666Y51506429D01*
X29011666Y51411191D01*
X28535476Y51315953D01*
X29345000Y51649286D02*
X29583095Y50982620D01*
X29821190Y51649286D01*
X30725952Y50982620D02*
X30154523Y50982620D01*
X30440238Y50982620D02*
X30440238Y51982620D01*
X30345000Y51839762D01*
X30249761Y51744524D01*
X30154523Y51696905D01*
X31154523Y51077858D02*
X31202142Y51030239D01*
X31154523Y50982620D01*
X31106904Y51030239D01*
X31154523Y51077858D01*
X31154523Y50982620D01*
X31821190Y51982620D02*
X31916428Y51982620D01*
X32011666Y51935000D01*
X32059285Y51887381D01*
X32106904Y51792143D01*
X32154523Y51601667D01*
X32154523Y51363572D01*
X32106904Y51173096D01*
X32059285Y51077858D01*
X32011666Y51030239D01*
X31916428Y50982620D01*
X31821190Y50982620D01*
X31725952Y51030239D01*
X31678333Y51077858D01*
X31630714Y51173096D01*
X31583095Y51363572D01*
X31583095Y51601667D01*
X31630714Y51792143D01*
X31678333Y51887381D01*
X31725952Y51935000D01*
X31821190Y51982620D01*
X44220000Y49077620D02*
X44220000Y50077620D01*
X44220000Y49696667D02*
X44315238Y49744286D01*
X44505714Y49744286D01*
X44600952Y49696667D01*
X44648571Y49649048D01*
X44696190Y49553810D01*
X44696190Y49268096D01*
X44648571Y49172858D01*
X44600952Y49125239D01*
X44505714Y49077620D01*
X44315238Y49077620D01*
X44220000Y49125239D01*
X45553333Y49077620D02*
X45553333Y49601429D01*
X45505714Y49696667D01*
X45410476Y49744286D01*
X45220000Y49744286D01*
X45124761Y49696667D01*
X45553333Y49125239D02*
X45458095Y49077620D01*
X45220000Y49077620D01*
X45124761Y49125239D01*
X45077142Y49220477D01*
X45077142Y49315715D01*
X45124761Y49410953D01*
X45220000Y49458572D01*
X45458095Y49458572D01*
X45553333Y49506191D01*
X46458095Y49125239D02*
X46362857Y49077620D01*
X46172380Y49077620D01*
X46077142Y49125239D01*
X46029523Y49172858D01*
X45981904Y49268096D01*
X45981904Y49553810D01*
X46029523Y49649048D01*
X46077142Y49696667D01*
X46172380Y49744286D01*
X46362857Y49744286D01*
X46458095Y49696667D01*
X46886666Y49077620D02*
X46886666Y50077620D01*
X46981904Y49458572D02*
X47267619Y49077620D01*
X47267619Y49744286D02*
X46886666Y49363334D01*
D11*
X9478333Y51165239D02*
X9478333Y53165239D01*
X9954523Y53165239D01*
X10240238Y53070000D01*
X10430714Y52879524D01*
X10525952Y52689048D01*
X10621190Y52308096D01*
X10621190Y52022381D01*
X10525952Y51641429D01*
X10430714Y51450953D01*
X10240238Y51260477D01*
X9954523Y51165239D01*
X9478333Y51165239D01*
X12335476Y52498572D02*
X12335476Y51165239D01*
X11478333Y52498572D02*
X11478333Y51450953D01*
X11573571Y51260477D01*
X11764047Y51165239D01*
X12049761Y51165239D01*
X12240238Y51260477D01*
X12335476Y51355715D01*
X13287857Y51165239D02*
X13287857Y52498572D01*
X13287857Y52308096D02*
X13383095Y52403334D01*
X13573571Y52498572D01*
X13859285Y52498572D01*
X14049761Y52403334D01*
X14145000Y52212858D01*
X14145000Y51165239D01*
X14145000Y52212858D02*
X14240238Y52403334D01*
X14430714Y52498572D01*
X14716428Y52498572D01*
X14906904Y52403334D01*
X15002142Y52212858D01*
X15002142Y51165239D01*
X15954523Y52498572D02*
X15954523Y50498572D01*
X15954523Y52403334D02*
X16145000Y52498572D01*
X16525952Y52498572D01*
X16716428Y52403334D01*
X16811666Y52308096D01*
X16906904Y52117620D01*
X16906904Y51546191D01*
X16811666Y51355715D01*
X16716428Y51260477D01*
X16525952Y51165239D01*
X16145000Y51165239D01*
X15954523Y51260477D01*
X18525952Y51260477D02*
X18335476Y51165239D01*
X17954523Y51165239D01*
X17764047Y51260477D01*
X17668809Y51450953D01*
X17668809Y52212858D01*
X17764047Y52403334D01*
X17954523Y52498572D01*
X18335476Y52498572D01*
X18525952Y52403334D01*
X18621190Y52212858D01*
X18621190Y52022381D01*
X17668809Y51831905D01*
X19478333Y51165239D02*
X19478333Y52498572D01*
X19478333Y52117620D02*
X19573571Y52308096D01*
X19668809Y52403334D01*
X19859285Y52498572D01*
X20049761Y52498572D01*
X22240238Y51165239D02*
X22240238Y53165239D01*
X23002142Y53165239D01*
X23192619Y53070000D01*
X23287857Y52974762D01*
X23383095Y52784286D01*
X23383095Y52498572D01*
X23287857Y52308096D01*
X23192619Y52212858D01*
X23002142Y52117620D01*
X22240238Y52117620D01*
X24049761Y52498572D02*
X24525952Y51165239D01*
X25002142Y52498572D02*
X24525952Y51165239D01*
X24335476Y50689048D01*
X24240238Y50593810D01*
X24049761Y50498572D01*
D10*
X43688333Y25852381D02*
X43735952Y25900000D01*
X43831190Y25947620D01*
X44069285Y25947620D01*
X44164523Y25900000D01*
X44212142Y25852381D01*
X44259761Y25757143D01*
X44259761Y25661905D01*
X44212142Y25519048D01*
X43640714Y24947620D01*
X44259761Y24947620D01*
X44878809Y25947620D02*
X44974047Y25947620D01*
X45069285Y25900000D01*
X45116904Y25852381D01*
X45164523Y25757143D01*
X45212142Y25566667D01*
X45212142Y25328572D01*
X45164523Y25138096D01*
X45116904Y25042858D01*
X45069285Y24995239D01*
X44974047Y24947620D01*
X44878809Y24947620D01*
X44783571Y24995239D01*
X44735952Y25042858D01*
X44688333Y25138096D01*
X44640714Y25328572D01*
X44640714Y25566667D01*
X44688333Y25757143D01*
X44735952Y25852381D01*
X44783571Y25900000D01*
X44878809Y25947620D01*
X45593095Y25852381D02*
X45640714Y25900000D01*
X45735952Y25947620D01*
X45974047Y25947620D01*
X46069285Y25900000D01*
X46116904Y25852381D01*
X46164523Y25757143D01*
X46164523Y25661905D01*
X46116904Y25519048D01*
X45545476Y24947620D01*
X46164523Y24947620D01*
X46545476Y25852381D02*
X46593095Y25900000D01*
X46688333Y25947620D01*
X46926428Y25947620D01*
X47021666Y25900000D01*
X47069285Y25852381D01*
X47116904Y25757143D01*
X47116904Y25661905D01*
X47069285Y25519048D01*
X46497857Y24947620D01*
X47116904Y24947620D01*
X48069285Y24947620D02*
X47497857Y24947620D01*
X47783571Y24947620D02*
X47783571Y25947620D01*
X47688333Y25804762D01*
X47593095Y25709524D01*
X47497857Y25661905D01*
X48450238Y25852381D02*
X48497857Y25900000D01*
X48593095Y25947620D01*
X48831190Y25947620D01*
X48926428Y25900000D01*
X48974047Y25852381D01*
X49021666Y25757143D01*
X49021666Y25661905D01*
X48974047Y25519048D01*
X48402619Y24947620D01*
X49021666Y24947620D01*
X85391666Y14307620D02*
X85391666Y13593334D01*
X85344047Y13450477D01*
X85248809Y13355239D01*
X85105952Y13307620D01*
X85010714Y13307620D01*
X85772619Y14307620D02*
X86391666Y14307620D01*
X86058333Y13926667D01*
X86201190Y13926667D01*
X86296428Y13879048D01*
X86344047Y13831429D01*
X86391666Y13736191D01*
X86391666Y13498096D01*
X86344047Y13402858D01*
X86296428Y13355239D01*
X86201190Y13307620D01*
X85915476Y13307620D01*
X85820238Y13355239D01*
X85772619Y13402858D01*
X73217380Y23311667D02*
X73931666Y23311667D01*
X74074523Y23264048D01*
X74169761Y23168810D01*
X74217380Y23025953D01*
X74217380Y22930715D01*
X74217380Y23787858D02*
X73217380Y23787858D01*
X73217380Y24168810D01*
X73265000Y24264048D01*
X73312619Y24311667D01*
X73407857Y24359286D01*
X73550714Y24359286D01*
X73645952Y24311667D01*
X73693571Y24264048D01*
X73741190Y24168810D01*
X73741190Y23787858D01*
X73312619Y24740239D02*
X73265000Y24787858D01*
X73217380Y24883096D01*
X73217380Y25121191D01*
X73265000Y25216429D01*
X73312619Y25264048D01*
X73407857Y25311667D01*
X73503095Y25311667D01*
X73645952Y25264048D01*
X74217380Y24692620D01*
X74217380Y25311667D01*
X84391666Y18855239D02*
X84534523Y18807620D01*
X84772619Y18807620D01*
X84867857Y18855239D01*
X84915476Y18902858D01*
X84963095Y18998096D01*
X84963095Y19093334D01*
X84915476Y19188572D01*
X84867857Y19236191D01*
X84772619Y19283810D01*
X84582142Y19331429D01*
X84486904Y19379048D01*
X84439285Y19426667D01*
X84391666Y19521905D01*
X84391666Y19617143D01*
X84439285Y19712381D01*
X84486904Y19760000D01*
X84582142Y19807620D01*
X84820238Y19807620D01*
X84963095Y19760000D01*
X85296428Y19807620D02*
X85534523Y18807620D01*
X85725000Y19521905D01*
X85915476Y18807620D01*
X86153571Y19807620D01*
X87058333Y18807620D02*
X86486904Y18807620D01*
X86772619Y18807620D02*
X86772619Y19807620D01*
X86677380Y19664762D01*
X86582142Y19569524D01*
X86486904Y19521905D01*
X69111904Y6952620D02*
X69111904Y7952620D01*
X69350000Y7952620D01*
X69492857Y7905000D01*
X69588095Y7809762D01*
X69635714Y7714524D01*
X69683333Y7524048D01*
X69683333Y7381191D01*
X69635714Y7190715D01*
X69588095Y7095477D01*
X69492857Y7000239D01*
X69350000Y6952620D01*
X69111904Y6952620D01*
X70635714Y6952620D02*
X70064285Y6952620D01*
X70350000Y6952620D02*
X70350000Y7952620D01*
X70254761Y7809762D01*
X70159523Y7714524D01*
X70064285Y7666905D01*
X69207142Y1032620D02*
X68730952Y1032620D01*
X68730952Y2032620D01*
X69540476Y1556429D02*
X69873809Y1556429D01*
X70016666Y1032620D02*
X69540476Y1032620D01*
X69540476Y2032620D01*
X70016666Y2032620D01*
X70445238Y1032620D02*
X70445238Y2032620D01*
X70683333Y2032620D01*
X70826190Y1985000D01*
X70921428Y1889762D01*
X70969047Y1794524D01*
X71016666Y1604048D01*
X71016666Y1461191D01*
X70969047Y1270715D01*
X70921428Y1175477D01*
X70826190Y1080239D01*
X70683333Y1032620D01*
X70445238Y1032620D01*
X70287380Y23963334D02*
X69811190Y23630000D01*
X70287380Y23391905D02*
X69287380Y23391905D01*
X69287380Y23772858D01*
X69335000Y23868096D01*
X69382619Y23915715D01*
X69477857Y23963334D01*
X69620714Y23963334D01*
X69715952Y23915715D01*
X69763571Y23868096D01*
X69811190Y23772858D01*
X69811190Y23391905D01*
X69382619Y24344286D02*
X69335000Y24391905D01*
X69287380Y24487143D01*
X69287380Y24725239D01*
X69335000Y24820477D01*
X69382619Y24868096D01*
X69477857Y24915715D01*
X69573095Y24915715D01*
X69715952Y24868096D01*
X70287380Y24296667D01*
X70287380Y24915715D01*
X62134761Y18802381D02*
X62039523Y18850000D01*
X61944285Y18945239D01*
X61801428Y19088096D01*
X61706190Y19135715D01*
X61610952Y19135715D01*
X61658571Y18897620D02*
X61563333Y18945239D01*
X61468095Y19040477D01*
X61420476Y19230953D01*
X61420476Y19564286D01*
X61468095Y19754762D01*
X61563333Y19850000D01*
X61658571Y19897620D01*
X61849047Y19897620D01*
X61944285Y19850000D01*
X62039523Y19754762D01*
X62087142Y19564286D01*
X62087142Y19230953D01*
X62039523Y19040477D01*
X61944285Y18945239D01*
X61849047Y18897620D01*
X61658571Y18897620D01*
X62468095Y19802381D02*
X62515714Y19850000D01*
X62610952Y19897620D01*
X62849047Y19897620D01*
X62944285Y19850000D01*
X62991904Y19802381D01*
X63039523Y19707143D01*
X63039523Y19611905D01*
X62991904Y19469048D01*
X62420476Y18897620D01*
X63039523Y18897620D01*
X59063333Y13452381D02*
X59110952Y13500000D01*
X59206190Y13547620D01*
X59444285Y13547620D01*
X59539523Y13500000D01*
X59587142Y13452381D01*
X59634761Y13357143D01*
X59634761Y13261905D01*
X59587142Y13119048D01*
X59015714Y12547620D01*
X59634761Y12547620D01*
X60015714Y12595239D02*
X60158571Y12547620D01*
X60396666Y12547620D01*
X60491904Y12595239D01*
X60539523Y12642858D01*
X60587142Y12738096D01*
X60587142Y12833334D01*
X60539523Y12928572D01*
X60491904Y12976191D01*
X60396666Y13023810D01*
X60206190Y13071429D01*
X60110952Y13119048D01*
X60063333Y13166667D01*
X60015714Y13261905D01*
X60015714Y13357143D01*
X60063333Y13452381D01*
X60110952Y13500000D01*
X60206190Y13547620D01*
X60444285Y13547620D01*
X60587142Y13500000D01*
X61587142Y12642858D02*
X61539523Y12595239D01*
X61396666Y12547620D01*
X61301428Y12547620D01*
X61158571Y12595239D01*
X61063333Y12690477D01*
X61015714Y12785715D01*
X60968095Y12976191D01*
X60968095Y13119048D01*
X61015714Y13309524D01*
X61063333Y13404762D01*
X61158571Y13500000D01*
X61301428Y13547620D01*
X61396666Y13547620D01*
X61539523Y13500000D01*
X61587142Y13452381D01*
X62539523Y12547620D02*
X61968095Y12547620D01*
X62253809Y12547620D02*
X62253809Y13547620D01*
X62158571Y13404762D01*
X62063333Y13309524D01*
X61968095Y13261905D01*
X63110952Y13119048D02*
X63015714Y13166667D01*
X62968095Y13214286D01*
X62920476Y13309524D01*
X62920476Y13357143D01*
X62968095Y13452381D01*
X63015714Y13500000D01*
X63110952Y13547620D01*
X63301428Y13547620D01*
X63396666Y13500000D01*
X63444285Y13452381D01*
X63491904Y13357143D01*
X63491904Y13309524D01*
X63444285Y13214286D01*
X63396666Y13166667D01*
X63301428Y13119048D01*
X63110952Y13119048D01*
X63015714Y13071429D01*
X62968095Y13023810D01*
X62920476Y12928572D01*
X62920476Y12738096D01*
X62968095Y12642858D01*
X63015714Y12595239D01*
X63110952Y12547620D01*
X63301428Y12547620D01*
X63396666Y12595239D01*
X63444285Y12642858D01*
X63491904Y12738096D01*
X63491904Y12928572D01*
X63444285Y13023810D01*
X63396666Y13071429D01*
X63301428Y13119048D01*
X64444285Y12547620D02*
X63872857Y12547620D01*
X64158571Y12547620D02*
X64158571Y13547620D01*
X64063333Y13404762D01*
X63968095Y13309524D01*
X63872857Y13261905D01*
X65349047Y13547620D02*
X64872857Y13547620D01*
X64825238Y13071429D01*
X64872857Y13119048D01*
X64968095Y13166667D01*
X65206190Y13166667D01*
X65301428Y13119048D01*
X65349047Y13071429D01*
X65396666Y12976191D01*
X65396666Y12738096D01*
X65349047Y12642858D01*
X65301428Y12595239D01*
X65206190Y12547620D01*
X64968095Y12547620D01*
X64872857Y12595239D01*
X64825238Y12642858D01*
X73462380Y10628334D02*
X72986190Y10295000D01*
X73462380Y10056905D02*
X72462380Y10056905D01*
X72462380Y10437858D01*
X72510000Y10533096D01*
X72557619Y10580715D01*
X72652857Y10628334D01*
X72795714Y10628334D01*
X72890952Y10580715D01*
X72938571Y10533096D01*
X72986190Y10437858D01*
X72986190Y10056905D01*
X72462380Y10961667D02*
X72462380Y11580715D01*
X72843333Y11247381D01*
X72843333Y11390239D01*
X72890952Y11485477D01*
X72938571Y11533096D01*
X73033809Y11580715D01*
X73271904Y11580715D01*
X73367142Y11533096D01*
X73414761Y11485477D01*
X73462380Y11390239D01*
X73462380Y11104524D01*
X73414761Y11009286D01*
X73367142Y10961667D01*
X78636904Y26637620D02*
X78636904Y27637620D01*
X78875000Y27637620D01*
X79017857Y27590000D01*
X79113095Y27494762D01*
X79160714Y27399524D01*
X79208333Y27209048D01*
X79208333Y27066191D01*
X79160714Y26875715D01*
X79113095Y26780477D01*
X79017857Y26685239D01*
X78875000Y26637620D01*
X78636904Y26637620D01*
X79589285Y27542381D02*
X79636904Y27590000D01*
X79732142Y27637620D01*
X79970238Y27637620D01*
X80065476Y27590000D01*
X80113095Y27542381D01*
X80160714Y27447143D01*
X80160714Y27351905D01*
X80113095Y27209048D01*
X79541666Y26637620D01*
X80160714Y26637620D01*
X78732142Y20717620D02*
X78255952Y20717620D01*
X78255952Y21717620D01*
X79065476Y21241429D02*
X79398809Y21241429D01*
X79541666Y20717620D02*
X79065476Y20717620D01*
X79065476Y21717620D01*
X79541666Y21717620D01*
X79970238Y20717620D02*
X79970238Y21717620D01*
X80208333Y21717620D01*
X80351190Y21670000D01*
X80446428Y21574762D01*
X80494047Y21479524D01*
X80541666Y21289048D01*
X80541666Y21146191D01*
X80494047Y20955715D01*
X80446428Y20860477D01*
X80351190Y20765239D01*
X80208333Y20717620D01*
X79970238Y20717620D01*
D12*
X45296666Y43875477D02*
X45296666Y42968334D01*
X45236190Y42786905D01*
X45115238Y42665953D01*
X44933809Y42605477D01*
X44812857Y42605477D01*
X46506190Y43875477D02*
X45901428Y43875477D01*
X45840952Y43270715D01*
X45901428Y43331191D01*
X46022380Y43391667D01*
X46324761Y43391667D01*
X46445714Y43331191D01*
X46506190Y43270715D01*
X46566666Y43149762D01*
X46566666Y42847381D01*
X46506190Y42726429D01*
X46445714Y42665953D01*
X46324761Y42605477D01*
X46022380Y42605477D01*
X45901428Y42665953D01*
X45840952Y42726429D01*
X55093809Y42726429D02*
X55033333Y42665953D01*
X54851904Y42605477D01*
X54730952Y42605477D01*
X54549523Y42665953D01*
X54428571Y42786905D01*
X54368095Y42907858D01*
X54307619Y43149762D01*
X54307619Y43331191D01*
X54368095Y43573096D01*
X54428571Y43694048D01*
X54549523Y43815000D01*
X54730952Y43875477D01*
X54851904Y43875477D01*
X55033333Y43815000D01*
X55093809Y43754524D01*
X56363809Y42605477D02*
X55940476Y43210239D01*
X55638095Y42605477D02*
X55638095Y43875477D01*
X56121904Y43875477D01*
X56242857Y43815000D01*
X56303333Y43754524D01*
X56363809Y43633572D01*
X56363809Y43452143D01*
X56303333Y43331191D01*
X56242857Y43270715D01*
X56121904Y43210239D01*
X55638095Y43210239D01*
X56847619Y43754524D02*
X56908095Y43815000D01*
X57029047Y43875477D01*
X57331428Y43875477D01*
X57452380Y43815000D01*
X57512857Y43754524D01*
X57573333Y43633572D01*
X57573333Y43512620D01*
X57512857Y43331191D01*
X56787142Y42605477D01*
X57573333Y42605477D01*
X58057142Y43754524D02*
X58117619Y43815000D01*
X58238571Y43875477D01*
X58540952Y43875477D01*
X58661904Y43815000D01*
X58722380Y43754524D01*
X58782857Y43633572D01*
X58782857Y43512620D01*
X58722380Y43331191D01*
X57996666Y42605477D01*
X58782857Y42605477D01*
X59266666Y42968334D02*
X59871428Y42968334D01*
X59145714Y42605477D02*
X59569047Y43875477D01*
X59992380Y42605477D01*
X60415714Y43089286D02*
X61383333Y43089286D01*
X62532380Y43875477D02*
X62290476Y43875477D01*
X62169523Y43815000D01*
X62109047Y43754524D01*
X61988095Y43573096D01*
X61927619Y43331191D01*
X61927619Y42847381D01*
X61988095Y42726429D01*
X62048571Y42665953D01*
X62169523Y42605477D01*
X62411428Y42605477D01*
X62532380Y42665953D01*
X62592857Y42726429D01*
X62653333Y42847381D01*
X62653333Y43149762D01*
X62592857Y43270715D01*
X62532380Y43331191D01*
X62411428Y43391667D01*
X62169523Y43391667D01*
X62048571Y43331191D01*
X61988095Y43270715D01*
X61927619Y43149762D01*
X63439523Y43875477D02*
X63560476Y43875477D01*
X63681428Y43815000D01*
X63741904Y43754524D01*
X63802380Y43633572D01*
X63862857Y43391667D01*
X63862857Y43089286D01*
X63802380Y42847381D01*
X63741904Y42726429D01*
X63681428Y42665953D01*
X63560476Y42605477D01*
X63439523Y42605477D01*
X63318571Y42665953D01*
X63258095Y42726429D01*
X63197619Y42847381D01*
X63137142Y43089286D01*
X63137142Y43391667D01*
X63197619Y43633572D01*
X63258095Y43754524D01*
X63318571Y43815000D01*
X63439523Y43875477D01*
X64407142Y42605477D02*
X64407142Y43875477D01*
X64709523Y43875477D01*
X64890952Y43815000D01*
X65011904Y43694048D01*
X65072380Y43573096D01*
X65132857Y43331191D01*
X65132857Y43149762D01*
X65072380Y42907858D01*
X65011904Y42786905D01*
X64890952Y42665953D01*
X64709523Y42605477D01*
X64407142Y42605477D01*
X65677142Y43089286D02*
X66644761Y43089286D01*
X67189047Y43754524D02*
X67249523Y43815000D01*
X67370476Y43875477D01*
X67672857Y43875477D01*
X67793809Y43815000D01*
X67854285Y43754524D01*
X67914761Y43633572D01*
X67914761Y43512620D01*
X67854285Y43331191D01*
X67128571Y42605477D01*
X67914761Y42605477D01*
X68459047Y42726429D02*
X68519523Y42665953D01*
X68459047Y42605477D01*
X68398571Y42665953D01*
X68459047Y42726429D01*
X68459047Y42605477D01*
X69668571Y43875477D02*
X69063809Y43875477D01*
X69003333Y43270715D01*
X69063809Y43331191D01*
X69184761Y43391667D01*
X69487142Y43391667D01*
X69608095Y43331191D01*
X69668571Y43270715D01*
X69729047Y43149762D01*
X69729047Y42847381D01*
X69668571Y42726429D01*
X69608095Y42665953D01*
X69487142Y42605477D01*
X69184761Y42605477D01*
X69063809Y42665953D01*
X69003333Y42726429D01*
X70817619Y43452143D02*
X70817619Y42605477D01*
X70515238Y43935953D02*
X70212857Y43028810D01*
X70999047Y43028810D01*
X71482857Y42605477D02*
X71482857Y43875477D01*
X71785238Y43875477D01*
X71966666Y43815000D01*
X72087619Y43694048D01*
X72148095Y43573096D01*
X72208571Y43331191D01*
X72208571Y43149762D01*
X72148095Y42907858D01*
X72087619Y42786905D01*
X71966666Y42665953D01*
X71785238Y42605477D01*
X71482857Y42605477D01*
X72692380Y42665953D02*
X72873809Y42605477D01*
X73176190Y42605477D01*
X73297142Y42665953D01*
X73357619Y42726429D01*
X73418095Y42847381D01*
X73418095Y42968334D01*
X73357619Y43089286D01*
X73297142Y43149762D01*
X73176190Y43210239D01*
X72934285Y43270715D01*
X72813333Y43331191D01*
X72752857Y43391667D01*
X72692380Y43512620D01*
X72692380Y43633572D01*
X72752857Y43754524D01*
X72813333Y43815000D01*
X72934285Y43875477D01*
X73236666Y43875477D01*
X73418095Y43815000D01*
X73660000Y42484524D02*
X74627619Y42484524D01*
X74809047Y43875477D02*
X75655714Y43875477D01*
X75111428Y42605477D01*
X76381428Y43875477D02*
X76502380Y43875477D01*
X76623333Y43815000D01*
X76683809Y43754524D01*
X76744285Y43633572D01*
X76804761Y43391667D01*
X76804761Y43089286D01*
X76744285Y42847381D01*
X76683809Y42726429D01*
X76623333Y42665953D01*
X76502380Y42605477D01*
X76381428Y42605477D01*
X76260476Y42665953D01*
X76200000Y42726429D01*
X76139523Y42847381D01*
X76079047Y43089286D01*
X76079047Y43391667D01*
X76139523Y43633572D01*
X76200000Y43754524D01*
X76260476Y43815000D01*
X76381428Y43875477D01*
X77046666Y42484524D02*
X78014285Y42484524D01*
D10*
X68772380Y9946667D02*
X69486666Y9946667D01*
X69629523Y9899048D01*
X69724761Y9803810D01*
X69772380Y9660953D01*
X69772380Y9565715D01*
X69772380Y10422858D02*
X68772380Y10422858D01*
X68772380Y10803810D01*
X68820000Y10899048D01*
X68867619Y10946667D01*
X68962857Y10994286D01*
X69105714Y10994286D01*
X69200952Y10946667D01*
X69248571Y10899048D01*
X69296190Y10803810D01*
X69296190Y10422858D01*
X69772380Y11946667D02*
X69772380Y11375239D01*
X69772380Y11660953D02*
X68772380Y11660953D01*
X68915238Y11565715D01*
X69010476Y11470477D01*
X69058095Y11375239D01*
X62134761Y26782381D02*
X62039523Y26830000D01*
X61944285Y26925239D01*
X61801428Y27068096D01*
X61706190Y27115715D01*
X61610952Y27115715D01*
X61658571Y26877620D02*
X61563333Y26925239D01*
X61468095Y27020477D01*
X61420476Y27210953D01*
X61420476Y27544286D01*
X61468095Y27734762D01*
X61563333Y27830000D01*
X61658571Y27877620D01*
X61849047Y27877620D01*
X61944285Y27830000D01*
X62039523Y27734762D01*
X62087142Y27544286D01*
X62087142Y27210953D01*
X62039523Y27020477D01*
X61944285Y26925239D01*
X61849047Y26877620D01*
X61658571Y26877620D01*
X63039523Y26877620D02*
X62468095Y26877620D01*
X62753809Y26877620D02*
X62753809Y27877620D01*
X62658571Y27734762D01*
X62563333Y27639524D01*
X62468095Y27591905D01*
X59063333Y21432381D02*
X59110952Y21480000D01*
X59206190Y21527620D01*
X59444285Y21527620D01*
X59539523Y21480000D01*
X59587142Y21432381D01*
X59634761Y21337143D01*
X59634761Y21241905D01*
X59587142Y21099048D01*
X59015714Y20527620D01*
X59634761Y20527620D01*
X60015714Y20575239D02*
X60158571Y20527620D01*
X60396666Y20527620D01*
X60491904Y20575239D01*
X60539523Y20622858D01*
X60587142Y20718096D01*
X60587142Y20813334D01*
X60539523Y20908572D01*
X60491904Y20956191D01*
X60396666Y21003810D01*
X60206190Y21051429D01*
X60110952Y21099048D01*
X60063333Y21146667D01*
X60015714Y21241905D01*
X60015714Y21337143D01*
X60063333Y21432381D01*
X60110952Y21480000D01*
X60206190Y21527620D01*
X60444285Y21527620D01*
X60587142Y21480000D01*
X61587142Y20622858D02*
X61539523Y20575239D01*
X61396666Y20527620D01*
X61301428Y20527620D01*
X61158571Y20575239D01*
X61063333Y20670477D01*
X61015714Y20765715D01*
X60968095Y20956191D01*
X60968095Y21099048D01*
X61015714Y21289524D01*
X61063333Y21384762D01*
X61158571Y21480000D01*
X61301428Y21527620D01*
X61396666Y21527620D01*
X61539523Y21480000D01*
X61587142Y21432381D01*
X62539523Y20527620D02*
X61968095Y20527620D01*
X62253809Y20527620D02*
X62253809Y21527620D01*
X62158571Y21384762D01*
X62063333Y21289524D01*
X61968095Y21241905D01*
X63110952Y21099048D02*
X63015714Y21146667D01*
X62968095Y21194286D01*
X62920476Y21289524D01*
X62920476Y21337143D01*
X62968095Y21432381D01*
X63015714Y21480000D01*
X63110952Y21527620D01*
X63301428Y21527620D01*
X63396666Y21480000D01*
X63444285Y21432381D01*
X63491904Y21337143D01*
X63491904Y21289524D01*
X63444285Y21194286D01*
X63396666Y21146667D01*
X63301428Y21099048D01*
X63110952Y21099048D01*
X63015714Y21051429D01*
X62968095Y21003810D01*
X62920476Y20908572D01*
X62920476Y20718096D01*
X62968095Y20622858D01*
X63015714Y20575239D01*
X63110952Y20527620D01*
X63301428Y20527620D01*
X63396666Y20575239D01*
X63444285Y20622858D01*
X63491904Y20718096D01*
X63491904Y20908572D01*
X63444285Y21003810D01*
X63396666Y21051429D01*
X63301428Y21099048D01*
X64444285Y20527620D02*
X63872857Y20527620D01*
X64158571Y20527620D02*
X64158571Y21527620D01*
X64063333Y21384762D01*
X63968095Y21289524D01*
X63872857Y21241905D01*
X65349047Y21527620D02*
X64872857Y21527620D01*
X64825238Y21051429D01*
X64872857Y21099048D01*
X64968095Y21146667D01*
X65206190Y21146667D01*
X65301428Y21099048D01*
X65349047Y21051429D01*
X65396666Y20956191D01*
X65396666Y20718096D01*
X65349047Y20622858D01*
X65301428Y20575239D01*
X65206190Y20527620D01*
X64968095Y20527620D01*
X64872857Y20575239D01*
X64825238Y20622858D01*
X65842380Y10628334D02*
X65366190Y10295000D01*
X65842380Y10056905D02*
X64842380Y10056905D01*
X64842380Y10437858D01*
X64890000Y10533096D01*
X64937619Y10580715D01*
X65032857Y10628334D01*
X65175714Y10628334D01*
X65270952Y10580715D01*
X65318571Y10533096D01*
X65366190Y10437858D01*
X65366190Y10056905D01*
X65842380Y11580715D02*
X65842380Y11009286D01*
X65842380Y11295000D02*
X64842380Y11295000D01*
X64985238Y11199762D01*
X65080476Y11104524D01*
X65128095Y11009286D01*
X18712380Y22098096D02*
X19521904Y22098096D01*
X19617142Y22145715D01*
X19664761Y22193334D01*
X19712380Y22288572D01*
X19712380Y22479048D01*
X19664761Y22574286D01*
X19617142Y22621905D01*
X19521904Y22669524D01*
X18712380Y22669524D01*
X19712380Y23669524D02*
X19712380Y23098096D01*
X19712380Y23383810D02*
X18712380Y23383810D01*
X18855238Y23288572D01*
X18950476Y23193334D01*
X18998095Y23098096D01*
X41485714Y21621905D02*
X42152380Y21621905D01*
X41104761Y21383810D02*
X41819047Y21145715D01*
X41819047Y21764762D01*
X41152380Y22336191D02*
X41152380Y22431429D01*
X41200000Y22526667D01*
X41247619Y22574286D01*
X41342857Y22621905D01*
X41533333Y22669524D01*
X41771428Y22669524D01*
X41961904Y22621905D01*
X42057142Y22574286D01*
X42104761Y22526667D01*
X42152380Y22431429D01*
X42152380Y22336191D01*
X42104761Y22240953D01*
X42057142Y22193334D01*
X41961904Y22145715D01*
X41771428Y22098096D01*
X41533333Y22098096D01*
X41342857Y22145715D01*
X41247619Y22193334D01*
X41200000Y22240953D01*
X41152380Y22336191D01*
X41485714Y23526667D02*
X42152380Y23526667D01*
X41104761Y23288572D02*
X41819047Y23050477D01*
X41819047Y23669524D01*
X41152380Y24240953D02*
X41152380Y24336191D01*
X41200000Y24431429D01*
X41247619Y24479048D01*
X41342857Y24526667D01*
X41533333Y24574286D01*
X41771428Y24574286D01*
X41961904Y24526667D01*
X42057142Y24479048D01*
X42104761Y24431429D01*
X42152380Y24336191D01*
X42152380Y24240953D01*
X42104761Y24145715D01*
X42057142Y24098096D01*
X41961904Y24050477D01*
X41771428Y24002858D01*
X41533333Y24002858D01*
X41342857Y24050477D01*
X41247619Y24098096D01*
X41200000Y24145715D01*
X41152380Y24240953D01*
X76392380Y9946667D02*
X77106666Y9946667D01*
X77249523Y9899048D01*
X77344761Y9803810D01*
X77392380Y9660953D01*
X77392380Y9565715D01*
X77392380Y10422858D02*
X76392380Y10422858D01*
X76392380Y10803810D01*
X76440000Y10899048D01*
X76487619Y10946667D01*
X76582857Y10994286D01*
X76725714Y10994286D01*
X76820952Y10946667D01*
X76868571Y10899048D01*
X76916190Y10803810D01*
X76916190Y10422858D01*
X76392380Y11327620D02*
X76392380Y11946667D01*
X76773333Y11613334D01*
X76773333Y11756191D01*
X76820952Y11851429D01*
X76868571Y11899048D01*
X76963809Y11946667D01*
X77201904Y11946667D01*
X77297142Y11899048D01*
X77344761Y11851429D01*
X77392380Y11756191D01*
X77392380Y11470477D01*
X77344761Y11375239D01*
X77297142Y11327620D01*
X41137380Y9388096D02*
X41946904Y9388096D01*
X42042142Y9435715D01*
X42089761Y9483334D01*
X42137380Y9578572D01*
X42137380Y9769048D01*
X42089761Y9864286D01*
X42042142Y9911905D01*
X41946904Y9959524D01*
X41137380Y9959524D01*
X41232619Y10388096D02*
X41185000Y10435715D01*
X41137380Y10530953D01*
X41137380Y10769048D01*
X41185000Y10864286D01*
X41232619Y10911905D01*
X41327857Y10959524D01*
X41423095Y10959524D01*
X41565952Y10911905D01*
X42137380Y10340477D01*
X42137380Y10959524D01*
X19030714Y8911905D02*
X19697380Y8911905D01*
X18649761Y8673810D02*
X19364047Y8435715D01*
X19364047Y9054762D01*
X18697380Y9626191D02*
X18697380Y9721429D01*
X18745000Y9816667D01*
X18792619Y9864286D01*
X18887857Y9911905D01*
X19078333Y9959524D01*
X19316428Y9959524D01*
X19506904Y9911905D01*
X19602142Y9864286D01*
X19649761Y9816667D01*
X19697380Y9721429D01*
X19697380Y9626191D01*
X19649761Y9530953D01*
X19602142Y9483334D01*
X19506904Y9435715D01*
X19316428Y9388096D01*
X19078333Y9388096D01*
X18887857Y9435715D01*
X18792619Y9483334D01*
X18745000Y9530953D01*
X18697380Y9626191D01*
X19030714Y10816667D02*
X19697380Y10816667D01*
X18649761Y10578572D02*
X19364047Y10340477D01*
X19364047Y10959524D01*
X18697380Y11530953D02*
X18697380Y11626191D01*
X18745000Y11721429D01*
X18792619Y11769048D01*
X18887857Y11816667D01*
X19078333Y11864286D01*
X19316428Y11864286D01*
X19506904Y11816667D01*
X19602142Y11769048D01*
X19649761Y11721429D01*
X19697380Y11626191D01*
X19697380Y11530953D01*
X19649761Y11435715D01*
X19602142Y11388096D01*
X19506904Y11340477D01*
X19316428Y11292858D01*
X19078333Y11292858D01*
X18887857Y11340477D01*
X18792619Y11388096D01*
X18745000Y11435715D01*
X18697380Y11530953D01*
X76731904Y6952620D02*
X76731904Y7952620D01*
X76970000Y7952620D01*
X77112857Y7905000D01*
X77208095Y7809762D01*
X77255714Y7714524D01*
X77303333Y7524048D01*
X77303333Y7381191D01*
X77255714Y7190715D01*
X77208095Y7095477D01*
X77112857Y7000239D01*
X76970000Y6952620D01*
X76731904Y6952620D01*
X77636666Y7952620D02*
X78255714Y7952620D01*
X77922380Y7571667D01*
X78065238Y7571667D01*
X78160476Y7524048D01*
X78208095Y7476429D01*
X78255714Y7381191D01*
X78255714Y7143096D01*
X78208095Y7047858D01*
X78160476Y7000239D01*
X78065238Y6952620D01*
X77779523Y6952620D01*
X77684285Y7000239D01*
X77636666Y7047858D01*
X76827142Y1032620D02*
X76350952Y1032620D01*
X76350952Y2032620D01*
X77160476Y1556429D02*
X77493809Y1556429D01*
X77636666Y1032620D02*
X77160476Y1032620D01*
X77160476Y2032620D01*
X77636666Y2032620D01*
X78065238Y1032620D02*
X78065238Y2032620D01*
X78303333Y2032620D01*
X78446190Y1985000D01*
X78541428Y1889762D01*
X78589047Y1794524D01*
X78636666Y1604048D01*
X78636666Y1461191D01*
X78589047Y1270715D01*
X78541428Y1175477D01*
X78446190Y1080239D01*
X78303333Y1032620D01*
X78065238Y1032620D01*
D13*
X83125000Y10160000D02*
X85725000Y10160000D01*
X83125000Y10160000D02*
X83125000Y2480000D01*
X88325000Y12760000D02*
X88325000Y2480000D01*
X83125000Y2480000D02*
X88325000Y2480000D01*
X83125000Y12760000D02*
X84455000Y12760000D01*
X85725000Y10160000D02*
X85725000Y12760000D01*
X85725000Y12760000D02*
X88325000Y12760000D01*
X83125000Y11430000D02*
X83125000Y12760000D01*
X75865000Y22745000D02*
X75265000Y22745000D01*
X74565000Y23445000D02*
X74565000Y24845000D01*
X75265000Y25545000D02*
X75865000Y25545000D01*
X76565000Y24845000D02*
X76565000Y23445000D01*
X75265000Y25545000D02*
G75*
G03*
X74565000Y24845000I0J-700000D01*
G01*
X75865000Y22745000D02*
G75*
G03*
X76565000Y23445000I1J699999D01*
G01*
X76565000Y24845000D02*
G75*
G03*
X75865000Y25545000I-700000J0D01*
G01*
X74565000Y23445000D02*
G75*
G03*
X75265000Y22745000I699999J-1D01*
G01*
X87055000Y28000000D02*
X84395000Y28000000D01*
X84395000Y22860000D02*
X84395000Y28000000D01*
X87055000Y22860000D02*
X87055000Y28000000D01*
X87055000Y21590000D02*
X87055000Y20260000D01*
X87055000Y22860000D02*
X84395000Y22860000D01*
X87055000Y20260000D02*
X85725000Y20260000D01*
G36*
X46375484Y27578118D02*
G01*
X46255994Y27578118D01*
X46175909Y27572834D01*
X46143065Y27543017D01*
X46136520Y27467724D01*
X46136505Y27458629D01*
X46141669Y27378895D01*
X46171041Y27345926D01*
X46245445Y27339166D01*
X46257554Y27339140D01*
X46378603Y27339140D01*
X46368509Y27108696D01*
X46358414Y26878253D01*
X46255994Y26878253D01*
X46184184Y26886900D01*
X46152782Y26926950D01*
X46142877Y26989207D01*
X46127379Y27066178D01*
X46087575Y27096022D01*
X46031923Y27100161D01*
X45964530Y27107046D01*
X45936890Y27141472D01*
X45931666Y27219651D01*
X45926382Y27299736D01*
X45896565Y27332580D01*
X45821272Y27339125D01*
X45812177Y27339140D01*
X45732092Y27333855D01*
X45699248Y27304038D01*
X45692703Y27228746D01*
X45692688Y27219651D01*
X45686979Y27139370D01*
X45658019Y27106443D01*
X45590269Y27100161D01*
X45487849Y27100161D01*
X45487849Y27578118D01*
X45251259Y27578118D01*
X45241530Y27228186D01*
X45236560Y27070880D01*
X45229919Y26969165D01*
X45218215Y26910376D01*
X45198061Y26881846D01*
X45166064Y26870909D01*
X45145174Y26868151D01*
X45070600Y26869061D01*
X45034220Y26882375D01*
X45023853Y26924948D01*
X45015685Y27019776D01*
X45010799Y27150847D01*
X45009892Y27242411D01*
X45009892Y27578118D01*
X45129382Y27578118D01*
X45209467Y27583403D01*
X45242311Y27613220D01*
X45248856Y27688513D01*
X45248871Y27697608D01*
X45243586Y27777693D01*
X45213769Y27810537D01*
X45138476Y27817082D01*
X45129382Y27817097D01*
X45049101Y27822806D01*
X45016174Y27851766D01*
X45009892Y27919516D01*
X45016553Y27988328D01*
X45050340Y28016552D01*
X45129382Y28021936D01*
X45209662Y28016226D01*
X45242589Y27987266D01*
X45248871Y27919516D01*
X45255532Y27850705D01*
X45289318Y27822481D01*
X45368360Y27817097D01*
X45448640Y27822806D01*
X45481568Y27851766D01*
X45487849Y27919516D01*
X45496309Y27992060D01*
X45536212Y28018798D01*
X45590269Y28021936D01*
X45692688Y28021936D01*
X45692688Y27578118D01*
X46136505Y27578118D01*
X46136505Y28260914D01*
X46375484Y28260914D01*
X46375484Y27578118D01*
G37*
G36*
X48389731Y32494247D02*
G01*
X48184892Y32494247D01*
X48184892Y32938065D01*
X48389731Y32938065D01*
X48389731Y32494247D01*
G37*
G36*
X46336275Y31532624D02*
G01*
X46369202Y31503664D01*
X46375484Y31435914D01*
X46368823Y31367103D01*
X46335036Y31338879D01*
X46255994Y31333495D01*
X46175714Y31339204D01*
X46142787Y31368164D01*
X46136505Y31435914D01*
X46143166Y31504726D01*
X46176953Y31532949D01*
X46255994Y31538334D01*
X46336275Y31532624D01*
G37*
G36*
X46989969Y28251976D02*
G01*
X47020876Y28211109D01*
X47030512Y28149960D01*
X47047064Y28071749D01*
X47091573Y28038060D01*
X47152164Y28028308D01*
X47229135Y28012809D01*
X47258979Y27973006D01*
X47263118Y27917353D01*
X47256233Y27849960D01*
X47221808Y27822320D01*
X47143629Y27817097D01*
X47063543Y27811812D01*
X47030700Y27781995D01*
X47024154Y27706703D01*
X47024140Y27697608D01*
X47029425Y27617522D01*
X47059242Y27584679D01*
X47134534Y27578133D01*
X47143629Y27578118D01*
X47223714Y27572834D01*
X47256558Y27543017D01*
X47263103Y27467724D01*
X47263118Y27458629D01*
X47268403Y27378544D01*
X47298220Y27345700D01*
X47373512Y27339155D01*
X47382607Y27339140D01*
X47462693Y27344425D01*
X47495537Y27374242D01*
X47502082Y27449534D01*
X47502097Y27458629D01*
X47507806Y27538909D01*
X47536766Y27571837D01*
X47604516Y27578118D01*
X47673328Y27571457D01*
X47701551Y27537671D01*
X47706935Y27458629D01*
X47701226Y27378349D01*
X47672266Y27345421D01*
X47604516Y27339140D01*
X47502097Y27339140D01*
X47502097Y26861183D01*
X47741075Y26861183D01*
X47741075Y27339140D01*
X47945914Y27339140D01*
X47945914Y26861183D01*
X48389731Y26861183D01*
X48389731Y26656344D01*
X47263118Y26656344D01*
X47263118Y26758764D01*
X47254659Y26831307D01*
X47214755Y26858045D01*
X47160699Y26861183D01*
X47058279Y26861183D01*
X47058279Y27339140D01*
X46819301Y27339140D01*
X46819301Y26861183D01*
X46921720Y26861183D01*
X46994264Y26852724D01*
X47021002Y26812820D01*
X47024140Y26758764D01*
X47015680Y26686220D01*
X46975777Y26659482D01*
X46921720Y26656344D01*
X46849177Y26664804D01*
X46822439Y26704707D01*
X46819301Y26758764D01*
X46810842Y26831307D01*
X46770938Y26858045D01*
X46716882Y26861183D01*
X46614462Y26861183D01*
X46614462Y27339140D01*
X46716882Y27339140D01*
X46785693Y27345801D01*
X46813917Y27379587D01*
X46819301Y27458629D01*
X46813591Y27538909D01*
X46784632Y27571837D01*
X46716882Y27578118D01*
X46614462Y27578118D01*
X46614462Y28021936D01*
X46716882Y28021936D01*
X46785693Y28028597D01*
X46813917Y28062383D01*
X46819301Y28141425D01*
X46825078Y28221746D01*
X46853962Y28254689D01*
X46919557Y28260914D01*
X46989969Y28251976D01*
G37*
G36*
X44770914Y31777312D02*
G01*
X44327097Y31777312D01*
X44327097Y32016290D01*
X44770914Y32016290D01*
X44770914Y31777312D01*
G37*
G36*
X48803672Y32929605D02*
G01*
X48830411Y32889702D01*
X48833548Y32835645D01*
X48825089Y32763102D01*
X48785185Y32736364D01*
X48731129Y32733226D01*
X48658585Y32741685D01*
X48631847Y32781589D01*
X48628710Y32835645D01*
X48637169Y32908189D01*
X48677072Y32934927D01*
X48731129Y32938065D01*
X48803672Y32929605D01*
G37*
G36*
X48833548Y33655000D02*
G01*
X48385405Y33655000D01*
X48396103Y33765954D01*
X48404558Y33826539D01*
X48426127Y33860594D01*
X48477343Y33877055D01*
X48574735Y33884858D01*
X48620175Y33887073D01*
X48833548Y33897237D01*
X48833548Y33655000D01*
G37*
G36*
X48833548Y33296532D02*
G01*
X48827771Y33216211D01*
X48798887Y33183268D01*
X48733292Y33177043D01*
X48662880Y33168105D01*
X48631974Y33127238D01*
X48622338Y33066089D01*
X48603839Y32985652D01*
X48558101Y32951184D01*
X48525013Y32945032D01*
X48450439Y32945943D01*
X48414058Y32959257D01*
X48401387Y33003790D01*
X48392587Y33095602D01*
X48389731Y33199803D01*
X48389731Y33416022D01*
X48833548Y33416022D01*
X48833548Y33296532D01*
G37*
G36*
X50169264Y31051917D02*
G01*
X50196002Y31012014D01*
X50199140Y30957957D01*
X50190680Y30885414D01*
X50150777Y30858675D01*
X50096720Y30855538D01*
X50024177Y30863997D01*
X49997439Y30903901D01*
X49994301Y30957957D01*
X50002760Y31030501D01*
X50042664Y31057239D01*
X50096720Y31060377D01*
X50169264Y31051917D01*
G37*
G36*
X43319973Y29899624D02*
G01*
X43400074Y29904954D01*
X43432925Y29934642D01*
X43439451Y30009232D01*
X43439462Y30016950D01*
X43432839Y30097152D01*
X43399665Y30132419D01*
X43328508Y30144974D01*
X43250297Y30161526D01*
X43216608Y30206035D01*
X43206856Y30266627D01*
X43204696Y30340437D01*
X43230394Y30371124D01*
X43302806Y30377545D01*
X43317810Y30377581D01*
X43398850Y30372554D01*
X43432465Y30343870D01*
X43439431Y30271121D01*
X43439462Y30258092D01*
X43445239Y30177770D01*
X43474123Y30144827D01*
X43539719Y30138602D01*
X43610130Y30129664D01*
X43641037Y30088797D01*
X43650673Y30027648D01*
X43661371Y29916694D01*
X44566075Y29897642D01*
X44566075Y30138602D01*
X45006773Y30138602D01*
X45016867Y30369046D01*
X45026962Y30599489D01*
X45129382Y30599489D01*
X45201192Y30590842D01*
X45232594Y30550792D01*
X45242499Y30488535D01*
X45256494Y30413783D01*
X45293758Y30383281D01*
X45372686Y30377581D01*
X45452192Y30382323D01*
X45482454Y30409447D01*
X45482443Y30478300D01*
X45481477Y30488535D01*
X45464925Y30566746D01*
X45420416Y30600435D01*
X45359825Y30610187D01*
X45284583Y30624446D01*
X45254256Y30662449D01*
X45248871Y30738212D01*
X45243442Y30816862D01*
X45213207Y30849119D01*
X45137242Y30855526D01*
X45129382Y30855538D01*
X45049296Y30850253D01*
X45016452Y30820436D01*
X45009907Y30745143D01*
X45009892Y30736049D01*
X45004116Y30655727D01*
X44975231Y30622784D01*
X44909636Y30616559D01*
X44839224Y30625498D01*
X44808318Y30666364D01*
X44798682Y30727514D01*
X44782130Y30805725D01*
X44737621Y30839413D01*
X44677029Y30849166D01*
X44600058Y30864664D01*
X44570214Y30904468D01*
X44566075Y30960120D01*
X44574787Y31031185D01*
X44615386Y31057367D01*
X44668494Y31060377D01*
X44741038Y31051917D01*
X44767776Y31012014D01*
X44770914Y30957957D01*
X44777575Y30889146D01*
X44811361Y30860922D01*
X44890403Y30855538D01*
X45009892Y30855538D01*
X45009892Y31538334D01*
X44907473Y31538334D01*
X44838661Y31544995D01*
X44810438Y31578781D01*
X44805054Y31657823D01*
X44810763Y31738103D01*
X44839723Y31771031D01*
X44907473Y31777312D01*
X44976285Y31783973D01*
X45004508Y31817759D01*
X45009892Y31896801D01*
X45004116Y31977123D01*
X44975231Y32010066D01*
X44909636Y32016290D01*
X44839224Y32025229D01*
X44808318Y32066096D01*
X44798682Y32127245D01*
X44787984Y32238199D01*
X44557540Y32248294D01*
X44435566Y32254757D01*
X44366655Y32265556D01*
X44335656Y32287987D01*
X44327416Y32329345D01*
X44327097Y32359248D01*
X44327097Y32460108D01*
X44770914Y32460108D01*
X44770914Y32357688D01*
X44777575Y32288877D01*
X44811361Y32260653D01*
X44890403Y32255269D01*
X44970489Y32249984D01*
X45003332Y32220167D01*
X45009877Y32144875D01*
X45009892Y32135780D01*
X45015177Y32055694D01*
X45044994Y32022851D01*
X45120287Y32016305D01*
X45129382Y32016290D01*
X45209467Y32021575D01*
X45242311Y32051392D01*
X45248856Y32126685D01*
X45248871Y32135780D01*
X45253988Y32215379D01*
X45283192Y32248396D01*
X45357258Y32255238D01*
X45370523Y32255269D01*
X45451015Y32259790D01*
X45482140Y32285927D01*
X45482758Y32352536D01*
X45481477Y32366223D01*
X45464925Y32444435D01*
X45420416Y32478123D01*
X45359825Y32487876D01*
X45282765Y32503484D01*
X45252913Y32543261D01*
X45248871Y32596667D01*
X45258121Y32665686D01*
X45299858Y32696103D01*
X45359825Y32705458D01*
X45470779Y32716156D01*
X45480874Y32946600D01*
X45490969Y33177043D01*
X45248871Y33177043D01*
X45248871Y33319292D01*
X45453710Y33319292D01*
X45461021Y33241104D01*
X45476469Y33199803D01*
X45524221Y33183126D01*
X45595959Y33177043D01*
X45661045Y33184326D01*
X45687735Y33219881D01*
X45692688Y33296532D01*
X45687403Y33376618D01*
X45657586Y33409462D01*
X45582294Y33416007D01*
X45573199Y33416022D01*
X45492798Y33410126D01*
X45459828Y33381343D01*
X45453710Y33319292D01*
X45248871Y33319292D01*
X45248871Y33655000D01*
X45009892Y33655000D01*
X45009892Y34094491D01*
X45120847Y34105189D01*
X45199058Y34121741D01*
X45232746Y34166250D01*
X45242499Y34226842D01*
X45253197Y34337796D01*
X45897527Y34337796D01*
X45897527Y34132957D01*
X45248871Y34132957D01*
X45248871Y33893979D01*
X45692688Y33893979D01*
X45692688Y33774489D01*
X45697973Y33694404D01*
X45727790Y33661560D01*
X45803082Y33655015D01*
X45812177Y33655000D01*
X45931666Y33655000D01*
X45931666Y34098817D01*
X46034086Y34098817D01*
X46106684Y34090290D01*
X46133430Y34050548D01*
X46136505Y33998561D01*
X46145444Y33928150D01*
X46186310Y33897243D01*
X46247460Y33887607D01*
X46325671Y33871055D01*
X46359359Y33826546D01*
X46369112Y33765954D01*
X46384610Y33688983D01*
X46424414Y33659139D01*
X46480066Y33655000D01*
X46547459Y33648115D01*
X46575099Y33613690D01*
X46580322Y33535511D01*
X46574613Y33455231D01*
X46545653Y33422303D01*
X46477903Y33416022D01*
X46409091Y33422683D01*
X46380868Y33456469D01*
X46375484Y33535511D01*
X46370199Y33615596D01*
X46340382Y33648440D01*
X46265089Y33654985D01*
X46255994Y33655000D01*
X46175909Y33649715D01*
X46143065Y33619898D01*
X46136520Y33544606D01*
X46136505Y33535511D01*
X46131220Y33455425D01*
X46101403Y33422582D01*
X46026111Y33416037D01*
X46017016Y33416022D01*
X45936930Y33410737D01*
X45904087Y33380920D01*
X45897542Y33305627D01*
X45897527Y33296532D01*
X45891817Y33216252D01*
X45862857Y33183325D01*
X45795107Y33177043D01*
X45692688Y33177043D01*
X45692688Y32699086D01*
X45795107Y32699086D01*
X45867651Y32690627D01*
X45894389Y32650723D01*
X45897527Y32596667D01*
X45889067Y32524123D01*
X45849164Y32497385D01*
X45795107Y32494247D01*
X45726296Y32487586D01*
X45698072Y32453800D01*
X45692688Y32374758D01*
X45698397Y32294478D01*
X45727357Y32261550D01*
X45795107Y32255269D01*
X45863919Y32248608D01*
X45892143Y32214822D01*
X45897527Y32135780D01*
X45897527Y32016290D01*
X45453710Y32016290D01*
X45453710Y31896801D01*
X45448000Y31816521D01*
X45419040Y31783593D01*
X45351290Y31777312D01*
X45248871Y31777312D01*
X45248871Y30855538D01*
X45692688Y30855538D01*
X45692688Y30736049D01*
X45698397Y30655768D01*
X45727357Y30622841D01*
X45795107Y30616559D01*
X45863919Y30609898D01*
X45892143Y30576112D01*
X45897527Y30497070D01*
X45891817Y30416790D01*
X45862857Y30383862D01*
X45795107Y30377581D01*
X45726296Y30370920D01*
X45698072Y30337133D01*
X45692688Y30258092D01*
X45692688Y30138602D01*
X45253197Y30138602D01*
X45242499Y30027648D01*
X45225947Y29949437D01*
X45181438Y29915749D01*
X45120847Y29905996D01*
X45009892Y29895298D01*
X45009892Y29460133D01*
X45120847Y29449435D01*
X45231801Y29438737D01*
X45241896Y29208293D01*
X45248359Y29086319D01*
X45259158Y29017408D01*
X45281589Y28986409D01*
X45322947Y28978169D01*
X45352850Y28977850D01*
X45420638Y28971029D01*
X45448441Y28936785D01*
X45453710Y28858360D01*
X45453710Y28738871D01*
X46136505Y28738871D01*
X46136505Y28295054D01*
X45692688Y28295054D01*
X45692688Y28397473D01*
X45686027Y28466285D01*
X45652241Y28494509D01*
X45573199Y28499893D01*
X45492919Y28494183D01*
X45459991Y28465223D01*
X45453710Y28397473D01*
X45453710Y28295054D01*
X45009892Y28295054D01*
X45009892Y28499893D01*
X44566075Y28499893D01*
X44566075Y28619382D01*
X44571360Y28699467D01*
X44601177Y28732311D01*
X44676469Y28738856D01*
X44685564Y28738871D01*
X44765650Y28744156D01*
X44798493Y28773973D01*
X44805039Y28849265D01*
X44805054Y28858360D01*
X44805054Y28977850D01*
X44327097Y28977850D01*
X44327097Y28858360D01*
X44321320Y28778039D01*
X44292435Y28745096D01*
X44226840Y28738871D01*
X44156429Y28729933D01*
X44125522Y28689066D01*
X44115886Y28627917D01*
X44107431Y28567332D01*
X44085862Y28533277D01*
X44034646Y28516816D01*
X43937254Y28509013D01*
X43891814Y28506799D01*
X43678441Y28496635D01*
X43678441Y28617753D01*
X43673352Y28698558D01*
X43644394Y28731983D01*
X43571029Y28738844D01*
X43558951Y28738871D01*
X43479352Y28733754D01*
X43446335Y28704550D01*
X43439493Y28630484D01*
X43439462Y28617219D01*
X43434941Y28536727D01*
X43408804Y28505602D01*
X43342195Y28504984D01*
X43328508Y28506265D01*
X43250297Y28522817D01*
X43216608Y28567326D01*
X43206856Y28627917D01*
X43204696Y28701728D01*
X43230394Y28732414D01*
X43302806Y28738835D01*
X43317810Y28738871D01*
X43398850Y28743898D01*
X43432465Y28772582D01*
X43439431Y28845331D01*
X43439462Y28858360D01*
X43439462Y28977850D01*
X43878953Y28977850D01*
X43900349Y29199758D01*
X44354790Y29209299D01*
X44809230Y29218839D01*
X44787984Y29438737D01*
X44122258Y29458279D01*
X44122258Y29578695D01*
X44117612Y29658624D01*
X44090918Y29689257D01*
X44023040Y29689516D01*
X44011304Y29688413D01*
X43900349Y29677715D01*
X43890255Y29447272D01*
X43883739Y29325290D01*
X43872876Y29256377D01*
X43850513Y29225380D01*
X43809495Y29217145D01*
X43781463Y29216828D01*
X43712056Y29225990D01*
X43681504Y29267478D01*
X43672069Y29327782D01*
X43655517Y29405994D01*
X43611008Y29439682D01*
X43550416Y29449435D01*
X43476606Y29451594D01*
X43445919Y29425896D01*
X43439498Y29353484D01*
X43439462Y29338480D01*
X43434436Y29257440D01*
X43405751Y29223825D01*
X43333002Y29216860D01*
X43319973Y29216828D01*
X43200484Y29216828D01*
X43200484Y29777972D01*
X44566075Y29777972D01*
X44570597Y29697480D01*
X44596733Y29666355D01*
X44663342Y29665737D01*
X44677029Y29667017D01*
X44755241Y29683569D01*
X44788929Y29728078D01*
X44798682Y29788670D01*
X44800841Y29862480D01*
X44775143Y29893167D01*
X44702731Y29899588D01*
X44687727Y29899624D01*
X44606700Y29894641D01*
X44573092Y29865833D01*
X44566111Y29792405D01*
X44566075Y29777972D01*
X43200484Y29777972D01*
X43200484Y29899624D01*
X43319973Y29899624D01*
G37*
G36*
X46106629Y31051917D02*
G01*
X46133368Y31012014D01*
X46136505Y30957957D01*
X46128046Y30885414D01*
X46088142Y30858675D01*
X46034086Y30855538D01*
X45961542Y30863997D01*
X45934804Y30903901D01*
X45931666Y30957957D01*
X45940126Y31030501D01*
X45980029Y31057239D01*
X46034086Y31060377D01*
X46106629Y31051917D01*
G37*
G36*
X50642957Y30377581D02*
G01*
X50438118Y30377581D01*
X50438118Y30855538D01*
X50642957Y30855538D01*
X50642957Y30377581D01*
G37*
G36*
X45897527Y31333495D02*
G01*
X45487849Y31333495D01*
X45487849Y31435914D01*
X45496309Y31508458D01*
X45536212Y31535196D01*
X45590269Y31538334D01*
X45659080Y31544995D01*
X45687304Y31578781D01*
X45692688Y31657823D01*
X45698397Y31738103D01*
X45727357Y31771031D01*
X45795107Y31777312D01*
X45897527Y31777312D01*
X45897527Y31333495D01*
G37*
G36*
X48148058Y33172522D02*
G01*
X48179183Y33146385D01*
X48179801Y33079776D01*
X48178520Y33066089D01*
X48161968Y32987878D01*
X48117459Y32954189D01*
X48056868Y32944437D01*
X47979897Y32928938D01*
X47950053Y32889135D01*
X47945914Y32833482D01*
X47937202Y32762418D01*
X47896603Y32736236D01*
X47843494Y32733226D01*
X47770951Y32741685D01*
X47744213Y32781589D01*
X47741075Y32835645D01*
X47749535Y32908189D01*
X47789438Y32934927D01*
X47843494Y32938065D01*
X47912306Y32944726D01*
X47940530Y32978512D01*
X47945914Y33057554D01*
X47951031Y33137153D01*
X47980235Y33170170D01*
X48054301Y33177012D01*
X48067566Y33177043D01*
X48148058Y33172522D01*
G37*
G36*
X49930285Y31290896D02*
G01*
X49957023Y31250992D01*
X49960161Y31196936D01*
X49951702Y31124392D01*
X49911798Y31097654D01*
X49857742Y31094516D01*
X49785198Y31102976D01*
X49758460Y31142879D01*
X49755322Y31196936D01*
X49763782Y31269479D01*
X49803685Y31296217D01*
X49857742Y31299355D01*
X49930285Y31290896D01*
G37*
G36*
X47024140Y33655000D02*
G01*
X46614462Y33655000D01*
X46614462Y33893979D01*
X47024140Y33893979D01*
X47024140Y33655000D01*
G37*
G36*
X50199140Y33177043D02*
G01*
X49873740Y33177043D01*
X49707861Y33179999D01*
X49601122Y33189654D01*
X49544610Y33207188D01*
X49530928Y33222420D01*
X49524179Y33275374D01*
X49521025Y33378069D01*
X49521858Y33512042D01*
X49523465Y33572353D01*
X49533414Y33876909D01*
X50199140Y33896451D01*
X50199140Y33177043D01*
G37*
G36*
X44122258Y32016290D02*
G01*
X44002769Y32016290D01*
X43922683Y32011006D01*
X43889840Y31981189D01*
X43883294Y31905896D01*
X43883279Y31896801D01*
X43883279Y31777312D01*
X44327097Y31777312D01*
X44327097Y31538334D01*
X44770914Y31538334D01*
X44770914Y31435914D01*
X44762454Y31363371D01*
X44722551Y31336632D01*
X44668494Y31333495D01*
X44599246Y31326641D01*
X44571177Y31292177D01*
X44566075Y31216169D01*
X44559452Y31135967D01*
X44526278Y31100700D01*
X44455121Y31088144D01*
X44376910Y31071592D01*
X44343221Y31027083D01*
X44333469Y30966492D01*
X44317970Y30889521D01*
X44278167Y30859677D01*
X44222514Y30855538D01*
X44155121Y30848653D01*
X44127481Y30814227D01*
X44122258Y30736049D01*
X44127967Y30655768D01*
X44156927Y30622841D01*
X44224677Y30616559D01*
X44293489Y30609898D01*
X44321713Y30576112D01*
X44327097Y30497070D01*
X44332382Y30416985D01*
X44362199Y30384141D01*
X44437491Y30377596D01*
X44446586Y30377581D01*
X44526671Y30382866D01*
X44559515Y30412683D01*
X44566060Y30487975D01*
X44566075Y30497070D01*
X44571785Y30577350D01*
X44600744Y30610278D01*
X44668494Y30616559D01*
X44737306Y30609898D01*
X44765530Y30576112D01*
X44770914Y30497070D01*
X44765204Y30416790D01*
X44736245Y30383862D01*
X44668494Y30377581D01*
X44599683Y30370920D01*
X44571459Y30337133D01*
X44566075Y30258092D01*
X44566075Y30138602D01*
X44122258Y30138602D01*
X44122258Y30258092D01*
X44116973Y30338177D01*
X44087156Y30371021D01*
X44011864Y30377566D01*
X44002769Y30377581D01*
X43922683Y30382866D01*
X43889840Y30412683D01*
X43883294Y30487975D01*
X43883279Y30497070D01*
X43877503Y30577392D01*
X43848618Y30610334D01*
X43783023Y30616559D01*
X43712612Y30625498D01*
X43681705Y30666364D01*
X43672069Y30727514D01*
X43661371Y30838468D01*
X43430927Y30848563D01*
X43200484Y30858657D01*
X43200484Y31299355D01*
X43319973Y31299355D01*
X43400058Y31294070D01*
X43432902Y31264253D01*
X43439447Y31188961D01*
X43439462Y31179866D01*
X43445172Y31099586D01*
X43474131Y31066658D01*
X43541882Y31060377D01*
X43614425Y31051917D01*
X43641163Y31012014D01*
X43644301Y30957957D01*
X43650962Y30889146D01*
X43684748Y30860922D01*
X43763790Y30855538D01*
X43843876Y30860823D01*
X43876719Y30890640D01*
X43883265Y30965932D01*
X43883279Y30975027D01*
X43877570Y31055307D01*
X43848610Y31088235D01*
X43780860Y31094516D01*
X43708316Y31102976D01*
X43681578Y31142879D01*
X43678441Y31196936D01*
X43678441Y31299355D01*
X44327097Y31299355D01*
X44327097Y31535075D01*
X44113723Y31545239D01*
X43997323Y31552143D01*
X43932594Y31564735D01*
X43903005Y31591951D01*
X43892026Y31642727D01*
X43889651Y31666358D01*
X43874153Y31743329D01*
X43834349Y31773173D01*
X43778697Y31777312D01*
X43711304Y31784197D01*
X43683664Y31818622D01*
X43678441Y31896801D01*
X43673156Y31976887D01*
X43643339Y32009730D01*
X43568046Y32016276D01*
X43558951Y32016290D01*
X43478866Y32011006D01*
X43446022Y31981189D01*
X43439477Y31905896D01*
X43439462Y31896801D01*
X43445172Y31816521D01*
X43474131Y31783593D01*
X43541882Y31777312D01*
X43644301Y31777312D01*
X43644301Y31333495D01*
X43541882Y31333495D01*
X43469284Y31342023D01*
X43442537Y31381764D01*
X43439462Y31433751D01*
X43430524Y31504163D01*
X43389657Y31535069D01*
X43328508Y31544705D01*
X43217554Y31555403D01*
X43217554Y32238199D01*
X43328508Y32248897D01*
X43405479Y32264395D01*
X43435323Y32304199D01*
X43439462Y32359851D01*
X43439462Y32460108D01*
X44122258Y32460108D01*
X44122258Y32016290D01*
G37*
G36*
X46550447Y26852724D02*
G01*
X46577185Y26812820D01*
X46580322Y26758764D01*
X46571863Y26686220D01*
X46531960Y26659482D01*
X46477903Y26656344D01*
X46405359Y26664804D01*
X46378621Y26704707D01*
X46375484Y26758764D01*
X46383943Y26831307D01*
X46423847Y26858045D01*
X46477903Y26861183D01*
X46550447Y26852724D01*
G37*
G36*
X49795212Y31772194D02*
G01*
X49762195Y31742991D01*
X49755354Y31668925D01*
X49755322Y31655660D01*
X49750801Y31575168D01*
X49724665Y31544043D01*
X49658055Y31543425D01*
X49644368Y31544705D01*
X49566157Y31561257D01*
X49532469Y31605766D01*
X49522716Y31666358D01*
X49507108Y31743417D01*
X49467330Y31773270D01*
X49413925Y31777312D01*
X49344905Y31768061D01*
X49314489Y31726325D01*
X49305133Y31666358D01*
X49288581Y31588146D01*
X49244072Y31554458D01*
X49183481Y31544705D01*
X49108729Y31530710D01*
X49078227Y31493447D01*
X49072527Y31414518D01*
X49077269Y31335013D01*
X49104393Y31304750D01*
X49173246Y31304761D01*
X49183481Y31305727D01*
X49261692Y31322279D01*
X49295380Y31366788D01*
X49305133Y31427379D01*
X49320631Y31504350D01*
X49360435Y31534194D01*
X49416088Y31538334D01*
X49516344Y31538334D01*
X49516344Y31094516D01*
X49072527Y31094516D01*
X49072527Y30977190D01*
X49079150Y30896988D01*
X49112324Y30861722D01*
X49183481Y30849166D01*
X49261692Y30832614D01*
X49295380Y30788105D01*
X49305133Y30727514D01*
X49315831Y30616559D01*
X49755322Y30616559D01*
X49755322Y30736049D01*
X49761032Y30816329D01*
X49789992Y30849256D01*
X49857742Y30855538D01*
X49926553Y30848877D01*
X49954777Y30815090D01*
X49960161Y30736049D01*
X49965446Y30655963D01*
X49995263Y30623119D01*
X50070555Y30616574D01*
X50079650Y30616559D01*
X50159736Y30611274D01*
X50192580Y30581457D01*
X50199125Y30506165D01*
X50199140Y30497070D01*
X50193363Y30416749D01*
X50164478Y30383806D01*
X50098883Y30377581D01*
X50028472Y30386519D01*
X49997565Y30427386D01*
X49987929Y30488535D01*
X49971377Y30566746D01*
X49926868Y30600435D01*
X49866277Y30610187D01*
X49792466Y30612347D01*
X49761779Y30586649D01*
X49755358Y30514237D01*
X49755322Y30499233D01*
X49760775Y30418007D01*
X49788671Y30384309D01*
X49856318Y30377582D01*
X49857742Y30377581D01*
X49960161Y30377581D01*
X49960161Y29896366D01*
X49746787Y29906530D01*
X49533414Y29916694D01*
X49523319Y30147137D01*
X49516803Y30269119D01*
X49505940Y30338032D01*
X49483577Y30369029D01*
X49442560Y30377264D01*
X49414528Y30377581D01*
X49345121Y30368419D01*
X49314568Y30326931D01*
X49305133Y30266627D01*
X49288581Y30188415D01*
X49244072Y30154727D01*
X49183481Y30144974D01*
X49108239Y30130716D01*
X49077912Y30092713D01*
X49072527Y30016950D01*
X49067098Y29938299D01*
X49036863Y29906043D01*
X48960898Y29899635D01*
X48953037Y29899624D01*
X48833548Y29899624D01*
X48833548Y29455807D01*
X48953037Y29455807D01*
X49033359Y29461583D01*
X49066302Y29490468D01*
X49072527Y29556063D01*
X49081465Y29626474D01*
X49122332Y29657381D01*
X49183481Y29667017D01*
X49261692Y29683569D01*
X49295380Y29728078D01*
X49305133Y29788670D01*
X49320631Y29865641D01*
X49360435Y29895485D01*
X49416088Y29899624D01*
X49483481Y29892739D01*
X49511121Y29858313D01*
X49516344Y29780135D01*
X49521629Y29700049D01*
X49551446Y29667205D01*
X49626738Y29660660D01*
X49635833Y29660645D01*
X49716113Y29654936D01*
X49749041Y29625976D01*
X49755322Y29558226D01*
X49755322Y29455807D01*
X50199140Y29455807D01*
X50199140Y29216828D01*
X50642957Y29216828D01*
X50642957Y28295054D01*
X50540537Y28295054D01*
X50474865Y28289661D01*
X50445671Y28260438D01*
X50438280Y28187818D01*
X50438118Y28158495D01*
X50442163Y28070932D01*
X50464080Y28032007D01*
X50518545Y28022151D01*
X50540537Y28021936D01*
X50642957Y28021936D01*
X50642957Y27578118D01*
X50540537Y27578118D01*
X50471726Y27584780D01*
X50443502Y27618566D01*
X50438118Y27697608D01*
X50438118Y27817097D01*
X49960161Y27817097D01*
X49960161Y27339140D01*
X49516344Y27339140D01*
X49516344Y27100161D01*
X49955835Y27100161D01*
X49966533Y26989207D01*
X49983085Y26910996D01*
X50027594Y26877308D01*
X50088185Y26867555D01*
X50161996Y26865396D01*
X50192683Y26891093D01*
X50199104Y26963506D01*
X50199140Y26978509D01*
X50204122Y27059537D01*
X50232931Y27093145D01*
X50306358Y27100125D01*
X50320792Y27100161D01*
X50401283Y27095640D01*
X50432409Y27069504D01*
X50433026Y27002894D01*
X50431746Y26989207D01*
X50415194Y26910996D01*
X50370685Y26877308D01*
X50310094Y26867555D01*
X50233123Y26852057D01*
X50203279Y26812253D01*
X50199140Y26756601D01*
X50199140Y26656344D01*
X49072527Y26656344D01*
X49072527Y26758764D01*
X49064067Y26831307D01*
X49024164Y26858045D01*
X48970107Y26861183D01*
X48901296Y26867844D01*
X48873072Y26901630D01*
X48867688Y26980672D01*
X48862358Y27060773D01*
X48832670Y27093624D01*
X48758080Y27100150D01*
X48750362Y27100161D01*
X48670160Y27093538D01*
X48634893Y27060364D01*
X48622338Y26989207D01*
X48606942Y26912316D01*
X48567096Y26882481D01*
X48509220Y26878253D01*
X48437410Y26886900D01*
X48406008Y26926950D01*
X48396103Y26989207D01*
X48380605Y27066178D01*
X48340801Y27096022D01*
X48285149Y27100161D01*
X48184892Y27100161D01*
X48184892Y27458629D01*
X48389731Y27458629D01*
X48395016Y27378544D01*
X48424833Y27345700D01*
X48500125Y27339155D01*
X48509220Y27339140D01*
X48589306Y27344425D01*
X48622149Y27374242D01*
X48628695Y27449534D01*
X48628710Y27458629D01*
X48833548Y27458629D01*
X48838833Y27378544D01*
X48868650Y27345700D01*
X48943943Y27339155D01*
X48953037Y27339140D01*
X49033123Y27344425D01*
X49065967Y27374242D01*
X49072512Y27449534D01*
X49072527Y27458629D01*
X49311505Y27458629D01*
X49317215Y27378349D01*
X49346174Y27345421D01*
X49413925Y27339140D01*
X49482736Y27345801D01*
X49510960Y27379587D01*
X49516344Y27458629D01*
X49510634Y27538909D01*
X49481675Y27571837D01*
X49413925Y27578118D01*
X49345113Y27571457D01*
X49316889Y27537671D01*
X49311505Y27458629D01*
X49072527Y27458629D01*
X49067242Y27538715D01*
X49037425Y27571558D01*
X48962132Y27578104D01*
X48953037Y27578118D01*
X48872952Y27572834D01*
X48840108Y27543017D01*
X48833563Y27467724D01*
X48833548Y27458629D01*
X48628710Y27458629D01*
X48623425Y27538715D01*
X48593608Y27571558D01*
X48518315Y27578104D01*
X48509220Y27578118D01*
X48429135Y27572834D01*
X48396291Y27543017D01*
X48389746Y27467724D01*
X48389731Y27458629D01*
X48184892Y27458629D01*
X48184892Y27817097D01*
X48389731Y27817097D01*
X48833548Y27817097D01*
X49516344Y27817097D01*
X49516344Y28260914D01*
X49755322Y28260914D01*
X50199140Y28260914D01*
X50199140Y28380403D01*
X50204425Y28460489D01*
X50234242Y28493333D01*
X50309534Y28499878D01*
X50318629Y28499893D01*
X50398714Y28505178D01*
X50431558Y28534995D01*
X50438103Y28610287D01*
X50438118Y28619382D01*
X50432833Y28699467D01*
X50403016Y28732311D01*
X50327724Y28738856D01*
X50318629Y28738871D01*
X50238543Y28744156D01*
X50205700Y28773973D01*
X50199154Y28849265D01*
X50199140Y28858360D01*
X50193855Y28938446D01*
X50164038Y28971290D01*
X50088745Y28977835D01*
X50079650Y28977850D01*
X49999565Y28972565D01*
X49966721Y28942748D01*
X49960176Y28867455D01*
X49960161Y28858360D01*
X49954452Y28778080D01*
X49925492Y28745153D01*
X49857742Y28738871D01*
X49755322Y28738871D01*
X49755322Y28260914D01*
X49516344Y28260914D01*
X49516344Y28499893D01*
X48833548Y28499893D01*
X48833548Y27817097D01*
X48389731Y27817097D01*
X48389731Y28256588D01*
X48500685Y28267286D01*
X48611640Y28277984D01*
X48621734Y28508428D01*
X48631829Y28738871D01*
X48510780Y28738871D01*
X48430005Y28733774D01*
X48396605Y28704780D01*
X48389757Y28631335D01*
X48389731Y28619382D01*
X48384022Y28539102D01*
X48355062Y28506174D01*
X48287312Y28499893D01*
X48184892Y28499893D01*
X48184892Y28056075D01*
X47945914Y28056075D01*
X47945914Y28499893D01*
X47826425Y28499893D01*
X47746144Y28494183D01*
X47713217Y28465223D01*
X47706935Y28397473D01*
X47706935Y28295054D01*
X47058279Y28295054D01*
X47058279Y28738871D01*
X46819301Y28738871D01*
X46819301Y29097339D01*
X47024140Y29097339D01*
X47029425Y29017253D01*
X47059242Y28984410D01*
X47134534Y28977864D01*
X47143629Y28977850D01*
X47263118Y28977850D01*
X47263118Y28499893D01*
X47382607Y28499893D01*
X47462693Y28505178D01*
X47495537Y28534995D01*
X47502082Y28610287D01*
X47502097Y28619382D01*
X47945914Y28619382D01*
X47951199Y28539296D01*
X47981016Y28506453D01*
X48056308Y28499907D01*
X48065403Y28499893D01*
X48145489Y28505178D01*
X48178332Y28534995D01*
X48184877Y28610287D01*
X48184892Y28619382D01*
X48179607Y28699467D01*
X48149790Y28732311D01*
X48074498Y28738856D01*
X48065403Y28738871D01*
X47985318Y28733586D01*
X47952474Y28703769D01*
X47945929Y28628477D01*
X47945914Y28619382D01*
X47502097Y28619382D01*
X47507382Y28699467D01*
X47537199Y28732311D01*
X47612491Y28738856D01*
X47621586Y28738871D01*
X47701671Y28744156D01*
X47734515Y28773973D01*
X47741060Y28849265D01*
X47741075Y28858360D01*
X47735790Y28938446D01*
X47705973Y28971290D01*
X47630681Y28977835D01*
X47621586Y28977850D01*
X47541500Y28983135D01*
X47508657Y29012952D01*
X47502111Y29088244D01*
X47502097Y29097339D01*
X47502097Y29216828D01*
X47024140Y29216828D01*
X47024140Y29097339D01*
X46819301Y29097339D01*
X46819301Y29455807D01*
X46716882Y29455807D01*
X46644338Y29464266D01*
X46617600Y29504169D01*
X46614462Y29558226D01*
X46622922Y29630770D01*
X46662825Y29657508D01*
X46716882Y29660645D01*
X46789455Y29652148D01*
X46816198Y29612338D01*
X46819301Y29559462D01*
X46819301Y29458279D01*
X47485027Y29438737D01*
X47495725Y29327782D01*
X47509720Y29253030D01*
X47546983Y29222529D01*
X47625912Y29216828D01*
X47705417Y29221570D01*
X47735680Y29248695D01*
X47735669Y29317547D01*
X47734703Y29327782D01*
X47718151Y29405994D01*
X47673642Y29439682D01*
X47613051Y29449435D01*
X47514615Y29458926D01*
X47706935Y29458926D01*
X47937379Y29448832D01*
X48167822Y29438737D01*
X48177917Y29208293D01*
X48184433Y29086312D01*
X48195296Y29017399D01*
X48217659Y28986401D01*
X48258677Y28978167D01*
X48286708Y28977850D01*
X48356115Y28987011D01*
X48386668Y29028499D01*
X48396103Y29088804D01*
X48411498Y29165695D01*
X48451344Y29195530D01*
X48509220Y29199758D01*
X48581030Y29191111D01*
X48612432Y29151061D01*
X48622338Y29088804D01*
X48633036Y28977850D01*
X49072527Y28977850D01*
X49072527Y29099502D01*
X49077048Y29179993D01*
X49103184Y29211119D01*
X49169794Y29211736D01*
X49183481Y29210456D01*
X49294435Y29199758D01*
X49304530Y28969315D01*
X49310993Y28847340D01*
X49321793Y28778429D01*
X49344224Y28747430D01*
X49385581Y28739191D01*
X49415484Y28738871D01*
X49516344Y28738871D01*
X49516344Y29455807D01*
X49072527Y29455807D01*
X49072527Y29336317D01*
X49066750Y29255996D01*
X49037866Y29223053D01*
X48972270Y29216828D01*
X48901859Y29225767D01*
X48870952Y29266633D01*
X48861316Y29327782D01*
X48844764Y29405994D01*
X48800255Y29439682D01*
X48739664Y29449435D01*
X48628710Y29460133D01*
X48628710Y29895298D01*
X48517755Y29905996D01*
X48439544Y29922548D01*
X48405856Y29967057D01*
X48396103Y30027648D01*
X48385405Y30138602D01*
X49072527Y30138602D01*
X49072527Y30258092D01*
X49077812Y30338177D01*
X49107629Y30371021D01*
X49182921Y30377566D01*
X49192016Y30377581D01*
X49272101Y30382866D01*
X49304945Y30412683D01*
X49311490Y30487975D01*
X49311505Y30497070D01*
X49306220Y30577156D01*
X49276403Y30609999D01*
X49201111Y30616544D01*
X49192016Y30616559D01*
X49111930Y30621844D01*
X49079087Y30651661D01*
X49072542Y30726954D01*
X49072527Y30736049D01*
X49072527Y30855538D01*
X48628710Y30855538D01*
X48628710Y30955794D01*
X48637648Y31026206D01*
X48678515Y31057113D01*
X48739664Y31066748D01*
X48814416Y31080743D01*
X48844918Y31118007D01*
X48850618Y31196936D01*
X48844315Y31278046D01*
X48812444Y31313967D01*
X48739664Y31327123D01*
X48662604Y31342731D01*
X48632752Y31382508D01*
X48628710Y31435914D01*
X48619459Y31504934D01*
X48577722Y31535350D01*
X48517755Y31544705D01*
X48439544Y31561257D01*
X48405856Y31605766D01*
X48396103Y31666358D01*
X48393239Y31680583D01*
X48833548Y31680583D01*
X48843571Y31589796D01*
X48885347Y31548235D01*
X48975797Y31538334D01*
X49040884Y31545616D01*
X49067574Y31581171D01*
X49072527Y31657823D01*
X49067242Y31737908D01*
X49037425Y31770752D01*
X48962132Y31777297D01*
X48953037Y31777312D01*
X48872636Y31771417D01*
X48839666Y31742634D01*
X48833548Y31680583D01*
X48393239Y31680583D01*
X48380605Y31743329D01*
X48340801Y31773173D01*
X48285149Y31777312D01*
X48184892Y31777312D01*
X48184892Y31333495D01*
X48065403Y31333495D01*
X47989314Y31329483D01*
X47955199Y31304421D01*
X47946230Y31238774D01*
X47945914Y31194773D01*
X47949081Y31106792D01*
X47968978Y31069092D01*
X48021195Y31063684D01*
X48056868Y31066748D01*
X48135079Y31083301D01*
X48168768Y31127809D01*
X48178520Y31188401D01*
X48194019Y31265372D01*
X48233822Y31295216D01*
X48289475Y31299355D01*
X48360539Y31290643D01*
X48386721Y31250044D01*
X48389731Y31196936D01*
X48381272Y31124392D01*
X48341368Y31097654D01*
X48287312Y31094516D01*
X48184892Y31094516D01*
X48184892Y30377581D01*
X47945914Y30377581D01*
X47945914Y30258092D01*
X47940629Y30178006D01*
X47910812Y30145162D01*
X47835519Y30138617D01*
X47826425Y30138602D01*
X47706935Y30138602D01*
X47706935Y29458926D01*
X47514615Y29458926D01*
X47502097Y29460133D01*
X47502097Y29899624D01*
X46819301Y29899624D01*
X46819301Y30019113D01*
X46813591Y30099393D01*
X46784632Y30132321D01*
X46716882Y30138602D01*
X46648070Y30145263D01*
X46619846Y30179050D01*
X46614462Y30258092D01*
X46609132Y30338192D01*
X46579444Y30371044D01*
X46504854Y30377569D01*
X46497136Y30377581D01*
X46416934Y30370957D01*
X46381667Y30337784D01*
X46369112Y30266627D01*
X46352560Y30188415D01*
X46308051Y30154727D01*
X46247460Y30144974D01*
X46172217Y30130716D01*
X46141891Y30092713D01*
X46136505Y30016950D01*
X46130522Y29937623D01*
X46100437Y29905469D01*
X46034086Y29899624D01*
X45931666Y29899624D01*
X45931666Y30377581D01*
X46031923Y30377581D01*
X46102334Y30386519D01*
X46133241Y30427386D01*
X46142877Y30488535D01*
X46153575Y30599489D01*
X46486438Y30609261D01*
X46819301Y30619032D01*
X46819301Y30138602D01*
X47061399Y30138602D01*
X47263118Y30138602D01*
X47382607Y30138602D01*
X47462693Y30143887D01*
X47495537Y30173704D01*
X47502082Y30248997D01*
X47502097Y30258092D01*
X47502097Y30377581D01*
X47945914Y30377581D01*
X47945914Y30855538D01*
X47502097Y30855538D01*
X47502097Y30736049D01*
X47496812Y30655963D01*
X47466995Y30623119D01*
X47391702Y30616574D01*
X47382607Y30616559D01*
X47263118Y30616559D01*
X47263118Y30138602D01*
X47061399Y30138602D01*
X47051304Y30369046D01*
X47041210Y30599489D01*
X46930255Y30610187D01*
X46819301Y30620885D01*
X46819301Y30855538D01*
X47263118Y30855538D01*
X47263118Y30956397D01*
X47265677Y31009895D01*
X47283454Y31040834D01*
X47331602Y31056511D01*
X47425272Y31064220D01*
X47493562Y31067352D01*
X47724005Y31077446D01*
X47734100Y31307890D01*
X47740563Y31429864D01*
X47751362Y31498775D01*
X47773793Y31529775D01*
X47815151Y31538014D01*
X47845054Y31538334D01*
X47912843Y31545155D01*
X47940646Y31579398D01*
X47945914Y31657823D01*
X47945914Y31777312D01*
X47263118Y31777312D01*
X47263118Y31657823D01*
X47257409Y31577543D01*
X47228449Y31544615D01*
X47160699Y31538334D01*
X47091887Y31544995D01*
X47063663Y31578781D01*
X47058279Y31657823D01*
X47063989Y31738103D01*
X47092949Y31771031D01*
X47160699Y31777312D01*
X47229510Y31783973D01*
X47257734Y31817759D01*
X47263118Y31896801D01*
X47257341Y31977123D01*
X47228457Y32010066D01*
X47162862Y32016290D01*
X47092450Y32025229D01*
X47061543Y32066096D01*
X47051908Y32127245D01*
X47050102Y32135780D01*
X47263118Y32135780D01*
X47268403Y32055694D01*
X47298220Y32022851D01*
X47373512Y32016305D01*
X47382607Y32016290D01*
X47462693Y32021575D01*
X47495537Y32051392D01*
X47502082Y32126685D01*
X47502097Y32135780D01*
X47496812Y32215865D01*
X47466995Y32248709D01*
X47391702Y32255254D01*
X47382607Y32255269D01*
X47302522Y32249984D01*
X47269678Y32220167D01*
X47263133Y32144875D01*
X47263118Y32135780D01*
X47050102Y32135780D01*
X47035355Y32205456D01*
X46990846Y32239144D01*
X46930255Y32248897D01*
X46856445Y32251056D01*
X46825758Y32225359D01*
X46819337Y32152946D01*
X46819301Y32137943D01*
X46824753Y32056717D01*
X46852649Y32023019D01*
X46920296Y32016291D01*
X46921720Y32016290D01*
X46990532Y32009629D01*
X47018756Y31975843D01*
X47024140Y31896801D01*
X47018430Y31816521D01*
X46989470Y31783593D01*
X46921720Y31777312D01*
X46852909Y31770651D01*
X46824685Y31736865D01*
X46819301Y31657823D01*
X46813591Y31577543D01*
X46784632Y31544615D01*
X46716882Y31538334D01*
X46648070Y31544995D01*
X46619846Y31578781D01*
X46614462Y31657823D01*
X46620172Y31738103D01*
X46649131Y31771031D01*
X46716882Y31777312D01*
X46785693Y31783973D01*
X46813917Y31817759D01*
X46819301Y31896801D01*
X46813524Y31977123D01*
X46784640Y32010066D01*
X46719045Y32016290D01*
X46648633Y32025229D01*
X46617726Y32066096D01*
X46608090Y32127245D01*
X46591538Y32205456D01*
X46547029Y32239144D01*
X46486438Y32248897D01*
X46412627Y32251056D01*
X46381941Y32225359D01*
X46375520Y32152946D01*
X46375484Y32137943D01*
X46380936Y32056717D01*
X46408832Y32023019D01*
X46476479Y32016291D01*
X46477903Y32016290D01*
X46546715Y32009629D01*
X46574938Y31975843D01*
X46580322Y31896801D01*
X46580322Y31777312D01*
X45931666Y31777312D01*
X45931666Y31896801D01*
X45937376Y31977081D01*
X45966336Y32010009D01*
X46034086Y32016290D01*
X46136505Y32016290D01*
X46136505Y32460108D01*
X46580322Y32460108D01*
X46580322Y32357688D01*
X46586983Y32288877D01*
X46620770Y32260653D01*
X46699812Y32255269D01*
X46819301Y32255269D01*
X46819301Y32938065D01*
X46699812Y32938065D01*
X46619531Y32932355D01*
X46586604Y32903395D01*
X46580322Y32835645D01*
X46571863Y32763102D01*
X46531960Y32736364D01*
X46477903Y32733226D01*
X46405305Y32741754D01*
X46378559Y32781495D01*
X46375484Y32833482D01*
X46366545Y32903894D01*
X46325679Y32934801D01*
X46264529Y32944437D01*
X46186318Y32960989D01*
X46152630Y33005498D01*
X46142877Y33066089D01*
X46132179Y33177043D01*
X46614462Y33177043D01*
X46614462Y33416022D01*
X47259998Y33416022D01*
X47270093Y33646465D01*
X47280188Y33876909D01*
X47485027Y33876909D01*
X47494387Y33305067D01*
X47503748Y32733226D01*
X47383433Y32733226D01*
X47302791Y32738835D01*
X47269569Y32767382D01*
X47263118Y32835645D01*
X47256457Y32904457D01*
X47222671Y32932681D01*
X47143629Y32938065D01*
X47024140Y32938065D01*
X47024140Y32255269D01*
X47143629Y32255269D01*
X47223950Y32261046D01*
X47256893Y32289930D01*
X47263118Y32355525D01*
X47272057Y32425937D01*
X47312923Y32456844D01*
X47374072Y32466480D01*
X47452284Y32483032D01*
X47485972Y32527541D01*
X47495725Y32588132D01*
X47511223Y32665103D01*
X47551027Y32694947D01*
X47606679Y32699086D01*
X47677744Y32690374D01*
X47703925Y32649775D01*
X47706935Y32596667D01*
X47698476Y32524123D01*
X47658572Y32497385D01*
X47604516Y32494247D01*
X47535704Y32487586D01*
X47507481Y32453800D01*
X47502097Y32374758D01*
X47507382Y32294673D01*
X47537199Y32261829D01*
X47612491Y32255284D01*
X47621586Y32255269D01*
X47701866Y32260978D01*
X47734794Y32289938D01*
X47741075Y32357688D01*
X47749535Y32430232D01*
X47789438Y32456970D01*
X47843494Y32460108D01*
X47916038Y32451648D01*
X47942776Y32411745D01*
X47945914Y32357688D01*
X47945914Y32255269D01*
X48389731Y32255269D01*
X48389731Y32016290D01*
X49072527Y32016290D01*
X49072527Y32255269D01*
X49994301Y32255269D01*
X49994301Y32460108D01*
X50438118Y32460108D01*
X50438118Y32357688D01*
X50446578Y32285145D01*
X50486481Y32258407D01*
X50540537Y32255269D01*
X50642957Y32255269D01*
X50642957Y31538334D01*
X50540537Y31538334D01*
X50471726Y31531672D01*
X50443502Y31497886D01*
X50438118Y31418844D01*
X50443828Y31338564D01*
X50472787Y31305636D01*
X50540537Y31299355D01*
X50613081Y31290896D01*
X50639819Y31250992D01*
X50642957Y31196936D01*
X50642957Y31094516D01*
X50199140Y31094516D01*
X50199140Y31214006D01*
X50193430Y31294286D01*
X50164470Y31327213D01*
X50096720Y31333495D01*
X49994301Y31333495D01*
X49994301Y31777312D01*
X50199140Y31777312D01*
X50438118Y31777312D01*
X50438118Y32255269D01*
X50199140Y32255269D01*
X50199140Y31777312D01*
X49994301Y31777312D01*
X49874812Y31777312D01*
X49795212Y31772194D01*
G37*
G36*
X44327097Y27100161D02*
G01*
X43678441Y27100161D01*
X43678441Y27817097D01*
X44327097Y27817097D01*
X44327097Y27100161D01*
G37*
G36*
X45692688Y29799368D02*
G01*
X45683749Y29728956D01*
X45642883Y29698049D01*
X45581734Y29688413D01*
X45503522Y29671861D01*
X45469834Y29627352D01*
X45460081Y29566761D01*
X45444583Y29489790D01*
X45404780Y29459946D01*
X45349127Y29455807D01*
X45248871Y29455807D01*
X45248871Y29899624D01*
X45692688Y29899624D01*
X45692688Y29799368D01*
G37*
G36*
X48803672Y34329336D02*
G01*
X48830411Y34289433D01*
X48833548Y34235377D01*
X48825089Y34162833D01*
X48785185Y34136095D01*
X48731129Y34132957D01*
X48658585Y34141417D01*
X48631847Y34181320D01*
X48628710Y34235377D01*
X48637169Y34307920D01*
X48677072Y34334658D01*
X48731129Y34337796D01*
X48803672Y34329336D01*
G37*
G36*
X44770914Y28260914D02*
G01*
X44770914Y26656344D01*
X43200484Y26656344D01*
X43200484Y26861183D01*
X43439462Y26861183D01*
X44566075Y26861183D01*
X44566075Y28056075D01*
X43439462Y28056075D01*
X43439462Y26861183D01*
X43200484Y26861183D01*
X43200484Y28260914D01*
X44770914Y28260914D01*
G37*
G36*
X46819301Y30855538D02*
G01*
X46375484Y30855538D01*
X46375484Y31299355D01*
X46819301Y31299355D01*
X46819301Y30855538D01*
G37*
G36*
X44770914Y34337796D02*
G01*
X44770914Y32733226D01*
X43200484Y32733226D01*
X43200484Y32938065D01*
X43439462Y32938065D01*
X44566075Y32938065D01*
X44566075Y34132957D01*
X43439462Y34132957D01*
X43439462Y32938065D01*
X43200484Y32938065D01*
X43200484Y34337796D01*
X44770914Y34337796D01*
G37*
G36*
X45897527Y29660645D02*
G01*
X45897527Y29216828D01*
X46014853Y29216828D01*
X46095055Y29223452D01*
X46130321Y29256625D01*
X46142877Y29327782D01*
X46151332Y29388367D01*
X46172901Y29422422D01*
X46224117Y29438883D01*
X46321509Y29446686D01*
X46366949Y29448901D01*
X46580322Y29459065D01*
X46580322Y28977850D01*
X46477903Y28977850D01*
X46409091Y28971189D01*
X46380868Y28937402D01*
X46375484Y28858360D01*
X46370199Y28778275D01*
X46340382Y28745431D01*
X46265089Y28738886D01*
X46255994Y28738871D01*
X46136505Y28738871D01*
X46136505Y28977850D01*
X45692688Y28977850D01*
X45692688Y29097339D01*
X46136505Y29097339D01*
X46141790Y29017253D01*
X46171607Y28984410D01*
X46246900Y28977864D01*
X46255994Y28977850D01*
X46336080Y28983135D01*
X46368924Y29012952D01*
X46375469Y29088244D01*
X46375484Y29097339D01*
X46370199Y29177424D01*
X46340382Y29210268D01*
X46265089Y29216813D01*
X46255994Y29216828D01*
X46175909Y29211543D01*
X46143065Y29181726D01*
X46136520Y29106434D01*
X46136505Y29097339D01*
X45692688Y29097339D01*
X45692688Y29660645D01*
X45897527Y29660645D01*
G37*
G36*
X47233242Y31290896D02*
G01*
X47259980Y31250992D01*
X47263118Y31196936D01*
X47254659Y31124392D01*
X47214755Y31097654D01*
X47160699Y31094516D01*
X47088155Y31102976D01*
X47061417Y31142879D01*
X47058279Y31196936D01*
X47066739Y31269479D01*
X47106642Y31296217D01*
X47160699Y31299355D01*
X47233242Y31290896D01*
G37*
G36*
X45209662Y32932355D02*
G01*
X45242589Y32903395D01*
X45248871Y32835645D01*
X45242210Y32766834D01*
X45208423Y32738610D01*
X45129382Y32733226D01*
X45049101Y32738935D01*
X45016174Y32767895D01*
X45009892Y32835645D01*
X45016553Y32904457D01*
X45050340Y32932681D01*
X45129382Y32938065D01*
X45209662Y32932355D01*
G37*
G36*
X46106629Y32929605D02*
G01*
X46133368Y32889702D01*
X46136505Y32835645D01*
X46128046Y32763102D01*
X46088142Y32736364D01*
X46034086Y32733226D01*
X45961542Y32741685D01*
X45934804Y32781589D01*
X45931666Y32835645D01*
X45940126Y32908189D01*
X45980029Y32934927D01*
X46034086Y32938065D01*
X46106629Y32929605D01*
G37*
G36*
X48359855Y29652186D02*
G01*
X48386593Y29612282D01*
X48389731Y29558226D01*
X48381272Y29485682D01*
X48341368Y29458944D01*
X48287312Y29455807D01*
X48214768Y29464266D01*
X48188030Y29504169D01*
X48184892Y29558226D01*
X48193352Y29630770D01*
X48233255Y29657508D01*
X48287312Y29660645D01*
X48359855Y29652186D01*
G37*
G36*
X46789425Y28491433D02*
G01*
X46816163Y28451530D01*
X46819301Y28397473D01*
X46810842Y28324930D01*
X46770938Y28298192D01*
X46716882Y28295054D01*
X46644338Y28303513D01*
X46617600Y28343417D01*
X46614462Y28397473D01*
X46622922Y28470017D01*
X46662825Y28496755D01*
X46716882Y28499893D01*
X46789425Y28491433D01*
G37*
G36*
X47945914Y27817097D02*
G01*
X47502097Y27817097D01*
X47502097Y28021936D01*
X47945914Y28021936D01*
X47945914Y27817097D01*
G37*
G36*
X45867651Y26852724D02*
G01*
X45894389Y26812820D01*
X45897527Y26758764D01*
X45889067Y26686220D01*
X45849164Y26659482D01*
X45795107Y26656344D01*
X45722564Y26664804D01*
X45695826Y26704707D01*
X45692688Y26758764D01*
X45701147Y26831307D01*
X45741051Y26858045D01*
X45795107Y26861183D01*
X45867651Y26852724D01*
G37*
G36*
X50642957Y34337796D02*
G01*
X50642957Y32733226D01*
X49072527Y32733226D01*
X49072527Y32938065D01*
X49311505Y32938065D01*
X50438118Y32938065D01*
X50438118Y34132957D01*
X49311505Y34132957D01*
X49311505Y32938065D01*
X49072527Y32938065D01*
X49072527Y34337796D01*
X50642957Y34337796D01*
G37*
G36*
X47233242Y34090358D02*
G01*
X47259980Y34050455D01*
X47263118Y33996398D01*
X47254659Y33923854D01*
X47214755Y33897116D01*
X47160699Y33893979D01*
X47088155Y33902438D01*
X47061417Y33942342D01*
X47058279Y33996398D01*
X47066739Y34068942D01*
X47106642Y34095680D01*
X47160699Y34098817D01*
X47233242Y34090358D01*
G37*
G36*
X47672764Y34328857D02*
G01*
X47703671Y34287991D01*
X47713307Y34226842D01*
X47729859Y34148630D01*
X47774368Y34114942D01*
X47834960Y34105189D01*
X47908770Y34103030D01*
X47939457Y34128728D01*
X47945878Y34201140D01*
X47945914Y34216144D01*
X47950940Y34297184D01*
X47979625Y34330799D01*
X48052374Y34337764D01*
X48065403Y34337796D01*
X48145489Y34332511D01*
X48178332Y34302694D01*
X48184877Y34227402D01*
X48184892Y34218307D01*
X48190602Y34138026D01*
X48219562Y34105099D01*
X48287312Y34098817D01*
X48359855Y34090358D01*
X48386593Y34050455D01*
X48389731Y33996398D01*
X48389731Y33893979D01*
X47945914Y33893979D01*
X47945914Y33776652D01*
X47952537Y33696451D01*
X47985711Y33661184D01*
X48056868Y33648628D01*
X48135079Y33632076D01*
X48168768Y33587567D01*
X48178520Y33526976D01*
X48180680Y33453165D01*
X48154982Y33422479D01*
X48082570Y33416058D01*
X48067566Y33416022D01*
X47986526Y33421048D01*
X47952911Y33449732D01*
X47945945Y33522481D01*
X47945914Y33535511D01*
X47940137Y33615832D01*
X47911253Y33648775D01*
X47845658Y33655000D01*
X47775246Y33663939D01*
X47744339Y33704805D01*
X47734703Y33765954D01*
X47718151Y33844166D01*
X47673642Y33877854D01*
X47613051Y33887607D01*
X47502097Y33898305D01*
X47502097Y34337796D01*
X47602353Y34337796D01*
X47672764Y34328857D01*
G37*
G36*
X44327097Y33177043D02*
G01*
X43678441Y33177043D01*
X43678441Y33893979D01*
X44327097Y33893979D01*
X44327097Y33177043D01*
G37*
G36*
X49272296Y28255205D02*
G01*
X49305224Y28226245D01*
X49311505Y28158495D01*
X49304844Y28089683D01*
X49271058Y28061460D01*
X49192016Y28056075D01*
X49111736Y28061785D01*
X49078808Y28090745D01*
X49072527Y28158495D01*
X49079188Y28227306D01*
X49112974Y28255530D01*
X49192016Y28260914D01*
X49272296Y28255205D01*
G37*
G36*
X48581030Y30829821D02*
G01*
X48612432Y30789771D01*
X48622338Y30727514D01*
X48633036Y30616559D01*
X49072527Y30616559D01*
X49072527Y30377581D01*
X48389731Y30377581D01*
X48389731Y30258092D01*
X48383954Y30177770D01*
X48355070Y30144827D01*
X48289475Y30138602D01*
X48219063Y30129664D01*
X48188156Y30088797D01*
X48178520Y30027648D01*
X48161968Y29949437D01*
X48117459Y29915749D01*
X48056868Y29905996D01*
X47983057Y29903836D01*
X47952371Y29929534D01*
X47945950Y30001946D01*
X47945914Y30016950D01*
X47950940Y30097990D01*
X47979625Y30131605D01*
X48052374Y30138571D01*
X48065403Y30138602D01*
X48145489Y30143887D01*
X48178332Y30173704D01*
X48184877Y30248997D01*
X48184892Y30258092D01*
X48190650Y30338401D01*
X48219554Y30371339D01*
X48285752Y30377581D01*
X48339249Y30380139D01*
X48370189Y30397917D01*
X48385865Y30446064D01*
X48393575Y30539734D01*
X48396706Y30608024D01*
X48406801Y30838468D01*
X48509220Y30838468D01*
X48581030Y30829821D01*
G37*
G36*
X46819301Y34132957D02*
G01*
X46375484Y34132957D01*
X46375484Y34337796D01*
X46819301Y34337796D01*
X46819301Y34132957D01*
G37*
X68290000Y5681000D02*
X68290000Y5525000D01*
X68290000Y3365000D02*
X68290000Y3209000D01*
X68809039Y3365000D02*
G75*
G03*
X70891130Y3365163I1040961J1080000D01*
G01*
X70891130Y5524837D02*
G75*
G03*
X68809039Y5525000I-1041130J-1079837D01*
G01*
X68290000Y3209484D02*
G75*
G03*
X71522335Y3366392I1560000J1235516D01*
G01*
X71522335Y5523608D02*
G75*
G03*
X68290000Y5680516I-1672335J-1078608D01*
G01*
X72675000Y22210000D02*
X72675000Y26050000D01*
X70835000Y22210000D02*
X70835000Y26050000D01*
X60430000Y13940000D02*
X64030000Y13940000D01*
X62230000Y18390001D02*
G75*
G03*
X60391522Y13951522I0J-2600001D01*
G01*
X64068478Y13951522D02*
G75*
G03*
X62230000Y18390000I-1838478J1838478D01*
G01*
X75850000Y8875000D02*
X75850000Y12715000D01*
X74010000Y8875000D02*
X74010000Y12715000D01*
X77815000Y25366000D02*
X77815000Y25210000D01*
X77815000Y23050000D02*
X77815000Y22894000D01*
X80416130Y25209837D02*
G75*
G03*
X78334039Y25210000I-1041130J-1079837D01*
G01*
X77815000Y22894484D02*
G75*
G03*
X81047335Y23051392I1560000J1235516D01*
G01*
X78334039Y23050000D02*
G75*
G03*
X80416130Y23050163I1040961J1080000D01*
G01*
X81047335Y25208608D02*
G75*
G03*
X77815000Y25365516I-1672335J-1078608D01*
G01*
D14*
X8890000Y37840000D02*
X8890000Y37840000D01*
X8890000Y37940000D02*
X8890000Y37940000D01*
D15*
X3300000Y47930000D02*
X88140000Y47930000D01*
X88140000Y38430000D02*
X3300000Y38430000D01*
X88140000Y47930000D02*
X88140000Y38430000D01*
X3300000Y38430000D02*
X3300000Y47930000D01*
D14*
X8890000Y37840000D02*
G75*
G03*
X8890000Y37940000I0J50000D01*
G01*
X8890000Y37940000D02*
G75*
G03*
X8890000Y37840000I0J-50000D01*
G01*
D13*
X71420000Y9380000D02*
X70820000Y9380000D01*
X72120000Y11480000D02*
X72120000Y10080000D01*
X70120000Y10080000D02*
X70120000Y11480000D01*
X70820000Y12180000D02*
X71420000Y12180000D01*
X70820000Y12180000D02*
G75*
G03*
X70120000Y11480000I0J-700000D01*
G01*
X72120000Y11480000D02*
G75*
G03*
X71420000Y12180000I-700000J0D01*
G01*
X71420000Y9380000D02*
G75*
G03*
X72120000Y10080000I1J699999D01*
G01*
X70120000Y10080000D02*
G75*
G03*
X70820000Y9380000I699999J-1D01*
G01*
X60430000Y21920000D02*
X64030000Y21920000D01*
X62230000Y26370001D02*
G75*
G03*
X60391522Y21931522I0J-2600001D01*
G01*
X64068478Y21931522D02*
G75*
G03*
X62230000Y26370000I-1838478J1838478D01*
G01*
X68230000Y8875000D02*
X68230000Y12715000D01*
X66390000Y8875000D02*
X66390000Y12715000D01*
X20260000Y21860000D02*
X20260000Y20210000D01*
X20260000Y20210000D02*
X40700000Y20210000D01*
X40700000Y25510000D02*
X20260000Y25510000D01*
X40700000Y20210000D02*
X40700000Y25510000D01*
X20260000Y25510000D02*
X20260000Y23860000D01*
X20260000Y21860000D02*
G75*
G03*
X20260000Y23860000I0J1000000D01*
G01*
X79040000Y9380000D02*
X78440000Y9380000D01*
X79740000Y11480000D02*
X79740000Y10080000D01*
X77740000Y10080000D02*
X77740000Y11480000D01*
X78440000Y12180000D02*
X79040000Y12180000D01*
X79040000Y9380000D02*
G75*
G03*
X79740000Y10080000I1J699999D01*
G01*
X78440000Y12180000D02*
G75*
G03*
X77740000Y11480000I0J-700000D01*
G01*
X77740000Y10080000D02*
G75*
G03*
X78440000Y9380000I699999J-1D01*
G01*
X79740000Y11480000D02*
G75*
G03*
X79040000Y12180000I-700000J0D01*
G01*
X20245000Y12800000D02*
X20245000Y7500000D01*
X40685000Y12800000D02*
X20245000Y12800000D01*
X20245000Y7500000D02*
X40685000Y7500000D01*
X40685000Y7500000D02*
X40685000Y9150000D01*
X40685000Y11150000D02*
X40685000Y12800000D01*
X40685000Y11150000D02*
G75*
G03*
X40685000Y9150000I0J-1000000D01*
G01*
X75910000Y5681000D02*
X75910000Y5525000D01*
X75910000Y3365000D02*
X75910000Y3209000D01*
X78511130Y5524837D02*
G75*
G03*
X76429039Y5525000I-1041130J-1079837D01*
G01*
X75910000Y3209484D02*
G75*
G03*
X79142335Y3366392I1560000J1235516D01*
G01*
X76429039Y3365000D02*
G75*
G03*
X78511130Y3365163I1040961J1080000D01*
G01*
X79142335Y5523608D02*
G75*
G03*
X75910000Y5680516I-1672335J-1078608D01*
G01*
%LPC*%
D16*
X84455000Y11430000D03*
D17*
X86995000Y11430000D03*
X84455000Y8890000D03*
X86995000Y8890000D03*
X84455000Y6350000D03*
X86995000Y6350000D03*
X84455000Y3810000D03*
X86995000Y3810000D03*
D18*
X61500000Y52500000D03*
D19*
X75565000Y23495000D03*
D20*
X75565000Y24795000D03*
D16*
X85725000Y21590000D03*
D17*
X85725000Y24130000D03*
X85725000Y26670000D03*
D21*
X68580000Y4445000D03*
D22*
X71120000Y4445000D03*
D23*
X71755000Y21590000D03*
D24*
X71755000Y26670000D03*
D25*
X60960000Y15790000D03*
D26*
X62230000Y15790000D03*
X63500000Y15790000D03*
D23*
X74930000Y8255000D03*
D24*
X74930000Y13335000D03*
D21*
X78105000Y24130000D03*
D22*
X80645000Y24130000D03*
D18*
X3500000Y3500000D03*
D27*
X8890000Y40640000D03*
D28*
X11430000Y40640000D03*
X13970000Y40640000D03*
X16510000Y40640000D03*
X19050000Y40640000D03*
X21590000Y40640000D03*
X24130000Y40640000D03*
X26670000Y40640000D03*
X29210000Y40640000D03*
X31750000Y40640000D03*
X34290000Y40640000D03*
X36830000Y40640000D03*
X39370000Y40640000D03*
X41910000Y40640000D03*
X44450000Y40640000D03*
X46990000Y40640000D03*
X49530000Y40640000D03*
X52070000Y40640000D03*
X54610000Y40640000D03*
X57150000Y40640000D03*
X59690000Y40640000D03*
X62230000Y40640000D03*
X64770000Y40640000D03*
X67310000Y40640000D03*
X69850000Y40640000D03*
X72390000Y40640000D03*
X74930000Y40640000D03*
X77470000Y40640000D03*
X80010000Y40640000D03*
X82550000Y40640000D03*
X8890000Y45720000D03*
X11430000Y45720000D03*
X13970000Y45720000D03*
X16510000Y45720000D03*
X19050000Y45720000D03*
X21590000Y45720000D03*
X24130000Y45720000D03*
X26670000Y45720000D03*
X29210000Y45720000D03*
X31750000Y45720000D03*
X34290000Y45720000D03*
X36830000Y45720000D03*
X39370000Y45720000D03*
X41910000Y45720000D03*
X44450000Y45720000D03*
X46990000Y45720000D03*
X49530000Y45720000D03*
X52070000Y45720000D03*
X54610000Y45720000D03*
X57150000Y45720000D03*
X59690000Y45720000D03*
X62230000Y45720000D03*
X64770000Y45720000D03*
X67310000Y45720000D03*
X69850000Y45720000D03*
X72390000Y45720000D03*
X74930000Y45720000D03*
X77470000Y45720000D03*
X80010000Y45720000D03*
X82550000Y45720000D03*
D18*
X3500000Y52500000D03*
D19*
X71120000Y10130000D03*
D20*
X71120000Y11430000D03*
D25*
X60960000Y23770000D03*
D26*
X62230000Y23770000D03*
X63500000Y23770000D03*
D23*
X67310000Y8255000D03*
D24*
X67310000Y13335000D03*
D29*
X21590000Y19050000D03*
D30*
X24130000Y19050000D03*
X26670000Y19050000D03*
X29210000Y19050000D03*
X31750000Y19050000D03*
X34290000Y19050000D03*
X36830000Y19050000D03*
X39370000Y19050000D03*
X39370000Y26670000D03*
X36830000Y26670000D03*
X34290000Y26670000D03*
X31750000Y26670000D03*
X29210000Y26670000D03*
X26670000Y26670000D03*
X24130000Y26670000D03*
X21590000Y26670000D03*
D18*
X61500000Y3500000D03*
D19*
X78740000Y10130000D03*
D20*
X78740000Y11430000D03*
D29*
X39355000Y13960000D03*
D30*
X36815000Y13960000D03*
X34275000Y13960000D03*
X31735000Y13960000D03*
X29195000Y13960000D03*
X26655000Y13960000D03*
X24115000Y13960000D03*
X21575000Y13960000D03*
X21575000Y6340000D03*
X24115000Y6340000D03*
X26655000Y6340000D03*
X29195000Y6340000D03*
X31735000Y6340000D03*
X34275000Y6340000D03*
X36815000Y6340000D03*
X39355000Y6340000D03*
D21*
X76200000Y4445000D03*
D22*
X78740000Y4445000D03*
D16*
X8915000Y31720000D03*
D17*
X8915000Y29180000D03*
X8915000Y26640000D03*
X8915000Y24100000D03*
X8915000Y21560000D03*
X8915000Y19020000D03*
X8915000Y16480000D03*
X8915000Y13940000D03*
X8915000Y11400000D03*
X8915000Y8860000D03*
D16*
X54585000Y34270000D03*
D17*
X54585000Y31730000D03*
X54585000Y29190000D03*
X54585000Y26650000D03*
X54585000Y24110000D03*
X54585000Y21570000D03*
X54585000Y19030000D03*
X54585000Y16490000D03*
X54585000Y13950000D03*
X54585000Y11410000D03*
X54585000Y8870000D03*
X54585000Y6330000D03*
D16*
X50800000Y13960000D03*
D17*
X50800000Y11420000D03*
X50800000Y8880000D03*
X50800000Y6340000D03*
M02*
