M48
; DRILL file {KiCad (6.0.9)} date Sat Dec 17 09:54:32 2022
; FORMAT={-:-/ absolute / metric / decimal}
; #@! TF.CreationDate,2022-12-17T09:54:32+09:00
; #@! TF.GenerationSoftware,Kicad,Pcbnew,(6.0.9)
; #@! TF.FileFunction,Plated,1,2,PTH
FMAT,2
METRIC
; #@! TA.AperFunction,Plated,PTH,ViaDrill
T1C0.600
; #@! TA.AperFunction,Plated,PTH,ComponentDrill
T2C0.700
; #@! TA.AperFunction,Plated,PTH,ComponentDrill
T3C0.750
; #@! TA.AperFunction,Plated,PTH,ComponentDrill
T4C0.800
; #@! TA.AperFunction,Plated,PTH,ComponentDrill
T5C0.900
; #@! TA.AperFunction,Plated,PTH,ComponentDrill
T6C1.000
%
G90
G05
T1
X16.332Y31.72
X20.402Y30.558
X25.514Y47.786
X26.5Y44.398
X27.82Y34.794
X33.169Y16.268
T2
X67.31Y13.335
X67.31Y8.255
X71.755Y26.67
X71.755Y21.59
X74.93Y13.335
X74.93Y8.255
T3
X60.96Y23.77
X60.96Y15.79
X62.23Y23.77
X62.23Y15.79
X63.5Y23.77
X63.5Y15.79
T4
X8.89Y45.72
X8.89Y40.64
X11.43Y45.72
X11.43Y40.64
X13.97Y45.72
X13.97Y40.64
X16.51Y45.72
X16.51Y40.64
X19.05Y45.72
X19.05Y40.64
X21.575Y13.96
X21.575Y6.34
X21.59Y45.72
X21.59Y40.64
X21.59Y26.67
X21.59Y19.05
X24.115Y13.96
X24.115Y6.34
X24.13Y45.72
X24.13Y40.64
X24.13Y26.67
X24.13Y19.05
X26.655Y13.96
X26.655Y6.34
X26.67Y45.72
X26.67Y40.64
X26.67Y26.67
X26.67Y19.05
X29.195Y13.96
X29.195Y6.34
X29.21Y45.72
X29.21Y40.64
X29.21Y26.67
X29.21Y19.05
X31.735Y13.96
X31.735Y6.34
X31.75Y45.72
X31.75Y40.64
X31.75Y26.67
X31.75Y19.05
X34.275Y13.96
X34.275Y6.34
X34.29Y45.72
X34.29Y40.64
X34.29Y26.67
X34.29Y19.05
X36.815Y13.96
X36.815Y6.34
X36.83Y45.72
X36.83Y40.64
X36.83Y26.67
X36.83Y19.05
X39.355Y13.96
X39.355Y6.34
X39.37Y45.72
X39.37Y40.64
X39.37Y26.67
X39.37Y19.05
X41.91Y45.72
X41.91Y40.64
X44.45Y45.72
X44.45Y40.64
X46.99Y45.72
X46.99Y40.64
X49.53Y45.72
X49.53Y40.64
X52.07Y45.72
X52.07Y40.64
X54.61Y45.72
X54.61Y40.64
X57.15Y45.72
X57.15Y40.64
X59.69Y45.72
X59.69Y40.64
X62.23Y45.72
X62.23Y40.64
X64.77Y45.72
X64.77Y40.64
X67.31Y45.72
X67.31Y40.64
X69.85Y45.72
X69.85Y40.64
X72.39Y45.72
X72.39Y40.64
X74.93Y45.72
X74.93Y40.64
X77.47Y45.72
X77.47Y40.64
X80.01Y45.72
X80.01Y40.64
X82.55Y45.72
X82.55Y40.64
T5
X68.58Y4.445
X71.12Y4.445
X76.2Y4.445
X78.105Y24.13
X78.74Y4.445
X80.645Y24.13
T6
X8.915Y31.72
X8.915Y29.18
X8.915Y26.64
X8.915Y24.1
X8.915Y21.56
X8.915Y19.02
X8.915Y16.48
X8.915Y13.94
X8.915Y11.4
X8.915Y8.86
X50.8Y13.96
X50.8Y11.42
X50.8Y8.88
X50.8Y6.34
X54.585Y34.27
X54.585Y31.73
X54.585Y29.19
X54.585Y26.65
X54.585Y24.11
X54.585Y21.57
X54.585Y19.03
X54.585Y16.49
X54.585Y13.95
X54.585Y11.41
X54.585Y8.87
X54.585Y6.33
X84.455Y11.43
X84.455Y8.89
X84.455Y6.35
X84.455Y3.81
X85.725Y26.67
X85.725Y24.13
X85.725Y21.59
X86.995Y11.43
X86.995Y8.89
X86.995Y6.35
X86.995Y3.81
T0
M30
