G04 #@! TF.GenerationSoftware,KiCad,Pcbnew,(6.0.9)*
G04 #@! TF.CreationDate,2022-12-17T09:54:21+09:00*
G04 #@! TF.ProjectId,hat-prot-02,6861742d-7072-46f7-942d-30322e6b6963,rev?*
G04 #@! TF.SameCoordinates,PX5f5e100PY5f5e100*
G04 #@! TF.FileFunction,Copper,L2,Bot*
G04 #@! TF.FilePolarity,Positive*
%FSLAX46Y46*%
G04 Gerber Fmt 4.6, Leading zero omitted, Abs format (unit mm)*
G04 Created by KiCad (PCBNEW (6.0.9)) date 2022-12-17 09:54:21*
%MOMM*%
%LPD*%
G01*
G04 APERTURE LIST*
G04 #@! TA.AperFunction,ComponentPad*
%ADD10R,1.700000X1.700000*%
G04 #@! TD*
G04 #@! TA.AperFunction,ComponentPad*
%ADD11O,1.700000X1.700000*%
G04 #@! TD*
G04 #@! TA.AperFunction,ComponentPad*
%ADD12R,1.800000X1.800000*%
G04 #@! TD*
G04 #@! TA.AperFunction,ComponentPad*
%ADD13C,1.800000*%
G04 #@! TD*
G04 #@! TA.AperFunction,ComponentPad*
%ADD14C,1.400000*%
G04 #@! TD*
G04 #@! TA.AperFunction,ComponentPad*
%ADD15O,1.400000X1.400000*%
G04 #@! TD*
G04 #@! TA.AperFunction,ComponentPad*
%ADD16R,1.050000X1.500000*%
G04 #@! TD*
G04 #@! TA.AperFunction,ComponentPad*
%ADD17O,1.050000X1.500000*%
G04 #@! TD*
G04 #@! TA.AperFunction,ComponentPad*
%ADD18R,1.300000X1.300000*%
G04 #@! TD*
G04 #@! TA.AperFunction,ComponentPad*
%ADD19C,1.300000*%
G04 #@! TD*
G04 #@! TA.AperFunction,ComponentPad*
%ADD20R,1.600000X1.600000*%
G04 #@! TD*
G04 #@! TA.AperFunction,ComponentPad*
%ADD21O,1.600000X1.600000*%
G04 #@! TD*
G04 #@! TA.AperFunction,ViaPad*
%ADD22C,0.900000*%
G04 #@! TD*
G04 #@! TA.AperFunction,Conductor*
%ADD23C,0.500000*%
G04 #@! TD*
G04 #@! TA.AperFunction,Conductor*
%ADD24C,0.200000*%
G04 #@! TD*
G04 APERTURE END LIST*
D10*
X84455000Y11430000D03*
D11*
X86995000Y11430000D03*
X84455000Y8890000D03*
X86995000Y8890000D03*
X84455000Y6350000D03*
X86995000Y6350000D03*
X84455000Y3810000D03*
X86995000Y3810000D03*
D10*
X85725000Y21590000D03*
D11*
X85725000Y24130000D03*
X85725000Y26670000D03*
D12*
X68580000Y4445000D03*
D13*
X71120000Y4445000D03*
D14*
X71755000Y21590000D03*
D15*
X71755000Y26670000D03*
D16*
X60960000Y15790000D03*
D17*
X62230000Y15790000D03*
X63500000Y15790000D03*
D14*
X74930000Y8255000D03*
D15*
X74930000Y13335000D03*
D12*
X78105000Y24130000D03*
D13*
X80645000Y24130000D03*
D18*
X8890000Y40640000D03*
D19*
X11430000Y40640000D03*
X13970000Y40640000D03*
X16510000Y40640000D03*
X19050000Y40640000D03*
X21590000Y40640000D03*
X24130000Y40640000D03*
X26670000Y40640000D03*
X29210000Y40640000D03*
X31750000Y40640000D03*
X34290000Y40640000D03*
X36830000Y40640000D03*
X39370000Y40640000D03*
X41910000Y40640000D03*
X44450000Y40640000D03*
X46990000Y40640000D03*
X49530000Y40640000D03*
X52070000Y40640000D03*
X54610000Y40640000D03*
X57150000Y40640000D03*
X59690000Y40640000D03*
X62230000Y40640000D03*
X64770000Y40640000D03*
X67310000Y40640000D03*
X69850000Y40640000D03*
X72390000Y40640000D03*
X74930000Y40640000D03*
X77470000Y40640000D03*
X80010000Y40640000D03*
X82550000Y40640000D03*
X8890000Y45720000D03*
X11430000Y45720000D03*
X13970000Y45720000D03*
X16510000Y45720000D03*
X19050000Y45720000D03*
X21590000Y45720000D03*
X24130000Y45720000D03*
X26670000Y45720000D03*
X29210000Y45720000D03*
X31750000Y45720000D03*
X34290000Y45720000D03*
X36830000Y45720000D03*
X39370000Y45720000D03*
X41910000Y45720000D03*
X44450000Y45720000D03*
X46990000Y45720000D03*
X49530000Y45720000D03*
X52070000Y45720000D03*
X54610000Y45720000D03*
X57150000Y45720000D03*
X59690000Y45720000D03*
X62230000Y45720000D03*
X64770000Y45720000D03*
X67310000Y45720000D03*
X69850000Y45720000D03*
X72390000Y45720000D03*
X74930000Y45720000D03*
X77470000Y45720000D03*
X80010000Y45720000D03*
X82550000Y45720000D03*
D16*
X60960000Y23770000D03*
D17*
X62230000Y23770000D03*
X63500000Y23770000D03*
D14*
X67310000Y8255000D03*
D15*
X67310000Y13335000D03*
D20*
X21590000Y19050000D03*
D21*
X24130000Y19050000D03*
X26670000Y19050000D03*
X29210000Y19050000D03*
X31750000Y19050000D03*
X34290000Y19050000D03*
X36830000Y19050000D03*
X39370000Y19050000D03*
X39370000Y26670000D03*
X36830000Y26670000D03*
X34290000Y26670000D03*
X31750000Y26670000D03*
X29210000Y26670000D03*
X26670000Y26670000D03*
X24130000Y26670000D03*
X21590000Y26670000D03*
D20*
X39355000Y13960000D03*
D21*
X36815000Y13960000D03*
X34275000Y13960000D03*
X31735000Y13960000D03*
X29195000Y13960000D03*
X26655000Y13960000D03*
X24115000Y13960000D03*
X21575000Y13960000D03*
X21575000Y6340000D03*
X24115000Y6340000D03*
X26655000Y6340000D03*
X29195000Y6340000D03*
X31735000Y6340000D03*
X34275000Y6340000D03*
X36815000Y6340000D03*
X39355000Y6340000D03*
D12*
X76200000Y4445000D03*
D13*
X78740000Y4445000D03*
D10*
X8915000Y31720000D03*
D11*
X8915000Y29180000D03*
X8915000Y26640000D03*
X8915000Y24100000D03*
X8915000Y21560000D03*
X8915000Y19020000D03*
X8915000Y16480000D03*
X8915000Y13940000D03*
X8915000Y11400000D03*
X8915000Y8860000D03*
D10*
X54585000Y34270000D03*
D11*
X54585000Y31730000D03*
X54585000Y29190000D03*
X54585000Y26650000D03*
X54585000Y24110000D03*
X54585000Y21570000D03*
X54585000Y19030000D03*
X54585000Y16490000D03*
X54585000Y13950000D03*
X54585000Y11410000D03*
X54585000Y8870000D03*
X54585000Y6330000D03*
D10*
X50800000Y13960000D03*
D11*
X50800000Y11420000D03*
X50800000Y8880000D03*
X50800000Y6340000D03*
D22*
X25513700Y47786400D03*
X27820300Y34794500D03*
X16331900Y31720000D03*
X26500000Y44397900D03*
X20402200Y30558400D03*
X33168600Y16267800D03*
D23*
X60960000Y23770000D02*
X60960000Y15790000D01*
X61595000Y14589900D02*
X60960000Y15224900D01*
X66795700Y12182300D02*
X64388100Y14589900D01*
X40935400Y16234500D02*
X40935400Y14344600D01*
X39370000Y18425000D02*
X39370000Y17799900D01*
X50261800Y5018200D02*
X51973100Y5018200D01*
X88323800Y5138800D02*
X88323800Y11983400D01*
X40935400Y14344600D02*
X50261800Y5018200D01*
X88323800Y11983400D02*
X86972200Y13335000D01*
X72627200Y12182300D02*
X66795700Y12182300D01*
X64388100Y14589900D02*
X61595000Y14589900D01*
X86995000Y3810000D02*
X88323800Y5138800D01*
X39370000Y19050000D02*
X39370000Y18425000D01*
X74930000Y13335000D02*
X73779900Y13335000D01*
X39370000Y17799900D02*
X40935400Y16234500D01*
X46990000Y26045000D02*
X46990000Y40640000D01*
X86972200Y13335000D02*
X74930000Y13335000D01*
X73779900Y13335000D02*
X72627200Y12182300D01*
X51973100Y5018200D02*
X53284900Y6330000D01*
X54585000Y6330000D02*
X53284900Y6330000D01*
X39370000Y18425000D02*
X46990000Y26045000D01*
X60960000Y15224900D02*
X60960000Y15790000D01*
D24*
X22690100Y16849800D02*
X21590000Y17949900D01*
X15360300Y44570300D02*
X15360300Y45958800D01*
X11430000Y40640000D02*
X15360300Y44570300D01*
X17324500Y47923000D02*
X25377100Y47923000D01*
X25377100Y47923000D02*
X25513700Y47786400D01*
X24115000Y7440100D02*
X22690100Y8865000D01*
X24115000Y6340000D02*
X24115000Y7440100D01*
X22690100Y8865000D02*
X22690100Y16849800D01*
X21590000Y19050000D02*
X21590000Y17949900D01*
X15360300Y45958800D02*
X17324500Y47923000D01*
X30301600Y41165200D02*
X30301600Y40215600D01*
X64770000Y45720000D02*
X61786900Y48703100D01*
X33774200Y44637800D02*
X30301600Y41165200D01*
X30301600Y40215600D02*
X29610200Y39524200D01*
X37092500Y44637800D02*
X33774200Y44637800D01*
X41005500Y48703100D02*
X37881700Y45579300D01*
X29610200Y38786700D02*
X24130000Y33306500D01*
X37881700Y45427000D02*
X37092500Y44637800D01*
X61786900Y48703100D02*
X41005500Y48703100D01*
X29610200Y39524200D02*
X29610200Y38786700D01*
X37881700Y45579300D02*
X37881700Y45427000D01*
X24130000Y33306500D02*
X24130000Y26670000D01*
X33740000Y44037700D02*
X30701700Y40999400D01*
X30701700Y39850100D02*
X30160200Y39308600D01*
X30160200Y38770900D02*
X26670100Y35280800D01*
X42669100Y47902900D02*
X40640000Y45873800D01*
X40640000Y45599300D02*
X39078400Y44037700D01*
X30160200Y39308600D02*
X30160200Y38770900D01*
X26670100Y35280800D02*
X26670100Y27770100D01*
X39078400Y44037700D02*
X33740000Y44037700D01*
X60047100Y47902900D02*
X42669100Y47902900D01*
X26670000Y26670000D02*
X26670000Y27770100D01*
X30701700Y40999400D02*
X30701700Y39850100D01*
X40640000Y45873800D02*
X40640000Y45599300D01*
X62230000Y45720000D02*
X60047100Y47902900D01*
X26670100Y27770100D02*
X26670000Y27770100D01*
X58307300Y47102700D02*
X59690000Y45720000D01*
X43180000Y45861300D02*
X44421400Y47102700D01*
X44421400Y47102700D02*
X58307300Y47102700D01*
X33020000Y40763100D02*
X35436900Y43180000D01*
X43180000Y45591500D02*
X43180000Y45861300D01*
X31750000Y38665900D02*
X33020000Y39935900D01*
X33020000Y39935900D02*
X33020000Y40763100D01*
X35436900Y43180000D02*
X40768500Y43180000D01*
X40768500Y43180000D02*
X43180000Y45591500D01*
X31750000Y26670000D02*
X31750000Y38665900D01*
X29210000Y33404800D02*
X27820300Y34794500D01*
X29210000Y26670000D02*
X29210000Y33404800D01*
X27079100Y12811400D02*
X26246900Y12811400D01*
X29210000Y19050000D02*
X29210000Y17949900D01*
X22718500Y17946200D02*
X22718500Y20026800D01*
X29210000Y17949900D02*
X27925000Y16664900D01*
X18778200Y33540100D02*
X24130000Y38891900D01*
X18778200Y23967100D02*
X18778200Y33540100D01*
X24130000Y38891900D02*
X24130000Y40640000D01*
X22718500Y20026800D02*
X18778200Y23967100D01*
X27925000Y16664900D02*
X27925000Y13657300D01*
X25385000Y13673300D02*
X25385000Y15279700D01*
X26246900Y12811400D02*
X25385000Y13673300D01*
X27925000Y13657300D02*
X27079100Y12811400D01*
X25385000Y15279700D02*
X22718500Y17946200D01*
X24130000Y19243300D02*
X19210700Y24162600D01*
X24130000Y19050000D02*
X24130000Y19243300D01*
X19210700Y33180700D02*
X26670000Y40640000D01*
X19210700Y24162600D02*
X19210700Y33180700D01*
X26670000Y19050000D02*
X26670000Y20150100D01*
X26670000Y20150100D02*
X26532500Y20150100D01*
X20458900Y26223700D02*
X20458900Y29554300D01*
X26532500Y20150100D02*
X20458900Y26223700D01*
X21152300Y30247700D02*
X21152300Y30980800D01*
X29210000Y39038500D02*
X29210000Y40640000D01*
X20458900Y29554300D02*
X21152300Y30247700D01*
X21152300Y30980800D02*
X29210000Y39038500D01*
X31750000Y19050000D02*
X31750000Y20150100D01*
X30609700Y39192200D02*
X31750000Y40332500D01*
X30609700Y21290400D02*
X30609700Y39192200D01*
X31750000Y40332500D02*
X31750000Y40640000D01*
X31750000Y20150100D02*
X30609700Y21290400D01*
X34290000Y20150100D02*
X33168300Y21271800D01*
X33168300Y21271800D02*
X33168300Y39518300D01*
X34290000Y19050000D02*
X34290000Y20150100D01*
X33168300Y39518300D02*
X34290000Y40640000D01*
X36830000Y20150100D02*
X35718700Y21261400D01*
X36830000Y19050000D02*
X36830000Y20150100D01*
X35718700Y39528700D02*
X36830000Y40640000D01*
X35718700Y21261400D02*
X35718700Y39528700D01*
X39370000Y27770100D02*
X39370000Y40640000D01*
X39370000Y26670000D02*
X39370000Y27770100D01*
D23*
X67310000Y8255000D02*
X67310000Y7065100D01*
X68580000Y4445000D02*
X68580000Y5795100D01*
X67310000Y7065100D02*
X68580000Y5795100D01*
X80645000Y24130000D02*
X81884900Y24130000D01*
X21590000Y26670000D02*
X22322100Y26670000D01*
X81884900Y24130000D02*
X81884900Y39974900D01*
X80684200Y2500800D02*
X87601000Y2500800D01*
X81884900Y24130000D02*
X84424900Y21590000D01*
X33005000Y13140000D02*
X39805000Y6340000D01*
X25094400Y25016300D02*
X30480000Y19630700D01*
X85725000Y21590000D02*
X84424900Y21590000D01*
X39805000Y6340000D02*
X40605100Y6340000D01*
X39355000Y6340000D02*
X39805000Y6340000D01*
X87601000Y2500800D02*
X89027900Y3927700D01*
X30480000Y19630700D02*
X30480000Y16989000D01*
X89027900Y3927700D02*
X89027900Y18287100D01*
X68352200Y1677200D02*
X45267900Y1677200D01*
X71120000Y4445000D02*
X68352200Y1677200D01*
X30480000Y16989000D02*
X33005000Y14464000D01*
X78740000Y4445000D02*
X80684200Y2500800D01*
X45267900Y1677200D02*
X40605100Y6340000D01*
X22322100Y26670000D02*
X23975800Y25016300D01*
X23975800Y25016300D02*
X25094400Y25016300D01*
X33005000Y14464000D02*
X33005000Y13140000D01*
X89027900Y18287100D02*
X85725000Y21590000D01*
X81884900Y39974900D02*
X82550000Y40640000D01*
D24*
X41953000Y48303000D02*
X39370000Y45720000D01*
X72390000Y40640000D02*
X71439800Y41590200D01*
X63500000Y45551500D02*
X63500000Y45812000D01*
X61009000Y48303000D02*
X41953000Y48303000D01*
X22718500Y40616400D02*
X26500000Y44397900D01*
X16331900Y31720000D02*
X22718500Y38106600D01*
X71439800Y41590200D02*
X67461300Y41590200D01*
X67461300Y41590200D02*
X63500000Y45551500D01*
X22718500Y38106600D02*
X22718500Y40616400D01*
X63500000Y45812000D02*
X61009000Y48303000D01*
X14960100Y45281600D02*
X14960100Y46124500D01*
X30799800Y45317300D02*
X31398300Y44718800D01*
X35879800Y46670200D02*
X36830000Y45720000D01*
X8915000Y29539400D02*
X10065100Y30689500D01*
X27760700Y48558100D02*
X30799800Y45519000D01*
X11588500Y41910000D02*
X14960100Y45281600D01*
X33892100Y46670200D02*
X35879800Y46670200D01*
X33020100Y45798200D02*
X33892100Y46670200D01*
X31398300Y44718800D02*
X32107400Y44718800D01*
X10065100Y30689500D02*
X10065100Y40645000D01*
X32107400Y44718800D02*
X33020100Y45631500D01*
X33020100Y45631500D02*
X33020100Y45798200D01*
X8915000Y29180000D02*
X8915000Y29539400D01*
X30799800Y45519000D02*
X30799800Y45317300D01*
X11330100Y41910000D02*
X11588500Y41910000D01*
X17393700Y48558100D02*
X27760700Y48558100D01*
X14960100Y46124500D02*
X17393700Y48558100D01*
X10065100Y40645000D02*
X11330100Y41910000D01*
X28020400Y38526700D02*
X28020400Y40795200D01*
X20402200Y30908500D02*
X28020400Y38526700D01*
X28020400Y40795200D02*
X30124200Y42899000D01*
X31469000Y42899000D02*
X34290000Y45720000D01*
X30124200Y42899000D02*
X31469000Y42899000D01*
X20402200Y30558400D02*
X20402200Y30908500D01*
X8915000Y24740000D02*
X8890000Y24765000D01*
X8915000Y24100000D02*
X8915000Y24740000D01*
X9984000Y44096900D02*
X11168900Y44096900D01*
X8890000Y24765000D02*
X8890000Y24987600D01*
X28491400Y48978600D02*
X31750000Y45720000D01*
X7313800Y26563800D02*
X7313800Y41426700D01*
X15790100Y48978600D02*
X28491400Y48978600D01*
X11168900Y44096900D02*
X12700000Y45628000D01*
X7313800Y41426700D02*
X9984000Y44096900D01*
X12700000Y45888500D02*
X15790100Y48978600D01*
X8890000Y24987600D02*
X7313800Y26563800D01*
X12700000Y45628000D02*
X12700000Y45888500D01*
X8553900Y10130000D02*
X7354800Y11329100D01*
X20474900Y6340000D02*
X16684900Y10130000D01*
X10108100Y23648700D02*
X10108100Y27141400D01*
X7354800Y11329100D02*
X7354800Y21639000D01*
X21575000Y6340000D02*
X20474900Y6340000D01*
X16684900Y10130000D02*
X8553900Y10130000D01*
X7743100Y28718400D02*
X7743100Y41290100D01*
X7354800Y21639000D02*
X8545800Y22830000D01*
X9289400Y22830000D02*
X10108100Y23648700D01*
X9318900Y27930600D02*
X8530900Y27930600D01*
X10108100Y27141400D02*
X9318900Y27930600D01*
X8530900Y27930600D02*
X7743100Y28718400D01*
X7743100Y41290100D02*
X9749600Y43296600D01*
X8545800Y22830000D02*
X9289400Y22830000D01*
X9749600Y43296600D02*
X11546600Y43296600D01*
X11546600Y43296600D02*
X13970000Y45720000D01*
X25037400Y46636200D02*
X25990100Y46636200D01*
X25554900Y19206300D02*
X25554900Y16160200D01*
X19651900Y25109300D02*
X25554900Y19206300D01*
X19651900Y31724600D02*
X19651900Y25109300D01*
X25990100Y46636200D02*
X26058400Y46704500D01*
X26655000Y13960000D02*
X26655000Y15060100D01*
X27029600Y46704500D02*
X27620200Y46113900D01*
X24596100Y47077500D02*
X25037400Y46636200D01*
X26058400Y46704500D02*
X27029600Y46704500D01*
X20407500Y47077500D02*
X24596100Y47077500D01*
X25554900Y16160200D02*
X26655000Y15060100D01*
X27620200Y39692900D02*
X19651900Y31724600D01*
X19050000Y45720000D02*
X20407500Y47077500D01*
X27620200Y46113900D02*
X27620200Y39692900D01*
X15172400Y35344200D02*
X15172400Y21060000D01*
X20000200Y40172000D02*
X15172400Y35344200D01*
X15172400Y21060000D02*
X8915000Y14802600D01*
X20000200Y44130200D02*
X20000200Y40172000D01*
X8915000Y14802600D02*
X8915000Y13940000D01*
X21590000Y45720000D02*
X20000200Y44130200D01*
X8915000Y16480000D02*
X8915000Y17342600D01*
X21169300Y46673500D02*
X23176500Y46673500D01*
X13919300Y22346900D02*
X13919300Y35518400D01*
X8915000Y17342600D02*
X13919300Y22346900D01*
X20451100Y45955300D02*
X21169300Y46673500D01*
X13919300Y35518400D02*
X17780000Y39379100D01*
X20451100Y45662300D02*
X20451100Y45955300D01*
X17780000Y39379100D02*
X17780000Y42991200D01*
X17780000Y42991200D02*
X20451100Y45662300D01*
X23176500Y46673500D02*
X24130000Y45720000D01*
X9403100Y12764600D02*
X15572500Y18934000D01*
X24984000Y44034000D02*
X26670000Y45720000D01*
X8457000Y12764600D02*
X9403100Y12764600D01*
X15572500Y34196100D02*
X20611500Y39235100D01*
X8915000Y19020000D02*
X7755000Y17860000D01*
X15572500Y18934000D02*
X15572500Y34196100D01*
X23611300Y44034000D02*
X24984000Y44034000D01*
X20611500Y41034200D02*
X23611300Y44034000D01*
X7755000Y17860000D02*
X7755000Y13466600D01*
X20611500Y39235100D02*
X20611500Y41034200D01*
X7755000Y13466600D02*
X8457000Y12764600D01*
X24761600Y47477800D02*
X25203100Y47036300D01*
X25203100Y47036300D02*
X25824400Y47036300D01*
X16691500Y44715600D02*
X16908500Y44715600D01*
X25892700Y47104600D02*
X27825400Y47104600D01*
X17780000Y45793500D02*
X19464300Y47477800D01*
X8915000Y21560000D02*
X12700000Y25345000D01*
X12700000Y25345000D02*
X12700000Y40724100D01*
X27825400Y47104600D02*
X29210000Y45720000D01*
X12700000Y40724100D02*
X16691500Y44715600D01*
X25824400Y47036300D02*
X25892700Y47104600D01*
X19464300Y47477800D02*
X24761600Y47477800D01*
X17780000Y45587100D02*
X17780000Y45793500D01*
X16908500Y44715600D02*
X17780000Y45587100D01*
D23*
X74930000Y7065100D02*
X74930000Y8255000D01*
X76200000Y4445000D02*
X76200000Y5795100D01*
X76200000Y5795100D02*
X74930000Y7065100D01*
D24*
X53276000Y10094100D02*
X77020800Y10094100D01*
X77020800Y10094100D02*
X83304900Y3810000D01*
X51950100Y11420000D02*
X53276000Y10094100D01*
X84455000Y3810000D02*
X83304900Y3810000D01*
X50800000Y11420000D02*
X51950100Y11420000D01*
X51950100Y13960000D02*
X53230100Y12680000D01*
X62423500Y12680000D02*
X64407600Y10695900D01*
X64407600Y10695900D02*
X78357100Y10695900D01*
X50800000Y13960000D02*
X51950100Y13960000D01*
X82703000Y6350000D02*
X84455000Y6350000D01*
X78357100Y10695900D02*
X82703000Y6350000D01*
X53230100Y12680000D02*
X62423500Y12680000D01*
X54585000Y30052600D02*
X60689200Y36156800D01*
X60689200Y46066400D02*
X59252800Y47502800D01*
X59252800Y47502800D02*
X43692800Y47502800D01*
X54585000Y29190000D02*
X54585000Y30052600D01*
X43692800Y47502800D02*
X41910000Y45720000D01*
X60689200Y36156800D02*
X60689200Y46066400D01*
X54585000Y24972600D02*
X49530000Y30027600D01*
X54585000Y24110000D02*
X54585000Y24972600D01*
X49530000Y30027600D02*
X49530000Y40640000D01*
X48579700Y44769700D02*
X49530000Y45720000D01*
X54585000Y16490000D02*
X54585000Y17352600D01*
X48579700Y23357900D02*
X48579700Y44769700D01*
X54585000Y17352600D02*
X48579700Y23357900D01*
X63595200Y13950000D02*
X54585000Y13950000D01*
X86995000Y6350000D02*
X86083200Y6350000D01*
X79907500Y11096100D02*
X66449100Y11096100D01*
X86083200Y6350000D02*
X84813200Y7620000D01*
X84813200Y7620000D02*
X83383600Y7620000D01*
X66449100Y11096100D02*
X63595200Y13950000D01*
X83383600Y7620000D02*
X79907500Y11096100D01*
D23*
X65405000Y19394900D02*
X65405000Y15240000D01*
X62230000Y23770000D02*
X62230000Y22569900D01*
X65405000Y15240000D02*
X67310000Y13335000D01*
X62230000Y22569900D02*
X65405000Y19394900D01*
D24*
X48260100Y45016000D02*
X48260100Y45848100D01*
X45720000Y42475900D02*
X48260100Y45016000D01*
X45720000Y29827600D02*
X45720000Y42475900D01*
X38013600Y22121200D02*
X45720000Y29827600D01*
X48260100Y45848100D02*
X49103900Y46691900D01*
X35620100Y16267800D02*
X38013600Y18661300D01*
X33168600Y16267800D02*
X35620100Y16267800D01*
X53638100Y46691900D02*
X54610000Y45720000D01*
X49103900Y46691900D02*
X53638100Y46691900D01*
X38013600Y18661300D02*
X38013600Y22121200D01*
M02*
